<svg width="178" height="200" viewBox="0 0 178 200" fill="none" xmlns="http://www.w3.org/2000/svg" xmlns:xlink="http://www.w3.org/1999/xlink">
<path d="M105.123,199.941C103.897,198.996 102.33,198.991 100.952,198.438C92.725,195.161 85.756,190.032 79.387,184.048C69.036,174.337 60.831,163.176 56.576,149.532C52.32,135.887 53.499,122.749 62.288,110.973C68.689,102.395 77.483,97.855 88.26,97.819C104.565,97.772 118.766,109.819 121.691,125.755C122.38,129.49 122.364,133.247 122.422,137.02C122.538,145.107 127.918,152.224 135.35,154.238C145.081,156.847 155.216,150.508 157.057,140.495C158.109,134.792 157.425,129.068 156.568,123.417C154.464,109.329 148.931,96.681 139.632,85.812C127.229,71.323 111.608,62.901 92.294,61.618C63.166,59.682 37.167,77.01 25.664,102.134C20.747,112.684 18.475,124.257 19.042,135.867C19.8,150.998 24.681,164.737 34.017,176.821C35.405,178.621 36.647,180.473 36.121,182.858C35.595,185.404 34.085,187.199 31.455,187.856C30.279,188.202 29.024,188.179 27.861,187.79C26.699,187.402 25.685,186.667 24.959,185.686C17.168,175.983 11.627,164.698 8.728,152.631C6.77,144.787 5.988,136.7 6.408,128.63C7.46,109.971 13.677,93.227 25.622,78.69C35.868,66.214 48.639,57.224 64.197,52.601C91.09,44.629 115.858,49.137 137.785,66.621C155.348,80.631 165.352,99.16 168.912,121.158C169.964,127.852 170.49,134.573 169.686,141.35C168.039,155.031 155.679,166.349 141.809,167.231C124.131,168.352 109.82,153.857 109.799,137.192C109.799,132.162 109.735,127.184 107.432,122.514C102.445,112.428 90.737,107.534 80.833,111.766C73.033,115.095 68.983,121.559 67.353,129.574C65.875,136.842 67.274,143.855 70.261,150.497C76.957,165.384 87.618,176.842 101.683,185.185C103.798,186.502 106.204,187.29 108.694,187.481C110.013,187.59 111.26,188.12 112.249,188.992C113.238,189.864 113.916,191.031 114.18,192.318C114.764,195.245 113.58,197.723 110.94,199.195C110.561,199.403 110.03,199.419 109.83,199.91L105.123,199.941Z" fill="#FFFFFF" fill-opacity="0.75"/>
<path d="M66.554,199.94C62.051,197.289 59.148,193.047 55.929,189.17C47.061,178.469 39.398,166.995 34.517,153.919C26.385,132.166 29.625,112.036 44.295,94.061C53.883,82.31 66.559,75.47 81.812,73.795C110.888,70.591 137.791,89.761 144.492,118.323C145.56,122.749 146.111,127.282 146.133,131.832C146.133,135.918 143.898,138.589 140.289,138.735C136.429,138.897 133.667,136.351 133.573,132.208C133.478,127.955 133.094,123.75 131.821,119.685C126.12,101.569 114.191,89.944 95.177,86.448C77.915,83.27 59.758,91.728 50.338,106.839C40.918,121.95 40.602,137.452 47.819,153.392C53.767,166.531 62.151,178.057 72.118,188.414C75.858,192.301 75.011,198.364 69.83,199.783C69.778,199.783 69.746,199.877 69.699,199.924L66.554,199.94Z" fill="#FFFFFF" fill-opacity="0.75"/>
<path d="M170.058,80.907C167.365,80.949 165.671,79.514 164.33,77.531C160.433,71.82 155.893,66.568 150.797,61.878C136.543,48.671 119.859,40.182 100.451,37.944C63.633,33.702 34.583,47.44 12.661,76.706C11.272,78.564 9.994,80.468 7.475,80.849C4.75,81.267 2.505,80.359 1.042,78.047C0.349,77.046 -0.016,75.857 0.001,74.642C0.017,73.427 0.412,72.247 1.132,71.264C5.3,65.022 10.141,59.248 15.57,54.046C27.904,42.254 42.147,33.545 58.662,28.886C92.772,19.269 123.962,25.458 152.17,46.6C161.079,53.273 168.475,61.413 174.786,70.555C176.943,73.685 176.843,76.743 174.529,79.075C173.962,79.685 173.269,80.164 172.497,80.481C171.725,80.797 170.892,80.942 170.058,80.907L170.058,80.907Z" fill="#FFFFFF" fill-opacity="0.75"/>
<path d="M88.292,0C116.172,0.365 140.678,9.583 161.812,27.654C162.459,28.202 163.09,28.776 163.695,29.371C166.262,31.917 166.404,35.564 164.058,38.142C162.968,39.342 161.446,40.07 159.821,40.167C158.195,40.265 156.596,39.725 155.369,38.664C152.581,36.399 149.899,34.015 146.99,31.881C133.636,21.987 117.959,15.637 101.441,13.431C82.548,10.879 64.392,13.665 47.04,21.549C37.695,25.846 29.054,31.514 21.409,38.361C18.864,40.615 15.655,40.746 13.131,38.846C12.019,37.971 11.233,36.752 10.899,35.383C10.564,34.015 10.7,32.574 11.284,31.291C11.792,30.301 12.51,29.433 13.388,28.745C28.989,14.923 47.05,5.938 67.563,1.983C74.393,0.666 81.334,0.003 88.292,0L88.292,0Z" fill="#FFFFFF" fill-opacity="0.75"/>
<path d="M81.481,130.459C81.413,125.956 82.575,123.718 85.542,122.632C89.681,121.14 93.957,124.015 94.02,128.581C94.199,141.103 98.754,151.909 106.775,161.343C112.192,167.709 118.641,172.728 127.051,174.68C128.523,174.99 130.018,175.18 131.522,175.248C135.098,175.483 137.791,178.129 137.76,181.51C137.754,182.344 137.582,183.169 137.253,183.937C136.923,184.705 136.444,185.4 135.841,185.983C135.239,186.565 134.526,187.023 133.744,187.33C132.962,187.637 132.126,187.787 131.285,187.771C126.488,187.696 121.764,186.6 117.431,184.557C103.041,177.904 93.236,166.816 86.73,152.728C83.443,145.747 81.655,138.163 81.481,130.459L81.481,130.459Z" fill="#FFFFFF" fill-opacity="0.75"/>
</svg>
