<svg width="362" height="360" viewBox="0 0 362 360" fill="none" xmlns="http://www.w3.org/2000/svg" xmlns:xlink="http://www.w3.org/1999/xlink">
<path d="M68.926,209.518C61.013,209.518 53.111,209.448 45.198,209.518C42.953,209.518 41.967,209.258 41.987,206.588C42.057,197.499 41.926,197.499 51.047,197.499C64.979,197.499 78.922,197.439 92.854,197.499C95.442,197.499 96.519,197.219 96.448,194.179C96.227,185.489 96.448,185.479 87.781,185.479C87.398,185.479 87.026,185.479 86.643,185.479C83.935,185.269 79.596,186.629 78.841,184.949C77.523,182.049 78.338,178.178 78.288,174.708C78.288,173.038 79.586,173.529 80.462,173.519C84.731,173.519 88.999,173.379 93.267,173.519C95.603,173.619 96.448,173.119 96.428,170.519C96.358,161.518 96.428,161.518 87.368,161.518C79.828,161.518 72.268,161.518 64.768,161.518C63.297,161.444 61.853,161.939 60.741,162.898C52.903,169.505 44.997,176.045 37.024,182.519C35.363,183.869 34.89,185.009 35.474,187.169C36.451,190.804 36.224,194.656 34.826,198.154C33.428,201.652 30.934,204.608 27.712,206.588C25.322,208.1 22.608,209.03 19.788,209.306C16.969,209.58 14.124,209.19 11.485,208.168C8.845,207.148 6.485,205.522 4.596,203.426C2.706,201.328 1.341,198.819 0.61,196.1C-0.121,193.381 -0.196,190.53 0.39,187.776C0.976,185.023 2.206,182.446 3.982,180.253C5.758,178.061 8.029,176.315 10.611,175.157C13.193,173.999 16.013,173.461 18.843,173.588C19.72,173.521 20.601,173.651 21.42,173.968C25.729,176.408 28.618,174.198 31.789,171.448C39.732,164.578 47.896,158.018 55.95,151.248C57.253,150.096 58.958,149.494 60.701,149.568C71.624,149.638 82.546,149.568 93.468,149.648C95.673,149.648 96.488,149.288 96.488,146.858C96.488,137.638 96.589,137.648 87.227,137.628C81.459,137.628 75.046,139.108 70.114,137.088C65.181,135.068 61.708,129.508 57.6,125.498C56.704,124.618 55.748,123.798 54.943,122.848C52.195,119.578 49.658,117.748 44.554,119.278C37.416,121.408 29.454,116.538 26.011,109.598C24.304,106.135 23.766,102.217 24.478,98.426C25.19,94.635 27.113,91.173 29.962,88.553C32.811,85.934 36.435,84.297 40.295,83.885C44.154,83.474 48.045,84.309 51.389,86.268C58.043,90.158 61.788,98.268 59.664,105.468C58.718,108.698 59.362,110.618 61.758,112.768C65.785,116.358 69.469,120.278 73.244,124.098C73.678,124.615 74.224,125.027 74.842,125.304C75.459,125.581 76.131,125.716 76.808,125.698C82.586,125.598 88.361,125.598 94.133,125.698C95.864,125.698 96.348,125.308 96.559,123.488C98.291,107.928 108.74,97.488 124.313,95.858C126.065,95.668 126.608,95.318 126.598,93.508C126.511,81.788 126.511,70.068 126.598,58.348C126.601,57.615 126.439,56.891 126.124,56.228C125.808,55.565 125.348,54.981 124.776,54.518C118.626,48.458 112.434,42.438 106.424,36.247C104.763,34.537 103.404,34.427 101.23,35.077C97.596,36.15 93.711,36.033 90.148,34.744C86.586,33.455 83.536,31.061 81.449,27.917C79.863,25.569 78.859,22.881 78.519,20.074C78.179,17.267 78.511,14.419 79.49,11.764C80.469,9.109 82.066,6.721 84.151,4.796C86.236,2.871 88.75,1.464 91.488,0.688C94.225,-0.088 97.108,-0.209 99.902,0.333C102.695,0.875 105.32,2.066 107.562,3.809C109.804,5.551 111.599,7.796 112.801,10.359C114.003,12.922 114.577,15.731 114.478,18.557C114.55,19.053 114.512,19.558 114.367,20.037C111.73,24.957 114.649,27.827 117.981,30.947C124.192,36.757 130.061,42.948 136.182,48.838C137.01,49.558 137.664,50.454 138.094,51.46C138.525,52.466 138.721,53.556 138.668,54.648C138.538,67.238 138.668,79.838 138.558,92.428C138.558,94.878 138.89,95.848 141.709,95.808C150.658,95.678 150.658,95.808 150.658,87.028C150.658,77.488 150.658,77.578 160.181,77.708C162.456,77.708 162.819,78.528 162.758,80.498C162.628,84.738 162.758,88.978 162.678,93.218C162.678,95.038 162.99,95.748 165.094,95.798C174.768,96.018 174.768,96.108 174.768,86.618C174.768,76.268 174.768,65.918 174.768,55.618C174.887,54.785 174.719,53.936 174.291,53.21C173.864,52.484 173.202,51.923 172.412,51.618C168.782,49.83 165.887,46.849 164.219,43.181C162.55,39.514 162.212,35.385 163.262,31.497C164.226,27.637 166.458,24.205 169.604,21.744C172.75,19.284 176.632,17.934 180.637,17.909C184.641,17.884 188.54,19.184 191.717,21.605C194.895,24.026 197.17,27.429 198.183,31.277C199.28,35.153 198.992,39.286 197.368,42.974C195.744,46.662 192.884,49.677 189.274,51.508C188.437,51.831 187.733,52.422 187.273,53.189C186.813,53.955 186.625,54.853 186.737,55.738C186.828,68.088 186.858,80.428 186.737,92.738C186.737,95.248 187.462,95.738 189.858,95.738C198.848,95.738 198.848,95.738 198.848,87.018C198.848,77.188 198.848,77.258 208.704,77.668C210.596,77.738 210.988,78.328 210.938,80.038C210.838,84.268 211.008,88.518 210.868,92.748C210.788,94.858 211.09,95.748 213.616,95.748C222.958,95.748 223.572,95.818 222.776,86.618C222.052,78.258 224.79,72.478 231.012,66.958C240.626,58.398 249.384,48.888 258.594,39.878C260.206,38.308 260.698,37.097 259.974,34.777C258.822,31.122 258.912,27.191 260.232,23.591C261.55,19.992 264.024,16.923 267.272,14.857C270.438,12.793 274.176,11.77 277.96,11.933C281.744,12.097 285.378,13.438 288.352,15.767C291.326,18.096 293.486,21.295 294.53,24.911C295.572,28.528 295.442,32.378 294.16,35.917C292.838,39.511 290.402,42.595 287.2,44.723C284,46.851 280.2,47.914 276.352,47.758C275.852,47.824 275.344,47.779 274.862,47.628C269.98,44.858 267.262,48.038 264.222,51.128C255.444,60.048 246.562,68.858 237.574,77.558C236.65,78.363 235.932,79.375 235.478,80.51C235.024,81.646 234.85,82.872 234.968,84.088C235.158,87.568 233.96,91.548 235.32,94.418C236.678,97.288 241.23,95.978 244.25,97.098C256.48,101.608 263.376,110.248 264.966,123.098C265.228,125.188 265.742,125.998 267.796,125.648C267.922,125.638 268.05,125.638 268.178,125.648C274.328,125.648 281.376,127.478 286.388,125.088C292.428,122.248 296.516,115.668 301.66,110.928C303.392,109.328 302.456,108.068 302.042,106.598C301.006,102.969 301.152,99.107 302.458,95.565C303.762,92.023 306.162,88.981 309.312,86.875C312.464,84.768 316.202,83.705 319.998,83.837C323.794,83.969 327.45,85.289 330.444,87.609C333.438,89.928 335.618,93.129 336.672,96.753C337.724,100.378 337.598,104.24 336.31,107.788C335.02,111.337 332.636,114.389 329.494,116.51C326.354,118.631 322.62,119.712 318.824,119.598C318.2,119.688 317.564,119.637 316.962,119.448C312.23,116.728 309.522,119.618 306.604,122.758C302.576,127.058 298.208,130.998 294.17,135.278C293.438,136.097 292.524,136.736 291.5,137.144C290.476,137.551 289.37,137.717 288.272,137.628C281.496,137.488 274.712,137.698 267.936,137.518C265.54,137.458 264.916,138.168 265.108,140.428C265.44,143.368 263.85,147.428 265.732,148.978C267.614,150.528 271.44,149.528 274.42,149.538C283.298,149.538 283.168,149.538 283.298,158.398C283.298,161.118 282.502,161.728 279.946,161.588C275.92,161.368 271.892,161.588 267.866,161.488C265.852,161.418 265.068,161.738 265.038,164.028C264.906,173.499 264.856,172.899 274.41,173.639C287.748,174.639 299.888,172.138 311.164,164.958C314.822,162.8 318.63,160.902 322.558,159.278C323.482,158.983 324.274,158.382 324.804,157.575C325.334,156.769 325.568,155.806 325.468,154.848C325.568,144.948 334.236,137.168 344.304,137.588C346.71,137.659 349.076,138.208 351.266,139.201C353.456,140.194 355.422,141.612 357.052,143.371C358.682,145.13 359.942,147.195 360.758,149.445C361.572,151.694 361.926,154.083 361.8,156.471C361.672,158.858 361.066,161.196 360.016,163.348C358.966,165.499 357.492,167.42 355.684,168.998C353.876,170.576 351.768,171.779 349.486,172.537C347.202,173.294 344.79,173.59 342.39,173.409C338.976,173.316 335.684,172.134 332.998,170.038C331.368,168.688 330.11,168.798 328.348,169.688C318.652,174.598 308.868,179.349 299.154,184.249C297.494,185.102 295.646,185.531 293.778,185.499C285.242,185.439 276.664,185.499 268.168,185.419C265.842,185.419 264.986,185.819 265.006,188.419C265.078,197.419 265.006,197.419 274.068,197.419C280.348,197.419 286.62,197.419 292.902,197.419C294.634,197.419 295.198,197.799 295.268,199.659C295.67,209.438 295.73,209.428 285.836,209.428C279.684,209.428 273.534,209.488 267.382,209.428C265.632,209.428 265.098,209.838 265.028,211.668C264.634,221.428 264.574,221.428 274.48,221.428C289.168,221.428 303.854,221.428 318.542,221.378C319.582,221.296 320.626,221.456 321.592,221.844C322.558,222.234 323.42,222.842 324.11,223.618C327.068,226.838 330.4,229.718 333.35,232.948C334.92,234.668 336.25,234.948 338.514,234.228C342.202,233.106 346.158,233.218 349.776,234.546C353.392,235.874 356.472,238.344 358.538,241.578C360.602,244.732 361.616,248.45 361.434,252.208C361.254,255.966 359.886,259.57 357.528,262.512C355.17,265.456 351.938,267.586 348.294,268.604C344.648,269.62 340.772,269.472 337.216,268.18C333.6,266.856 330.504,264.424 328.374,261.234C326.246,258.044 325.196,254.262 325.378,250.44C325.316,249.942 325.36,249.438 325.508,248.96C328.256,244.278 325.056,241.8 322.256,238.618C318.632,234.508 314.686,233.118 309.23,233.278C295.56,233.668 281.868,233.448 268.188,233.358C265.954,233.358 265.168,233.708 264.876,236.258C264.262,243.226 261.186,249.752 256.194,254.684C251.2,259.614 244.612,262.63 237.596,263.2C235.128,263.45 234.866,264.26 234.888,266.31C234.982,276.41 234.982,286.51 234.888,296.61C234.888,298.61 235.27,299.39 237.504,299.36C246.292,299.23 255.082,299.25 263.87,299.36C265.662,299.36 266.386,298.67 267.192,297.18C271.36,289.35 279.422,285.81 287.728,287.97C291.61,288.96 295.05,291.21 297.5,294.362C299.95,297.514 301.272,301.386 301.256,305.368C301.24,309.352 299.886,313.214 297.41,316.346C294.934,319.478 291.478,321.7 287.586,322.66C283.68,323.712 279.526,323.392 275.83,321.752C272.132,320.112 269.12,317.254 267.302,313.66C267.004,312.88 266.45,312.222 265.732,311.792C265.012,311.364 264.168,311.186 263.336,311.29C250.914,311.38 238.48,311.24 226.088,311.4C223.4,311.4 222.826,310.7 222.848,308.12C222.988,294.28 222.848,280.44 222.988,266.6C222.988,263.92 222.264,263.34 219.676,263.38C210.868,263.5 210.868,263.38 210.868,272.29C210.868,281.77 210.868,281.69 201.194,281.47C199.12,281.47 198.717,280.75 198.767,278.9C198.888,274.67 198.767,270.42 198.848,266.19C198.908,264.19 198.586,263.41 196.281,263.38C186.758,263.25 186.758,263.16 186.758,272.7C186.758,283.42 186.848,294.15 186.697,304.87C186.582,305.826 186.764,306.796 187.219,307.646C187.675,308.498 188.381,309.19 189.244,309.63C197.908,314.882 206.518,320.216 215.076,325.63C216.786,326.72 217.984,327.06 220.028,325.85C223.548,323.728 227.696,322.876 231.774,323.438C235.852,323.998 239.61,325.938 242.418,328.93C245.214,331.836 246.966,335.58 247.4,339.578C247.832,343.576 246.922,347.604 244.812,351.036C242.7,354.466 239.506,357.108 235.726,358.548C231.946,359.99 227.794,360.148 223.914,359C219.964,357.858 216.528,355.408 214.174,352.058C211.82,348.706 210.692,344.656 210.978,340.58C211.16,337.84 210.214,336.58 208.11,335.32C197.761,329 187.503,322.52 177.144,316.21C176.33,315.812 175.655,315.178 175.21,314.394C174.764,313.608 174.568,312.708 174.647,311.81C174.748,296.81 174.647,281.89 174.758,266.93C174.758,264.36 174.486,263.28 171.416,263.35C162.658,263.57 162.658,263.35 162.658,271.96C162.658,280.19 162.597,288.42 162.658,296.65C162.658,298.65 162.325,299.4 160.06,299.43C150.557,299.55 150.557,299.64 150.557,290.09C150.557,282.23 150.477,274.37 150.557,266.52C150.557,264.22 150.165,263.35 147.537,263.37C138.477,263.44 138.477,263.37 138.477,272.37C138.477,283.09 138.397,293.82 138.538,304.54C138.585,305.632 138.385,306.72 137.953,307.726C137.521,308.732 136.867,309.628 136.041,310.35C128.944,317.23 122.018,324.28 114.901,331.18C113.34,332.7 112.706,333.88 113.461,336.26C114.659,340.1 114.499,344.232 113.009,347.968C111.518,351.706 108.787,354.826 105.267,356.81C102.677,358.31 99.751,359.144 96.755,359.238C93.759,359.334 90.786,358.686 88.105,357.354C85.424,356.022 83.119,354.048 81.398,351.608C79.678,349.17 78.596,346.344 78.25,343.386C77.904,340.428 78.306,337.43 79.418,334.666C80.53,331.9 82.318,329.454 84.621,327.546C86.923,325.64 89.667,324.332 92.606,323.742C95.544,323.154 98.584,323.3 101.451,324.17C103.394,324.76 104.542,324.66 106.002,323.17C112.122,316.91 118.364,310.77 124.625,304.65C125.219,304.12 125.688,303.468 125.999,302.738C126.311,302.01 126.457,301.222 126.427,300.43C126.347,289.096 126.347,277.762 126.427,266.43C126.427,264.43 126.266,263.54 123.749,263.29C108.83,261.82 97.938,250.93 96.418,236.068C96.197,233.898 95.552,233.478 93.559,233.508C86.277,233.622 78.999,233.622 71.724,233.508C70.932,233.458 70.143,233.64 69.455,234.034C68.767,234.426 68.212,235.014 67.859,235.718C62.302,244.158 56.785,252.6 50.936,260.87C49.456,262.98 50.04,264.19 51.188,266.01C55.215,272.42 55.215,279.01 51.117,285.38C46.92,291.88 40.648,294.56 32.997,293.38C25.648,292.29 20.746,287.95 18.461,280.94C17.597,278.258 17.382,275.41 17.833,272.63C18.283,269.85 19.386,267.216 21.052,264.938C22.719,262.66 24.902,260.804 27.425,259.52C29.948,258.236 32.74,257.562 35.574,257.55C36.587,257.636 37.603,257.428 38.498,256.948C39.392,256.468 40.126,255.738 40.608,254.85C47.383,244.53 54.359,234.338 61.154,224.028C61.618,223.18 62.324,222.484 63.183,222.03C64.043,221.578 65.018,221.386 65.986,221.478C75.046,221.628 84.106,221.418 93.096,221.608C95.824,221.668 96.348,220.848 96.317,218.298C96.197,209.578 96.317,209.568 87.71,209.568L68.926,209.518ZM108.357,179.219C108.357,196.672 108.357,214.128 108.357,231.588C108.357,244.068 115.676,251.408 128.139,251.42L233.206,251.42C245.488,251.42 252.978,244.048 252.978,231.958C252.978,197.052 252.978,162.138 252.978,127.218C252.978,115.098 245.508,107.768 233.206,107.768L128.129,107.768C115.686,107.768 108.367,115.118 108.357,127.598C108.351,144.798 108.351,162.005 108.357,179.219L108.357,179.219ZM102.317,17.907C102.307,16.715 101.939,15.553 101.261,14.57C100.583,13.586 99.625,12.826 98.51,12.385C97.395,11.944 96.173,11.844 95,12.096C93.827,12.348 92.756,12.941 91.924,13.8C91.092,14.659 90.537,15.745 90.329,16.919C90.121,18.093 90.269,19.302 90.756,20.392C91.242,21.482 92.044,22.403 93.06,23.038C94.076,23.673 95.259,23.993 96.458,23.957C98.039,23.913 99.539,23.254 100.637,22.123C101.734,20.992 102.341,19.478 102.327,17.907L102.317,17.907ZM276.956,35.907C278.156,35.935 279.338,35.607 280.35,34.965C281.362,34.323 282.158,33.396 282.636,32.302C283.114,31.209 283.254,29.998 283.038,28.825C282.82,27.652 282.258,26.57 281.418,25.717C280.58,24.864 279.504,24.278 278.328,24.035C277.154,23.792 275.932,23.902 274.82,24.352C273.708,24.802 272.756,25.57 272.086,26.56C271.416,27.549 271.058,28.715 271.058,29.907C271.052,31.48 271.668,32.992 272.772,34.118C273.878,35.244 275.384,35.893 276.966,35.927L276.956,35.907ZM186.687,35.907C186.687,34.717 186.331,33.554 185.663,32.566C184.996,31.577 184.048,30.809 182.94,30.357C181.831,29.905 180.613,29.791 179.439,30.029C178.265,30.267 177.189,30.847 176.347,31.694C175.506,32.541 174.937,33.618 174.713,34.787C174.489,35.956 174.621,37.165 175.09,38.26C175.56,39.354 176.346,40.286 177.35,40.935C178.354,41.585 179.53,41.923 180.728,41.908C182.309,41.889 183.819,41.256 184.935,40.143C186.052,39.031 186.684,37.528 186.697,35.957L186.687,35.907ZM48.077,101.908C48.115,100.717 47.795,99.542 47.158,98.532C46.521,97.522 45.596,96.724 44.5,96.238C43.404,95.753 42.188,95.603 41.006,95.807C39.824,96.011 38.73,96.56 37.864,97.384C36.997,98.208 36.397,99.27 36.14,100.434C35.883,101.598 35.981,102.811 36.421,103.92C36.861,105.028 37.624,105.982 38.612,106.658C39.599,107.334 40.767,107.703 41.967,107.718C43.543,107.74 45.066,107.149 46.209,106.071C47.353,104.993 48.027,103.513 48.087,101.948L48.077,101.908ZM325.286,101.688C325.286,100.494 324.928,99.328 324.256,98.339C323.586,97.349 322.632,96.58 321.52,96.131C320.406,95.682 319.184,95.573 318.008,95.818C316.832,96.062 315.756,96.65 314.918,97.505C314.08,98.36 313.518,99.444 313.304,100.619C313.09,101.793 313.232,103.004 313.714,104.097C314.196,105.19 314.996,106.116 316.01,106.755C317.024,107.395 318.208,107.72 319.408,107.688C320.976,107.649 322.468,107.005 323.568,105.893C324.666,104.78 325.288,103.287 325.298,101.728L325.286,101.688ZM337.368,155.318C337.306,156.509 337.602,157.69 338.22,158.712C338.836,159.734 339.746,160.55 340.832,161.057C341.918,161.563 343.132,161.737 344.318,161.556C345.504,161.374 346.608,160.847 347.49,160.039C348.374,159.232 348.994,158.182 349.274,157.023C349.552,155.864 349.478,154.649 349.06,153.532C348.642,152.415 347.898,151.447 346.922,150.752C345.948,150.057 344.788,149.666 343.588,149.628C342,149.577 340.454,150.149 339.288,151.222C338.122,152.295 337.428,153.781 337.358,155.358L337.368,155.318ZM18.139,197.539C19.338,197.512 20.502,197.131 21.483,196.444C22.464,195.757 23.216,194.795 23.644,193.682C24.073,192.568 24.157,191.353 23.888,190.192C23.618,189.031 23.006,187.975 22.131,187.16C21.255,186.346 20.154,185.809 18.97,185.618C17.786,185.427 16.571,185.59 15.481,186.088C14.39,186.586 13.474,187.395 12.848,188.412C12.222,189.429 11.916,190.608 11.968,191.799C12.036,193.367 12.72,194.847 13.874,195.92C15.027,196.993 16.558,197.574 18.139,197.539ZM349.428,251.28C349.402,250.088 349.02,248.93 348.332,247.956C347.642,246.98 346.676,246.232 345.556,245.804C344.438,245.376 343.214,245.288 342.046,245.554C340.876,245.818 339.812,246.424 338.99,247.292C338.168,248.16 337.624,249.25 337.43,250.426C337.234,251.602 337.394,252.808 337.892,253.892C338.39,254.976 339.202,255.89 340.224,256.514C341.244,257.138 342.43,257.446 343.628,257.4C345.204,257.33 346.69,256.65 347.768,255.506C348.846,254.362 349.43,252.846 349.398,251.28L349.428,251.28ZM36.128,269.37C34.93,269.354 33.754,269.692 32.751,270.342C31.747,270.99 30.96,271.922 30.491,273.018C30.021,274.112 29.89,275.32 30.114,276.49C30.338,277.66 30.906,278.736 31.748,279.582C32.589,280.43 33.665,281.01 34.839,281.248C36.013,281.486 37.232,281.372 38.34,280.92C39.448,280.468 40.396,279.7 41.064,278.71C41.731,277.722 42.087,276.56 42.088,275.37C42.088,273.786 41.458,272.268 40.336,271.144C39.214,270.02 37.691,269.382 36.098,269.37L36.128,269.37ZM283.298,299.31C282.098,299.276 280.912,299.598 279.898,300.236C278.882,300.876 278.082,301.8 277.598,302.894C277.114,303.986 276.97,305.198 277.184,306.372C277.396,307.548 277.958,308.632 278.796,309.488C279.632,310.344 280.708,310.934 281.884,311.178C283.06,311.424 284.284,311.316 285.398,310.868C286.512,310.418 287.464,309.65 288.136,308.66C288.808,307.67 289.166,306.504 289.168,305.31C289.168,303.742 288.55,302.236 287.448,301.116C286.346,299.994 284.846,299.346 283.268,299.31L283.298,299.31ZM96.257,335.22C95.057,335.232 93.888,335.6 92.899,336.274C91.91,336.95 91.146,337.902 90.704,339.012C90.263,340.12 90.163,341.334 90.419,342.498C90.675,343.662 91.274,344.726 92.14,345.55C93.007,346.376 94.101,346.926 95.283,347.13C96.465,347.336 97.682,347.186 98.778,346.7C99.874,346.216 100.8,345.416 101.438,344.406C102.075,343.396 102.395,342.222 102.358,341.03C102.308,339.456 101.637,337.964 100.49,336.878C99.343,335.79 97.812,335.196 96.227,335.22L96.257,335.22ZM234.938,341.39C234.978,340.198 234.66,339.022 234.024,338.012C233.388,337.002 232.464,336.202 231.37,335.714C230.274,335.228 229.058,335.076 227.876,335.278C226.694,335.48 225.6,336.026 224.732,336.848C223.864,337.672 223.262,338.732 223.002,339.896C222.744,341.06 222.84,342.272 223.278,343.382C223.716,344.492 224.478,345.446 225.464,346.124C226.45,346.802 227.618,347.174 228.816,347.19C230.394,347.204 231.912,346.604 233.05,345.522C234.188,344.438 234.854,342.954 234.908,341.39L234.938,341.39Z" fill="#FFFFFF" fill-opacity="0.75"/>
<path d="M162.597,60.098C162.597,65.898 162.597,65.898 156.758,65.898C150.537,65.898 150.537,65.898 150.537,59.738C150.537,53.928 150.537,53.928 156.366,53.928C162.597,53.888 162.597,53.888 162.597,60.098Z" fill="#FFFFFF" fill-opacity="0.75"/>
<path d="M198.748,59.516C198.748,53.886 198.748,53.886 204.385,53.886C210.808,53.886 210.808,53.886 210.808,60.236C210.808,65.856 210.808,65.856 205.171,65.856C198.748,65.856 198.748,65.856 198.748,59.516Z" fill="#FFFFFF" fill-opacity="0.75"/>
<path d="M90.55,89.807C96.308,89.807 96.308,89.807 96.308,95.687C96.308,101.777 96.308,101.777 90.006,101.777C84.248,101.777 84.248,101.777 84.248,95.897C84.248,89.807 84.248,89.807 90.55,89.807Z" fill="#FFFFFF" fill-opacity="0.75"/>
<path d="M277.087,95.987C277.087,101.777 277.087,101.777 271.248,101.777C265.037,101.777 265.037,101.777 265.037,95.587C265.037,89.807 265.037,89.807 270.885,89.807C277.087,89.807 277.087,89.807 277.087,95.987Z" fill="#FFFFFF" fill-opacity="0.75"/>
<path d="M307.227,155.678C307.227,161.678 307.227,161.678 301.187,161.678C295.146,161.678 295.146,161.678 295.146,155.678C295.146,149.678 295.146,149.678 301.187,149.678C307.227,149.678 307.227,149.668 307.227,155.678Z" fill="#FFFFFF" fill-opacity="0.75"/>
<path d="M59.927,185.58C54.118,185.58 54.118,185.58 54.118,179.75C54.118,173.61 54.118,173.609 60.37,173.609C66.168,173.609 66.168,173.609 66.168,179.439C66.168,185.58 66.168,185.58 59.927,185.58Z" fill="#FFFFFF" fill-opacity="0.75"/>
<path d="M313.57,209.52C307.228,209.52 307.228,209.519 307.228,203.109C307.228,197.549 307.228,197.549 312.935,197.549C319.278,197.549 319.278,197.549 319.278,203.969C319.278,209.519 319.278,209.52 313.57,209.52Z" fill="#FFFFFF" fill-opacity="0.75"/>
<path d="M84.248,263.03C84.248,257.41 84.248,257.41 89.886,257.41C96.308,257.41 96.308,257.41 96.308,263.76C96.308,269.38 96.308,269.38 90.671,269.38C84.248,269.38 84.248,269.38 84.248,263.03Z" fill="#FFFFFF" fill-opacity="0.75"/>
<path d="M270.815,269.38C265.087,269.38 265.087,269.38 265.087,263.47C265.087,257.56 265.087,257.41 271.037,257.41C276.986,257.41 277.137,257.41 277.137,263.32C277.137,269.23 277.087,269.38 270.815,269.38Z" fill="#FFFFFF" fill-opacity="0.75"/>
<path d="M205.1,305.289C198.748,305.289 198.748,305.289 198.748,298.879C198.748,293.319 198.748,293.319 204.456,293.319C210.808,293.319 210.808,293.319 210.808,299.739C210.808,305.289 210.808,305.289 205.1,305.289Z" fill="#FFFFFF" fill-opacity="0.75"/>
<path d="M156.839,323.25C150.537,323.25 150.537,323.25 150.537,316.79C150.537,311.28 150.537,311.28 155.913,311.28C162.597,311.28 162.597,311.28 162.597,317.74C162.597,323.25 162.597,323.25 156.839,323.25Z" fill="#FFFFFF" fill-opacity="0.75"/>
<path d="M180.758,239.449C172.845,239.449 164.943,239.499 157.04,239.449C146.289,239.359 138.547,231.709 138.507,221.049C138.437,205.469 138.507,189.889 138.507,174.309C138.507,167.109 141.527,161.489 147.96,158.079C150.114,156.929 150.728,155.749 150.587,153.529C150.114,145.869 151.594,138.679 156.174,132.299C159.846,127.201 165.036,123.377 171.012,121.366C176.988,119.355 183.449,119.258 189.483,121.09C195.518,122.922 200.821,126.589 204.645,131.575C208.469,136.561 210.621,142.613 210.797,148.879C210.822,149.252 210.822,149.626 210.797,149.999C210.344,154.119 210.978,157.129 215.428,159.489C220.521,162.199 222.776,167.569 222.807,173.399C222.907,189.599 222.958,205.799 222.807,221.999C222.716,226.601 220.835,230.989 217.558,234.243C214.281,237.496 209.862,239.362 205.23,239.449L180.768,239.449L180.758,239.449ZM210.807,197.909C210.807,190.059 210.807,182.209 210.807,174.369C210.807,169.959 208.502,167.659 204.092,167.639C188.543,167.592 172.993,167.592 157.443,167.639C152.812,167.639 150.587,169.909 150.577,174.579C150.537,189.912 150.537,205.246 150.577,220.579C150.577,225.219 152.832,227.489 157.473,227.499C172.909,227.553 188.345,227.553 203.78,227.499C208.643,227.499 210.827,225.249 210.827,220.359C210.837,212.849 210.807,205.379 210.807,197.909L210.807,197.909ZM180.345,155.649C185.61,155.649 190.885,155.539 196.16,155.649C198.364,155.719 199.019,154.979 198.777,152.929C198.626,151.699 198.777,150.439 198.777,149.189C198.653,144.465 196.665,139.98 193.241,136.7C189.817,133.42 185.232,131.61 180.476,131.659C169.08,131.779 160.674,142.439 162.577,154.159C162.869,155.989 163.926,155.579 164.943,155.589C170.046,155.669 175.181,155.649 180.345,155.649L180.345,155.649Z" fill="#FFFFFF" fill-opacity="0.75"/>
<path d="M174.648,214.969C174.557,213.851 174.557,212.727 174.648,211.609C175.03,209.259 173.943,208.219 171.899,207.159C168.379,205.316 165.587,202.346 163.978,198.731C162.368,195.115 162.034,191.066 163.03,187.239C164.02,183.363 166.28,179.925 169.455,177.467C172.63,175.008 176.538,173.67 180.563,173.663C184.589,173.657 188.502,174.981 191.685,177.428C194.868,179.876 197.141,183.306 198.143,187.179C199.161,191 198.846,195.051 197.25,198.671C195.654,202.292 192.871,205.269 189.355,207.119C187.342,208.199 186.204,209.269 186.657,211.579C186.692,211.951 186.692,212.326 186.657,212.699C186.657,221.549 186.657,221.439 177.829,221.559C175.211,221.559 174.154,220.989 174.577,218.329C174.686,217.212 174.71,216.089 174.648,214.969L174.648,214.969ZM186.728,191.689C186.758,190.496 186.429,189.322 185.784,188.315C185.139,187.309 184.206,186.517 183.106,186.04C182.005,185.562 180.786,185.422 179.605,185.636C178.423,185.851 177.333,186.41 176.473,187.243C175.613,188.076 175.023,189.144 174.777,190.312C174.531,191.48 174.642,192.694 175.094,193.799C175.547,194.904 176.32,195.85 177.317,196.516C178.313,197.182 179.487,197.538 180.688,197.539C182.258,197.531 183.765,196.917 184.887,195.824C186.009,194.732 186.658,193.249 186.697,191.689L186.728,191.689Z" fill="#FFFFFF" fill-opacity="0.75"/>
</svg>
