<svg width="232" height="284" viewBox="0 0 232 284" fill="none" xmlns="http://www.w3.org/2000/svg" xmlns:xlink="http://www.w3.org/1999/xlink">
<path d="M28.641,189.7C25.57,186.56 22.86,183.828 20.172,181.021C13.553,174.074 11.247,165.789 14.08,156.421C16.913,147.053 23.308,141.893 32.406,140.024C32.457,139.063 31.604,138.692 31.084,138.147C27.471,134.311 23.814,130.58 20.201,126.721C7.793,113.6 11.775,93.639 28.15,86.851C28.402,86.723 28.643,86.573 28.873,86.405C28.685,85.376 27.832,84.93 27.239,84.301C19.948,76.598 12.411,69.168 5.351,61.192C2.683,58.226 0.796,54.586 -0.128,50.628C-1.052,46.67 -0.98,42.529 0.079,38.609C1.139,34.689 3.151,31.123 5.919,28.259C8.687,25.395 12.116,23.331 15.872,22.269C24.421,19.749 31.843,22.269 38.274,28.481C39.084,27.997 38.643,27.157 38.657,26.506C38.708,23.109 38.889,19.696 38.657,16.314C37.891,5.818 45.291,-1.022 54.888,-0.901C82.551,-0.553 110.221,-0.78 137.884,-0.78C152.395,-0.78 166.906,-0.78 181.417,-0.78C190.732,-0.78 196.592,5.349 196.592,15.11C196.592,42.472 196.592,69.836 196.592,97.203L196.592,100.79C201.42,96.107 207.334,92.828 213.748,91.278C217.598,90.283 221.554,89.792 225.52,89.818C228.894,89.863 231.034,92.088 231.192,95.644C231.192,96.401 231.192,97.158 231.192,97.914L231.192,274.273C231.238,275.309 231.214,276.345 231.12,277.377C230.95,278.747 230.306,280.007 229.308,280.913C228.31,281.819 227.028,282.309 225.708,282.289C224.388,282.271 223.12,281.745 222.146,280.811C221.172,279.877 220.56,278.601 220.426,277.225C220.354,276.191 220.338,275.151 220.374,274.115C220.374,217.617 220.396,161.095 220.44,104.55C220.44,101.705 219.716,101.403 217.296,101.993C204.288,105.178 196.932,114.493 196.693,129.233C196.441,144.511 196.534,159.803 196.636,175.088C196.729,176.582 196.445,178.074 195.81,179.415C195.175,180.756 194.214,181.897 193.022,182.723C186.822,187.422 180.737,192.326 174.617,197.1C166.125,203.683 161.948,212.469 161.985,223.539C162.035,240.715 161.985,257.885 161.985,275.061C161.985,280.449 160.171,282.317 154.953,282.317L53.84,282.317C44.525,282.317 38.73,276.189 38.665,266.427C38.665,262.561 39.618,258.255 38.303,254.949C36.988,251.641 33.404,249.327 30.795,246.625C26.083,241.683 21.4,236.667 16.631,231.831C9.751,224.907 6.861,216.697 9.535,206.975C12.208,197.252 18.813,191.766 28.641,189.7ZM60.987,102.061C68.17,76.076 88.571,58.559 112.917,57.053C121.253,56.508 129.602,57.878 137.379,61.067C145.156,64.255 152.174,69.186 157.94,75.513C163.706,81.84 168.082,89.41 170.76,97.694C173.439,105.977 174.355,114.774 173.446,123.467C169.76,159.94 135.536,184.479 101.737,174.922C90.885,171.901 81.121,165.604 73.662,156.814C73.092,156.149 72.701,154.726 71.364,155.558C68.864,157.125 66.067,157.828 62.859,158.706C67.592,163.602 72.123,168.059 76.423,172.75C78.595,175.087 80.283,177.868 81.382,180.919C82.481,183.97 82.968,187.225 82.811,190.482C82.654,193.739 81.858,196.926 80.472,199.845C79.085,202.765 77.139,205.355 74.754,207.451C71.429,210.395 67.527,212.051 62.512,213.059C66.291,216.841 69.782,219.989 72.839,223.553C73.402,224.299 74.129,224.891 74.959,225.279C75.788,225.667 76.695,225.837 77.601,225.779C101.02,225.713 124.445,225.713 147.878,225.779C150.466,225.779 151.253,225.325 151.268,222.365C151.333,208.745 156.586,197.554 166.848,189.072C172.514,184.418 178.316,179.992 184.119,175.452C184.677,175.089 185.13,174.574 185.429,173.962C185.728,173.35 185.863,172.664 185.818,171.978C185.774,129.528 185.774,87.079 185.818,44.629C185.818,42.707 185.471,42.116 183.512,42.124C139.633,42.185 95.754,42.185 51.875,42.124C50.429,42.124 49.432,41.927 49.446,44.197C49.569,59.006 49.512,73.814 49.512,88.622C49.512,89.455 49.396,90.264 50.111,90.975C53.681,94.623 57.193,98.217 60.987,102.061ZM116.689,68.275C106.21,68.276 96.034,71.96 87.791,78.736C79.548,85.512 73.716,94.988 71.227,105.648C70.223,109.923 70.425,113.298 74.118,115.946C75.115,116.761 76.011,117.704 76.784,118.753C83.136,126.471 84.546,135.113 80.809,144.481C80.087,146.319 80.159,147.432 81.416,148.862C93.08,162.172 107.475,167.779 124.465,164.911C148.233,160.878 165.135,137.746 162.982,112.851C161.983,100.707 156.676,89.395 148.108,81.144C139.539,72.893 128.33,68.302 116.689,68.275ZM117.585,30.91C139.467,30.91 161.349,30.91 183.238,30.963C185.406,30.963 185.912,30.32 185.832,28.171C185.673,23.941 185.789,19.688 185.781,15.443C185.781,11.584 184.813,10.555 181.207,10.548L54.223,10.548C50.422,10.548 49.526,11.524 49.519,15.587C49.512,19.651 49.656,23.911 49.461,28.035C49.353,30.305 49.895,30.986 52.2,30.97C73.995,30.865 95.79,30.91 117.585,30.91L117.585,30.91ZM49.519,262.061C49.519,263.643 49.519,264.959 49.519,266.269C49.519,269.945 50.516,271.013 53.963,271.013C85.649,271.013 117.339,271.031 149.035,271.065C150.849,271.065 151.203,270.521 151.203,268.727C151.116,259.019 151.087,249.303 151.203,239.595C151.203,237.423 150.639,237.015 148.673,237.023C126.079,237.099 103.481,237.099 80.882,237.023C78.887,237.023 78.23,237.447 78.396,239.625C78.448,241.321 78.243,243.015 77.789,244.643C74.689,257.785 63.191,264.913 49.519,262.061ZM31.337,201.035C26.336,201.239 22.6,203.569 20.562,208.291C18.524,213.013 18.98,217.893 22.499,221.699C30.824,230.711 39.351,239.527 47.9,248.305C49.068,249.571 50.51,250.523 52.103,251.083C53.697,251.643 55.395,251.793 57.056,251.521C59.31,251.247 61.442,250.307 63.205,248.811C64.969,247.317 66.289,245.327 67.014,243.075C68.748,238.225 67.52,233.897 64.196,230.349C56.001,221.593 47.683,212.945 39.38,204.327C37.161,201.981 34.343,201.095 31.337,200.997L31.337,201.035ZM35.572,96.862C30.6,97.059 26.806,99.458 24.797,104.323C22.788,109.189 23.511,114.047 27.131,117.944C35.186,126.575 43.333,135.113 51.571,143.557C56.731,148.854 63.61,148.763 68.452,143.709C73.294,138.654 73.41,131.435 68.38,126.033C60.33,117.384 52.106,108.924 43.947,100.396C41.714,98.096 38.704,96.812 35.572,96.825L35.572,96.862ZM36.012,151.23C33.704,151.144 31.423,151.769 29.451,153.028C27.479,154.287 25.903,156.125 24.92,158.313C23.837,160.618 23.479,163.223 23.896,165.755C24.312,168.287 25.483,170.616 27.239,172.41C35.261,180.95 43.347,189.42 51.499,197.819C56.666,203.115 63.495,203.115 68.387,198.107C73.279,193.097 73.402,185.705 68.264,180.219C60.257,171.668 52.113,163.261 44.019,154.794C41.891,152.561 39.024,151.272 36.012,151.192L36.012,151.23ZM38.701,80.284C38.701,71.884 38.701,64.098 38.701,56.304C38.701,52.521 39.633,48.314 38.296,45.151C36.851,41.768 33.324,39.339 30.607,36.593C25.483,31.417 18.365,31.409 13.473,36.487C8.805,41.329 8.877,48.972 13.798,54.186C21.892,62.728 30.072,71.218 38.701,80.246L38.701,80.284Z" fill="#FFFFFF" fill-opacity="0.75"/>
<path d="M117.816,259.655C113.48,259.655 109.181,259.655 104.866,259.655C101.21,259.655 98.76,257.385 98.746,254.025C98.731,250.665 101.195,248.365 104.838,248.35C113.558,248.32 122.278,248.32 130.997,248.35C134.683,248.35 137.089,250.62 137.097,253.995C137.104,257.37 134.712,259.632 131.034,259.655C126.647,259.685 122.239,259.655 117.816,259.655Z" fill="#FFFFFF" fill-opacity="0.75"/>
<path d="M129.791,100.282L129.791,106.056L137.119,106.056L137.119,113.04L129.379,113.04C128.603,117.853 126.705,121.346 123.685,123.52C120.664,125.694 116.109,126.784 110.019,126.789L110.019,130.807C109.925,132.794 110.431,134.761 111.465,136.429C112.411,137.799 114.016,138.48 116.292,138.48C118.568,138.48 120.035,137.837 121.004,136.543C121.972,135.249 122.449,133.365 122.449,130.883L131.843,130.883C131.742,135.998 130.364,139.91 127.71,142.619C125.055,145.328 121.261,146.682 116.328,146.682C111.197,146.682 107.281,145.239 104.578,142.354C101.875,139.469 100.507,135.266 100.473,129.748L100.473,119.646C105.647,119.646 109.465,119.507 111.927,119.23C114.399,118.95 116.263,118.36 117.441,117.444C118.753,116.356 119.61,114.777 119.833,113.04L98.153,113.04L98.153,106.056L120.194,106.056L120.194,100.282L98.153,100.282L98.153,92.844L137.097,92.844L137.097,100.282L129.791,100.282Z" fill="#FFFFFF" fill-opacity="0.75"/>
</svg>
