<svg width="5462" height="2188" viewBox="0 0 5462 2188" fill="none" xmlns="http://www.w3.org/2000/svg" xmlns:xlink="http://www.w3.org/1999/xlink">
<g opacity="0.42">
<g opacity="0.07" style="mix-blend-mode:color-dodge">
<path d="M2304.14,468.162L1054.398,468.162L1054.398,1717.904L2304.14,1717.904L2304.14,468.162Z" transform="rotate(-89.619 1679.269 1093.033)" fill="url(#pf_0_1_12)"/>
</g>
<g opacity="0.07" style="mix-blend-mode:color-dodge">
<path d="M2435.911,468.156L1186.169,468.156L1186.169,1717.898L2435.911,1717.898L2435.911,468.156Z" transform="rotate(-89.619 1811.04 1093.028)" fill="url(#pf_0_1_14)"/>
</g>
<g opacity="0.09" style="mix-blend-mode:color-dodge">
<path d="M3014.86,468.16L1765.118,468.16L1765.118,1717.902L3014.86,1717.902L3014.86,468.16Z" transform="rotate(-89.619 2389.99 1093.032)" fill="url(#pf_0_1_16)"/>
</g>
<g style="mix-blend-mode:color-dodge">
<path d="M1462.649,754.635L785.881,754.635L785.881,1431.403L1462.649,1431.403L1462.649,754.635Z" transform="rotate(-89.619 1124.265 1093.019)" fill="url(#pf_0_1_18)"/>
</g>
<g style="mix-blend-mode:screen">
<path d="M559.181,527.924L559.181,504.924L536.181,504.924L536.181,527.924L559.181,527.924ZM1689.373,527.924L1712.373,527.924L1712.373,504.924L1689.373,504.924L1689.373,527.924ZM1689.373,1658.116L1689.373,1681.116L1712.373,1681.116L1712.373,1658.116L1689.373,1658.116ZM559.181,1658.116L536.181,1658.116L536.181,1681.116L559.181,1681.116L559.181,1658.116ZM559.181,550.924L1689.373,550.924L1689.373,504.924L559.181,504.924L559.181,550.924ZM1666.373,527.924L1666.373,1658.116L1712.373,1658.116L1712.373,527.924L1666.373,527.924ZM1689.373,1635.116L559.181,1635.116L559.181,1681.116L1689.373,1681.116L1689.373,1635.116ZM582.181,1658.116L582.181,527.924L536.181,527.924L536.181,1658.116L582.181,1658.116Z" transform="rotate(89.619 1124.277 1093.02)" fill="url(#ps_0_1_19)"/>
</g>
<g style="mix-blend-mode:screen">
<path d="M578.536,547.298L578.536,542.298L573.536,542.298L573.536,547.298L578.536,547.298ZM1670.018,547.298L1675.018,547.298L1675.018,542.298L1670.018,542.298L1670.018,547.298ZM1670.018,1638.78L1670.018,1643.78L1675.018,1643.78L1675.018,1638.78L1670.018,1638.78ZM578.536,1638.78L573.536,1638.78L573.536,1643.78L578.536,1643.78L578.536,1638.78ZM578.536,552.298L1670.018,552.298L1670.018,542.298L578.536,542.298L578.536,552.298ZM1665.018,547.298L1665.018,1638.78L1675.018,1638.78L1675.018,547.298L1665.018,547.298ZM1670.018,1633.78L578.536,1633.78L578.536,1643.78L1670.018,1643.78L1670.018,1633.78ZM583.536,1638.78L583.536,547.298L573.536,547.298L573.536,1638.78L583.536,1638.78Z" transform="rotate(89.619 1124.277 1093.039)" fill="url(#ps_0_1_20)"/>
</g>
<g style="mix-blend-mode:screen">
<path d="M375.066,343.821L375.066,341.821L373.066,341.821L373.066,343.821L375.066,343.821ZM1873.462,343.821L1875.462,343.821L1875.462,341.821L1873.462,341.821L1873.462,343.821ZM1873.462,1842.217L1873.462,1844.217L1875.462,1844.217L1875.462,1842.217L1873.462,1842.217ZM375.066,1842.217L373.066,1842.217L373.066,1844.217L375.066,1844.217L375.066,1842.217ZM375.066,345.821L1873.462,345.821L1873.462,341.821L375.066,341.821L375.066,345.821ZM1871.462,343.821L1871.462,1842.217L1875.462,1842.217L1875.462,343.821L1871.462,343.821ZM1873.462,1840.217L375.066,1840.217L375.066,1844.217L1873.462,1844.217L1873.462,1840.217ZM377.066,1842.217L377.066,343.821L373.066,343.821L373.066,1842.217L377.066,1842.217Z" transform="rotate(-89.619 1124.265 1093.019)" fill="url(#ps_0_1_22)"/>
</g>
<g style="mix-blend-mode:screen">
<path d="M823.449,792.205L823.449,784.525L815.769,784.525L815.769,792.205L823.449,792.205ZM1425.079,792.205L1432.759,792.205L1432.759,784.525L1425.079,784.525L1425.079,792.205ZM1425.079,1393.835L1425.079,1401.515L1432.759,1401.515L1432.759,1393.835L1425.079,1393.835ZM823.449,1393.835L815.769,1393.835L815.769,1401.515L823.449,1401.515L823.449,1393.835ZM823.449,799.885L1425.079,799.885L1425.079,784.525L823.449,784.525L823.449,799.885ZM1417.399,792.205L1417.399,1393.835L1432.759,1393.835L1432.759,792.205L1417.399,792.205ZM1425.079,1386.155L823.449,1386.155L823.449,1401.515L1425.079,1401.515L1425.079,1386.155ZM831.129,1393.835L831.129,792.205L815.769,792.205L815.769,1393.835L831.129,1393.835Z" transform="rotate(-89.619 1124.264 1093.02)" fill="url(#ps_0_1_24)"/>
</g>
<g style="mix-blend-mode:screen">
<path d="M348.799,317.555L348.799,297.765L329.009,297.765L329.009,317.555L348.799,317.555ZM1899.729,317.555L1919.519,317.555L1919.519,297.765L1899.729,297.765L1899.729,317.555ZM1899.729,1868.485L1899.729,1888.275L1919.519,1888.275L1919.519,1868.485L1899.729,1868.485ZM348.799,1868.485L329.009,1868.485L329.009,1888.275L348.799,1888.275L348.799,1868.485ZM348.799,337.345L1899.729,337.345L1899.729,297.765L348.799,297.765L348.799,337.345ZM1879.939,317.555L1879.939,1868.485L1919.519,1868.485L1919.519,317.555L1879.939,317.555ZM1899.729,1848.695L348.799,1848.695L348.799,1888.275L1899.729,1888.275L1899.729,1848.695ZM368.589,1868.485L368.589,317.555L329.009,317.555L329.009,1868.485L368.589,1868.485Z" transform="rotate(-89.619 1124.263 1093.02)" fill="url(#ps_0_1_26)"/>
</g>
<g style="mix-blend-mode:screen">
<path d="M457.624,426.38L457.624,424.34L455.584,424.34L455.584,426.38L457.624,426.38ZM1790.942,426.38L1792.982,426.38L1792.982,424.34L1790.942,424.34L1790.942,426.38ZM1790.942,1759.698L1790.942,1761.738L1792.982,1761.738L1792.982,1759.698L1790.942,1759.698ZM457.624,1759.698L455.584,1759.698L455.584,1761.738L457.624,1761.738L457.624,1759.698ZM457.624,428.42L1790.942,428.42L1790.942,424.34L457.624,424.34L457.624,428.42ZM1788.902,426.38L1788.902,1759.698L1792.982,1759.698L1792.982,426.38L1788.902,426.38ZM1790.942,1757.658L457.624,1757.658L457.624,1761.738L1790.942,1761.738L1790.942,1757.658ZM459.664,1759.698L459.664,426.38L455.584,426.38L455.584,1759.698L459.664,1759.698Z" transform="rotate(-89.619 1124.283 1093.039)" fill="url(#ps_0_1_28)"/>
</g>
<g style="mix-blend-mode:color-dodge">
<path d="M609.584,578.318L609.584,566.758L598.024,566.758L598.024,578.318L609.584,578.318ZM1638.982,578.318L1650.542,578.318L1650.542,566.758L1638.982,566.758L1638.982,578.318ZM1638.982,1607.716L1638.982,1619.276L1650.542,1619.276L1650.542,1607.716L1638.982,1607.716ZM609.584,1607.716L598.024,1607.716L598.024,1619.276L609.584,1619.276L609.584,1607.716ZM609.584,589.878L1638.982,589.878L1638.982,566.758L609.584,566.758L609.584,589.878ZM1627.422,578.318L1627.422,1607.716L1650.542,1607.716L1650.542,578.318L1627.422,578.318ZM1638.982,1596.156L609.584,1596.156L609.584,1619.276L1638.982,1619.276L1638.982,1596.156ZM621.144,1607.716L621.144,578.318L598.024,578.318L598.024,1607.716L621.144,1607.716Z" transform="rotate(-89.619 1124.284 1093.018)" fill="url(#ps_0_1_30)"/>
</g>
<g style="mix-blend-mode:color-dodge">
<path d="M1124.271,227.806L1995.239,1093.028L1124.271,1958.276L253.25,1093.028L1124.271,227.806ZM1124.271,190.416L215.609,1093.028L1124.271,1995.666L2032.933,1093.028L1124.271,190.416Z" fill="url(#pf_0_1_32)"/>
</g>
<g style="mix-blend-mode:screen">
<path d="M752.756,721.499L752.756,706.379L737.636,706.379L737.636,721.499L752.756,721.499ZM1495.8,721.499L1510.92,721.499L1510.92,706.379L1495.8,706.379L1495.8,721.499ZM1495.8,1464.543L1495.8,1479.663L1510.92,1479.663L1510.92,1464.543L1495.8,1464.543ZM752.756,1464.543L737.636,1464.543L737.636,1479.663L752.756,1479.663L752.756,1464.543ZM752.756,736.619L1495.8,736.619L1495.8,706.379L752.756,706.379L752.756,736.619ZM1480.68,721.499L1480.68,1464.543L1510.92,1464.543L1510.92,721.499L1480.68,721.499ZM1495.8,1449.423L752.756,1449.423L752.756,1479.663L1495.8,1479.663L1495.8,1449.423ZM767.876,1464.543L767.876,721.499L737.636,721.499L737.636,1464.543L767.876,1464.543Z" transform="rotate(89.619 1124.277 1093.021)" fill="url(#ps_0_1_33)"/>
</g>
<g style="mix-blend-mode:screen">
<path d="M765.477,734.239L765.477,730.949L762.187,730.949L762.187,734.239L765.477,734.239ZM1483.077,734.239L1486.367,734.239L1486.367,730.949L1483.077,730.949L1483.077,734.239ZM1483.077,1451.839L1483.077,1455.129L1486.367,1455.129L1486.367,1451.839L1483.077,1451.839ZM765.477,1451.839L762.187,1451.839L762.187,1455.129L765.477,1455.129L765.477,1451.839ZM765.477,737.529L1483.077,737.529L1483.077,730.949L765.477,730.949L765.477,737.529ZM1479.787,734.239L1479.787,1451.839L1486.367,1451.839L1486.367,734.239L1479.787,734.239ZM1483.077,1448.549L765.477,1448.549L765.477,1455.129L1483.077,1455.129L1483.077,1448.549ZM768.767,1451.839L768.767,734.239L762.187,734.239L762.187,1451.839L768.767,1451.839Z" transform="rotate(89.619 1124.277 1093.039)" fill="url(#ps_0_1_34)"/>
</g>
<g style="mix-blend-mode:screen">
<path d="M685.975,654.75L685.975,653.41L684.635,653.41L684.635,654.75L685.975,654.75ZM1562.551,654.75L1563.891,654.75L1563.891,653.41L1562.551,653.41L1562.551,654.75ZM1562.551,1531.326L1562.551,1532.666L1563.891,1532.666L1563.891,1531.326L1562.551,1531.326ZM685.975,1531.326L684.635,1531.326L684.635,1532.666L685.975,1532.666L685.975,1531.326ZM685.975,656.09L1562.551,656.09L1562.551,653.41L685.975,653.41L685.975,656.09ZM1561.211,654.75L1561.211,1531.326L1563.891,1531.326L1563.891,654.75L1561.211,654.75ZM1562.551,1529.986L685.975,1529.986L685.975,1532.666L1562.551,1532.666L1562.551,1529.986ZM687.315,1531.326L687.315,654.75L684.635,654.75L684.635,1531.326L687.315,1531.326Z" transform="rotate(-89.619 1124.264 1093.039)" fill="url(#ps_0_1_36)"/>
</g>
<g style="mix-blend-mode:color-dodge">
<path d="M785.881,754.635L785.881,753.635L784.881,753.635L784.881,754.635L785.881,754.635ZM1462.649,754.635L1463.649,754.635L1463.649,753.635L1462.649,753.635L1462.649,754.635ZM1462.649,1431.403L1462.649,1432.403L1463.649,1432.403L1463.649,1431.403L1462.649,1431.403ZM785.881,1431.403L784.881,1431.403L784.881,1432.403L785.881,1432.403L785.881,1431.403ZM785.881,755.635L1462.649,755.635L1462.649,753.635L785.881,753.635L785.881,755.635ZM1461.649,754.635L1461.649,1431.403L1463.649,1431.403L1463.649,754.635L1461.649,754.635ZM1462.649,1430.403L785.881,1430.403L785.881,1432.403L1462.649,1432.403L1462.649,1430.403ZM786.881,1431.403L786.881,754.635L784.881,754.635L784.881,1431.403L786.881,1431.403Z" transform="rotate(-89.619 1124.265 1093.019)" fill="url(#ps_0_1_38)"/>
</g>
<g style="mix-blend-mode:color-dodge">
<path d="M811.616,780.372L811.616,774.832L806.076,774.832L806.076,780.372L811.616,780.372ZM1436.912,780.372L1442.452,780.372L1442.452,774.832L1436.912,774.832L1436.912,780.372ZM1436.912,1405.668L1436.912,1411.208L1442.452,1411.208L1442.452,1405.668L1436.912,1405.668ZM811.616,1405.668L806.076,1405.668L806.076,1411.208L811.616,1411.208L811.616,1405.668ZM811.616,785.912L1436.912,785.912L1436.912,774.832L811.616,774.832L811.616,785.912ZM1431.372,780.372L1431.372,1405.668L1442.452,1405.668L1442.452,780.372L1431.372,780.372ZM1436.912,1400.128L811.616,1400.128L811.616,1411.208L1436.912,1411.208L1436.912,1400.128ZM817.156,1405.668L817.156,780.372L806.076,780.372L806.076,1405.668L817.156,1405.668Z" transform="rotate(-89.619 1124.264 1093.02)" fill="url(#ps_0_1_40)"/>
</g>
<g style="mix-blend-mode:color-dodge">
<path d="M401.33,370.087L401.33,357.267L388.51,357.267L388.51,370.087L401.33,370.087ZM1847.194,370.087L1860.014,370.087L1860.014,357.267L1847.194,357.267L1847.194,370.087ZM1847.194,1815.951L1847.194,1828.771L1860.014,1828.771L1860.014,1815.951L1847.194,1815.951ZM401.33,1815.951L388.51,1815.951L388.51,1828.771L401.33,1828.771L401.33,1815.951ZM401.33,382.907L1847.194,382.907L1847.194,357.267L401.33,357.267L401.33,382.907ZM1834.374,370.087L1834.374,1815.951L1860.014,1815.951L1860.014,370.087L1834.374,370.087ZM1847.194,1803.131L401.33,1803.131L401.33,1828.771L1847.194,1828.771L1847.194,1803.131ZM414.15,1815.951L414.15,370.087L388.51,370.087L388.51,1815.951L414.15,1815.951Z" transform="rotate(-89.619 1124.262 1093.019)" fill="url(#ps_0_1_42)"/>
</g>
<g style="mix-blend-mode:color-dodge">
<path d="M1124.269,524.18L1696.911,1093.026L1124.269,1661.978L551.628,1093.026L1124.269,524.18ZM1124.269,499.614L526.871,1093.026L1124.269,1686.464L1721.667,1093.026L1124.269,499.614Z" fill="url(#pf_0_1_44)"/>
</g>
<g opacity="0.59" style="mix-blend-mode:screen">
<path d="M1504.107,1342.704C1509.829,1348.812 1455.897,1407.913 1383.652,1474.708C1311.406,1541.504 1248.158,1590.715 1242.568,1584.579C1236.978,1578.445 1290.776,1519.371 1363.022,1452.575C1435.267,1385.78 1498.357,1336.728 1504.107,1342.704Z" fill="url(#pf_0_1_45)" style="mix-blend-mode:screen"/>
</g>
<g opacity="0.59" style="mix-blend-mode:screen">
<path d="M1504.107,1342.704C1509.829,1348.812 1455.897,1407.913 1383.652,1474.708C1311.406,1541.504 1248.158,1590.715 1242.568,1584.579C1236.978,1578.445 1290.776,1519.371 1363.022,1452.575C1435.267,1385.78 1498.357,1336.728 1504.107,1342.704Z" fill="url(#pf_0_1_46)" style="mix-blend-mode:screen"/>
</g>
<g style="mix-blend-mode:color-dodge">
<path d="M1761.504,912.953C1777.159,912.953 1789.851,806.505 1789.851,675.193C1789.851,543.88 1777.159,437.431 1761.504,437.431C1745.848,437.431 1733.157,543.88 1733.157,675.193C1733.157,806.505 1745.848,912.953 1761.504,912.953Z" transform="rotate(-82.782 1761.504 675.192)" fill="url(#pf_0_1_47)" style="mix-blend-mode:color-dodge"/>
</g>
<g style="mix-blend-mode:color-dodge">
<path d="M1972.054,1316.207C1982.702,1327.657 1913.012,1409.05 1816.329,1498.031C1719.646,1587.012 1632.653,1649.868 1622.005,1638.418C1611.357,1626.968 1681.127,1545.628 1777.677,1456.594C1874.226,1367.56 1961.406,1304.758 1972.054,1316.207Z" fill="url(#pf_0_1_48)" style="mix-blend-mode:color-dodge"/>
</g>
<g style="mix-blend-mode:color-dodge">
<path d="M1447.115,1223.762C1450.309,1226.935 1395.047,1287.014 1323.653,1357.908C1252.259,1428.803 1191.806,1483.725 1188.665,1480.551C1185.523,1477.379 1240.706,1417.3 1312.1,1346.379C1383.494,1275.458 1443.893,1220.562 1447.115,1223.762Z" fill="url(#pf_0_1_49)" style="mix-blend-mode:color-dodge"/>
</g>
<g opacity="0.39" style="mix-blend-mode:color-dodge">
<path d="M1766.85,1515.789C1984.724,1515.789 2161.348,1508.816 2161.348,1500.215C2161.348,1491.614 1984.724,1484.641 1766.85,1484.641C1548.975,1484.641 1372.352,1491.614 1372.352,1500.215C1372.352,1508.816 1548.975,1515.789 1766.85,1515.789Z" transform="rotate(-89.619 1766.85 1500.215)" fill="url(#pf_0_1_50)" style="mix-blend-mode:color-dodge"/>
</g>
<g opacity="0.15" style="mix-blend-mode:color-dodge">
<path d="M2304.575,1499.927C2522.449,1499.927 2699.073,1492.955 2699.073,1484.353C2699.073,1475.752 2522.449,1468.779 2304.575,1468.779C2086.7,1468.779 1910.077,1475.752 1910.077,1484.353C1910.077,1492.955 2086.7,1499.927 2304.575,1499.927Z" transform="rotate(-89.619 2304.575 1484.353)" fill="url(#pf_0_1_51)" style="mix-blend-mode:color-dodge"/>
</g>
<g style="mix-blend-mode:screen">
<path d="M322.493,323.193L322.493,321.133L320.433,321.133L320.433,323.193L322.493,323.193ZM1862.173,323.193L1864.233,323.193L1864.233,321.133L1862.173,321.133L1862.173,323.193ZM1862.173,1862.873L1862.173,1864.933L1864.233,1864.933L1864.233,1862.873L1862.173,1862.873ZM322.493,1862.873L320.433,1862.873L320.433,1864.933L322.493,1864.933L322.493,1862.873ZM322.493,325.253L1862.173,325.253L1862.173,321.133L322.493,321.133L322.493,325.253ZM1860.113,323.193L1860.113,1862.873L1864.233,1862.873L1864.233,323.193L1860.113,323.193ZM1862.173,1860.813L322.493,1860.813L322.493,1864.933L1862.173,1864.933L1862.173,1860.813ZM324.553,1862.873L324.553,323.193L320.433,323.193L320.433,1862.873L324.553,1862.873Z" transform="rotate(-89.619 1092.333 1093.033)" fill="url(#ps_0_1_53)"/>
</g>
<g opacity="0.07" style="mix-blend-mode:color-dodge">
<path d="M4407.202,468.134L3157.46,468.134L3157.46,1717.876L4407.202,1717.876L4407.202,468.134Z" transform="rotate(270.381 3782.331 1093.006)" fill="url(#pf_0_1_56)"/>
</g>
<g opacity="0.07" style="mix-blend-mode:color-dodge">
<path d="M4275.431,468.14L3025.689,468.14L3025.689,1717.882L4275.431,1717.882L4275.431,468.14Z" transform="rotate(270.381 3650.56 1093.011)" fill="url(#pf_0_1_58)"/>
</g>
<g opacity="0.09" style="mix-blend-mode:color-dodge">
<path d="M3696.481,468.136L2446.739,468.136L2446.739,1717.878L3696.481,1717.878L3696.481,468.136Z" transform="rotate(270.381 3071.611 1093.008)" fill="url(#pf_0_1_60)"/>
</g>
<g style="mix-blend-mode:color-dodge">
<path d="M4675.72,754.636L3998.952,754.636L3998.952,1431.404L4675.72,1431.404L4675.72,754.636Z" transform="rotate(270.381 4337.335 1093.02)" fill="url(#pf_0_1_62)"/>
</g>
<g style="mix-blend-mode:screen">
<path d="M3772.228,527.923L3772.228,504.923L3749.228,504.923L3749.228,527.923L3772.228,527.923ZM4902.42,527.923L4925.42,527.923L4925.42,504.923L4902.42,504.923L4902.42,527.923ZM4902.42,1658.115L4902.42,1681.115L4925.42,1681.115L4925.42,1658.115L4902.42,1658.115ZM3772.228,1658.115L3749.228,1658.115L3749.228,1681.115L3772.228,1681.115L3772.228,1658.115ZM3772.228,550.923L4902.42,550.923L4902.42,504.923L3772.228,504.923L3772.228,550.923ZM4879.42,527.923L4879.42,1658.115L4925.42,1658.115L4925.42,527.923L4879.42,527.923ZM4902.42,1635.115L3772.228,1635.115L3772.228,1681.115L4902.42,1681.115L4902.42,1635.115ZM3795.228,1658.115L3795.228,527.923L3749.228,527.923L3749.228,1658.115L3795.228,1658.115Z" transform="rotate(-270.381 4337.323 1093.019)" fill="url(#ps_0_1_63)"/>
</g>
<g style="mix-blend-mode:screen">
<path d="M3791.582,547.259L3791.582,542.259L3786.582,542.259L3786.582,547.259L3791.582,547.259ZM4883.064,547.259L4888.064,547.259L4888.064,542.259L4883.064,542.259L4883.064,547.259ZM4883.064,1638.741L4883.064,1643.741L4888.064,1643.741L4888.064,1638.741L4883.064,1638.741ZM3791.582,1638.741L3786.582,1638.741L3786.582,1643.741L3791.582,1643.741L3791.582,1638.741ZM3791.582,552.259L4883.064,552.259L4883.064,542.259L3791.582,542.259L3791.582,552.259ZM4878.064,547.259L4878.064,1638.741L4888.064,1638.741L4888.064,547.259L4878.064,547.259ZM4883.064,1633.741L3791.582,1633.741L3791.582,1643.741L4883.064,1643.741L4883.064,1633.741ZM3796.582,1638.741L3796.582,547.259L3786.582,547.259L3786.582,1638.741L3796.582,1638.741Z" transform="rotate(-270.381 4337.323 1093)" fill="url(#ps_0_1_64)"/>
</g>
<g style="mix-blend-mode:screen">
<path d="M3588.137,343.822L3588.137,341.822L3586.137,341.822L3586.137,343.822L3588.137,343.822ZM5086.533,343.822L5088.533,343.822L5088.533,341.822L5086.533,341.822L5086.533,343.822ZM5086.533,1842.218L5086.533,1844.218L5088.533,1844.218L5088.533,1842.218L5086.533,1842.218ZM3588.137,1842.218L3586.137,1842.218L3586.137,1844.218L3588.137,1844.218L3588.137,1842.218ZM3588.137,345.822L5086.533,345.822L5086.533,341.822L3588.137,341.822L3588.137,345.822ZM5084.533,343.822L5084.533,1842.218L5088.533,1842.218L5088.533,343.822L5084.533,343.822ZM5086.533,1840.218L3588.137,1840.218L3588.137,1844.218L5086.533,1844.218L5086.533,1840.218ZM3590.137,1842.218L3590.137,343.822L3586.137,343.822L3586.137,1842.218L3590.137,1842.218Z" transform="rotate(270.381 4337.336 1093.02)" fill="url(#ps_0_1_66)"/>
</g>
<g style="mix-blend-mode:screen">
<path d="M4036.522,792.204L4036.522,784.524L4028.842,784.524L4028.842,792.204L4036.522,792.204ZM4638.152,792.204L4645.832,792.204L4645.832,784.524L4638.152,784.524L4638.152,792.204ZM4638.152,1393.834L4638.152,1401.514L4645.832,1401.514L4645.832,1393.834L4638.152,1393.834ZM4036.522,1393.834L4028.842,1393.834L4028.842,1401.514L4036.522,1401.514L4036.522,1393.834ZM4036.522,799.884L4638.152,799.884L4638.152,784.524L4036.522,784.524L4036.522,799.884ZM4630.472,792.204L4630.472,1393.834L4645.832,1393.834L4645.832,792.204L4630.472,792.204ZM4638.152,1386.154L4036.522,1386.154L4036.522,1401.514L4638.152,1401.514L4638.152,1386.154ZM4044.202,1393.834L4044.202,792.204L4028.842,792.204L4028.842,1393.834L4044.202,1393.834Z" transform="rotate(270.381 4337.337 1093.019)" fill="url(#ps_0_1_68)"/>
</g>
<g style="mix-blend-mode:screen">
<path d="M3561.873,317.555L3561.873,297.765L3542.083,297.765L3542.083,317.555L3561.873,317.555ZM5112.803,317.555L5132.593,317.555L5132.593,297.765L5112.803,297.765L5112.803,317.555ZM5112.803,1868.485L5112.803,1888.275L5132.593,1888.275L5132.593,1868.485L5112.803,1868.485ZM3561.873,1868.485L3542.083,1868.485L3542.083,1888.275L3561.873,1888.275L3561.873,1868.485ZM3561.873,337.345L5112.803,337.345L5112.803,297.765L3561.873,297.765L3561.873,337.345ZM5093.013,317.555L5093.013,1868.485L5132.593,1868.485L5132.593,317.555L5093.013,317.555ZM5112.803,1848.695L3561.873,1848.695L3561.873,1888.275L5112.803,1888.275L5112.803,1848.695ZM3581.663,1868.485L3581.663,317.555L3542.083,317.555L3542.083,1868.485L3581.663,1868.485Z" transform="rotate(270.381 4337.337 1093.02)" fill="url(#ps_0_1_70)"/>
</g>
<g style="mix-blend-mode:screen">
<path d="M3670.659,426.342L3670.659,424.302L3668.619,424.302L3668.619,426.342L3670.659,426.342ZM5003.977,426.342L5006.017,426.342L5006.017,424.302L5003.977,424.302L5003.977,426.342ZM5003.977,1759.66L5003.977,1761.7L5006.017,1761.7L5006.017,1759.66L5003.977,1759.66ZM3670.659,1759.66L3668.619,1759.66L3668.619,1761.7L3670.659,1761.7L3670.659,1759.66ZM3670.659,428.382L5003.977,428.382L5003.977,424.302L3670.659,424.302L3670.659,428.382ZM5001.937,426.342L5001.937,1759.66L5006.017,1759.66L5006.017,426.342L5001.937,426.342ZM5003.977,1757.62L3670.659,1757.62L3670.659,1761.7L5003.977,1761.7L5003.977,1757.62ZM3672.699,1759.66L3672.699,426.342L3668.619,426.342L3668.619,1759.66L3672.699,1759.66Z" transform="rotate(270.381 4337.318 1093.001)" fill="url(#ps_0_1_72)"/>
</g>
<g style="mix-blend-mode:color-dodge">
<path d="M3822.618,578.322L3822.618,566.762L3811.058,566.762L3811.058,578.322L3822.618,578.322ZM4852.016,578.322L4863.576,578.322L4863.576,566.762L4852.016,566.762L4852.016,578.322ZM4852.016,1607.72L4852.016,1619.28L4863.576,1619.28L4863.576,1607.72L4852.016,1607.72ZM3822.618,1607.72L3811.058,1607.72L3811.058,1619.28L3822.618,1619.28L3822.618,1607.72ZM3822.618,589.882L4852.016,589.882L4852.016,566.762L3822.618,566.762L3822.618,589.882ZM4840.456,578.322L4840.456,1607.72L4863.576,1607.72L4863.576,578.322L4840.456,578.322ZM4852.016,1596.16L3822.618,1596.16L3822.618,1619.28L4852.016,1619.28L4852.016,1596.16ZM3834.178,1607.72L3834.178,578.322L3811.058,578.322L3811.058,1607.72L3834.178,1607.72Z" transform="rotate(270.381 4337.317 1093.022)" fill="url(#ps_0_1_74)"/>
</g>
<g style="mix-blend-mode:color-dodge">
<path d="M4337.329,227.764L5208.297,1092.986L4337.329,1958.234L3466.307,1092.986L4337.329,227.764ZM4337.329,190.374L3428.667,1092.986L4337.329,1995.624L5245.991,1092.986L4337.329,190.374Z" transform="rotate(360 4337.329 1092.999)" fill="url(#pf_0_1_76)"/>
</g>
<g style="mix-blend-mode:screen">
<path d="M3965.802,721.497L3965.802,706.377L3950.682,706.377L3950.682,721.497L3965.802,721.497ZM4708.846,721.497L4723.966,721.497L4723.966,706.377L4708.846,706.377L4708.846,721.497ZM4708.846,1464.541L4708.846,1479.661L4723.966,1479.661L4723.966,1464.541L4708.846,1464.541ZM3965.802,1464.541L3950.682,1464.541L3950.682,1479.661L3965.802,1479.661L3965.802,1464.541ZM3965.802,736.617L4708.846,736.617L4708.846,706.377L3965.802,706.377L3965.802,736.617ZM4693.726,721.497L4693.726,1464.541L4723.966,1464.541L4723.966,721.497L4693.726,721.497ZM4708.846,1449.421L3965.802,1449.421L3965.802,1479.661L4708.846,1479.661L4708.846,1449.421ZM3980.922,1464.541L3980.922,721.497L3950.682,721.497L3950.682,1464.541L3980.922,1464.541Z" transform="rotate(-270.381 4337.323 1093.018)" fill="url(#ps_0_1_77)"/>
</g>
<g style="mix-blend-mode:screen">
<path d="M3978.524,734.201L3978.524,730.911L3975.234,730.911L3975.234,734.201L3978.524,734.201ZM4696.124,734.201L4699.414,734.201L4699.414,730.911L4696.124,730.911L4696.124,734.201ZM4696.124,1451.801L4696.124,1455.091L4699.414,1455.091L4699.414,1451.801L4696.124,1451.801ZM3978.524,1451.801L3975.234,1451.801L3975.234,1455.091L3978.524,1455.091L3978.524,1451.801ZM3978.524,737.491L4696.124,737.491L4696.124,730.911L3978.524,730.911L3978.524,737.491ZM4692.834,734.201L4692.834,1451.801L4699.414,1451.801L4699.414,734.201L4692.834,734.201ZM4696.124,1448.511L3978.524,1448.511L3978.524,1455.091L4696.124,1455.091L4696.124,1448.511ZM3981.814,1451.801L3981.814,734.201L3975.234,734.201L3975.234,1451.801L3981.814,1451.801Z" transform="rotate(-270.381 4337.323 1093)" fill="url(#ps_0_1_78)"/>
</g>
<g style="mix-blend-mode:screen">
<path d="M3899.049,654.712L3899.049,653.372L3897.709,653.372L3897.709,654.712L3899.049,654.712ZM4775.625,654.712L4776.965,654.712L4776.965,653.372L4775.625,653.372L4775.625,654.712ZM4775.625,1531.288L4775.625,1532.628L4776.965,1532.628L4776.965,1531.288L4775.625,1531.288ZM3899.049,1531.288L3897.709,1531.288L3897.709,1532.628L3899.049,1532.628L3899.049,1531.288ZM3899.049,656.052L4775.625,656.052L4775.625,653.372L3899.049,653.372L3899.049,656.052ZM4774.285,654.712L4774.285,1531.288L4776.965,1531.288L4776.965,654.712L4774.285,654.712ZM4775.625,1529.948L3899.049,1529.948L3899.049,1532.628L4775.625,1532.628L4775.625,1529.948ZM3900.389,1531.288L3900.389,654.712L3897.709,654.712L3897.709,1531.288L3900.389,1531.288Z" transform="rotate(270.381 4337.337 1093.001)" fill="url(#ps_0_1_80)"/>
</g>
<g style="mix-blend-mode:color-dodge">
<path d="M3998.952,754.636L3998.952,753.636L3997.952,753.636L3997.952,754.636L3998.952,754.636ZM4675.72,754.636L4676.72,754.636L4676.72,753.636L4675.72,753.636L4675.72,754.636ZM4675.72,1431.404L4675.72,1432.404L4676.72,1432.404L4676.72,1431.404L4675.72,1431.404ZM3998.952,1431.404L3997.952,1431.404L3997.952,1432.404L3998.952,1432.404L3998.952,1431.404ZM3998.952,755.636L4675.72,755.636L4675.72,753.636L3998.952,753.636L3998.952,755.636ZM4674.72,754.636L4674.72,1431.404L4676.72,1431.404L4676.72,754.636L4674.72,754.636ZM4675.72,1430.404L3998.952,1430.404L3998.952,1432.404L4675.72,1432.404L4675.72,1430.404ZM3999.952,1431.404L3999.952,754.636L3997.952,754.636L3997.952,1431.404L3999.952,1431.404Z" transform="rotate(270.381 4337.335 1093.02)" fill="url(#ps_0_1_82)"/>
</g>
<g style="mix-blend-mode:color-dodge">
<path d="M4024.689,780.371L4024.689,774.831L4019.149,774.831L4019.149,780.371L4024.689,780.371ZM4649.985,780.371L4655.525,780.371L4655.525,774.831L4649.985,774.831L4649.985,780.371ZM4649.985,1405.667L4649.985,1411.207L4655.525,1411.207L4655.525,1405.667L4649.985,1405.667ZM4024.689,1405.667L4019.149,1405.667L4019.149,1411.207L4024.689,1411.207L4024.689,1405.667ZM4024.689,785.911L4649.985,785.911L4649.985,774.831L4024.689,774.831L4024.689,785.911ZM4644.445,780.371L4644.445,1405.667L4655.525,1405.667L4655.525,780.371L4644.445,780.371ZM4649.985,1400.127L4024.689,1400.127L4024.689,1411.207L4649.985,1411.207L4649.985,1400.127ZM4030.229,1405.667L4030.229,780.371L4019.149,780.371L4019.149,1405.667L4030.229,1405.667Z" transform="rotate(270.381 4337.337 1093.019)" fill="url(#ps_0_1_84)"/>
</g>
<g style="mix-blend-mode:color-dodge">
<path d="M3614.406,370.088L3614.406,357.268L3601.586,357.268L3601.586,370.088L3614.406,370.088ZM5060.27,370.088L5073.09,370.088L5073.09,357.268L5060.27,357.268L5060.27,370.088ZM5060.27,1815.952L5060.27,1828.772L5073.09,1828.772L5073.09,1815.952L5060.27,1815.952ZM3614.406,1815.952L3601.586,1815.952L3601.586,1828.772L3614.406,1828.772L3614.406,1815.952ZM3614.406,382.908L5060.27,382.908L5060.27,357.268L3614.406,357.268L3614.406,382.908ZM5047.45,370.088L5047.45,1815.952L5073.09,1815.952L5073.09,370.088L5047.45,370.088ZM5060.27,1803.132L3614.406,1803.132L3614.406,1828.772L5060.27,1828.772L5060.27,1803.132ZM3627.226,1815.952L3627.226,370.088L3601.586,370.088L3601.586,1815.952L3627.226,1815.952Z" transform="rotate(270.381 4337.338 1093.02)" fill="url(#ps_0_1_86)"/>
</g>
<g style="mix-blend-mode:color-dodge">
<path d="M4337.33,524.141L4909.972,1092.987L4337.33,1661.939L3764.689,1092.987L4337.33,524.141ZM4337.33,499.575L3739.932,1092.987L4337.33,1686.425L4934.728,1092.987L4337.33,499.575Z" transform="rotate(360 4337.331 1093)" fill="url(#pf_0_1_88)"/>
</g>
<g opacity="0.59" style="mix-blend-mode:screen">
<path d="M4219.016,601.436C4224.738,607.544 4170.806,666.645 4098.561,733.44C4026.315,800.236 3963.067,849.447 3957.477,843.311C3951.887,837.177 4005.685,778.103 4077.931,711.307C4150.177,644.512 4213.266,595.46 4219.016,601.436Z" transform="rotate(360 4088.255 722.385)" fill="url(#pf_0_1_89)" style="mix-blend-mode:screen"/>
</g>
<g opacity="0.59" style="mix-blend-mode:screen">
<path d="M4219.016,601.436C4224.738,607.544 4170.806,666.645 4098.561,733.44C4026.315,800.236 3963.067,849.447 3957.477,843.311C3951.887,837.177 4005.685,778.103 4077.931,711.307C4150.177,644.512 4213.266,595.46 4219.016,601.436Z" transform="rotate(360 4088.255 722.385)" fill="url(#pf_0_1_90)" style="mix-blend-mode:screen"/>
</g>
<g style="mix-blend-mode:color-dodge">
<path d="M3700.097,1748.608C3715.752,1748.608 3728.443,1642.16 3728.443,1510.848C3728.443,1379.535 3715.752,1273.086 3700.097,1273.086C3684.441,1273.086 3671.75,1379.535 3671.75,1510.848C3671.75,1642.16 3684.441,1748.608 3700.097,1748.608Z" transform="rotate(277.218 3700.097 1510.847)" fill="url(#pf_0_1_91)" style="mix-blend-mode:color-dodge"/>
</g>
<g style="mix-blend-mode:color-dodge">
<path d="M3839.594,547.622C3850.242,559.072 3780.552,640.464 3683.869,729.446C3587.187,818.427 3500.194,881.283 3489.546,869.833C3478.898,858.383 3548.668,777.043 3645.218,688.009C3741.766,598.975 3828.946,536.172 3839.594,547.622Z" transform="rotate(360 3664.571 708.727)" fill="url(#pf_0_1_92)" style="mix-blend-mode:color-dodge"/>
</g>
<g style="mix-blend-mode:color-dodge">
<path d="M4272.932,705.489C4276.126,708.663 4220.864,768.742 4149.47,839.636C4078.076,910.53 4017.623,965.452 4014.481,962.278C4011.34,959.106 4066.523,899.027 4137.917,828.106C4209.311,757.186 4269.71,702.29 4272.932,705.489Z" transform="rotate(360 4143.709 833.883)" fill="url(#pf_0_1_93)" style="mix-blend-mode:color-dodge"/>
</g>
<g opacity="0.39" style="mix-blend-mode:color-dodge">
<path d="M3694.751,701.398C3912.625,701.398 4089.249,694.425 4089.249,685.824C4089.249,677.223 3912.625,670.25 3694.751,670.25C3476.875,670.25 3300.253,677.223 3300.253,685.824C3300.253,694.425 3476.875,701.398 3694.751,701.398Z" transform="rotate(270.381 3694.751 685.824)" fill="url(#pf_0_1_94)" style="mix-blend-mode:color-dodge"/>
</g>
<g opacity="0.15" style="mix-blend-mode:color-dodge">
<path d="M3157.026,717.261C3374.9,717.261 3551.524,710.288 3551.524,701.687C3551.524,693.085 3374.9,686.113 3157.026,686.113C2939.151,686.113 2762.528,693.085 2762.528,701.687C2762.528,710.288 2939.151,717.261 3157.026,717.261Z" transform="rotate(270.381 3157.026 701.687)" fill="url(#pf_0_1_95)" style="mix-blend-mode:color-dodge"/>
</g>
<g style="mix-blend-mode:screen">
<path d="M3599.428,323.166L3599.428,321.106L3597.368,321.106L3597.368,323.166L3599.428,323.166ZM5139.108,323.166L5141.168,323.166L5141.168,321.106L5139.108,321.106L5139.108,323.166ZM5139.108,1862.846L5139.108,1864.906L5141.168,1864.906L5141.168,1862.846L5139.108,1862.846ZM3599.428,1862.846L3597.368,1862.846L3597.368,1864.906L3599.428,1864.906L3599.428,1862.846ZM3599.428,325.226L5139.108,325.226L5139.108,321.106L3599.428,321.106L3599.428,325.226ZM5137.048,323.166L5137.048,1862.846L5141.168,1862.846L5141.168,323.166L5137.048,323.166ZM5139.108,1860.786L3599.428,1860.786L3599.428,1864.906L5139.108,1864.906L5139.108,1860.786ZM3601.488,1862.846L3601.488,323.166L3597.368,323.166L3597.368,1862.846L3601.488,1862.846Z" transform="rotate(270.381 4369.268 1093.006)" fill="url(#ps_0_1_97)"/>
</g>
</g>
<defs>
<linearGradient id="pf_0_1_12" x1="795.587" y1="1090.103" x2="2562.951" y2="1095.98" gradientUnits="userSpaceOnUse">
<stop stop-color="#000000"/>
<stop offset="0.31" stop-color="#233E38"/>
<stop offset="1" stop-color="#78D5C0"/>
</linearGradient>
<linearGradient id="pf_0_1_14" x1="927.338" y1="1090.097" x2="2694.728" y2="1095.975" gradientUnits="userSpaceOnUse">
<stop stop-color="#000000"/>
<stop offset="0.31" stop-color="#233E38"/>
<stop offset="1" stop-color="#78D5C0"/>
</linearGradient>
<linearGradient id="pf_0_1_16" x1="1506.282" y1="1090.101" x2="3273.673" y2="1095.979" gradientUnits="userSpaceOnUse">
<stop stop-color="#000000"/>
<stop offset="0.31" stop-color="#233E38"/>
<stop offset="1" stop-color="#78D5C0"/>
</linearGradient>
<radialGradient id="pf_0_1_18" cx="0" cy="0" r="1" gradientUnits="userSpaceOnUse" gradientTransform="matrix(239.273638 0.795732 -0.795732 239.273638 562.133 546.504)">
<stop stop-color="#78D5C0"/>
<stop offset="0.69" stop-color="#233E38"/>
<stop offset="1" stop-color="#000000"/>
</radialGradient>
<linearGradient id="ps_0_1_19" x1="701.702" y1="673.284" x2="1546.815" y2="1512.794" gradientUnits="userSpaceOnUse">
<stop offset="0.15" stop-color="#000000"/>
<stop offset="0.17" stop-color="#060007"/>
<stop offset="0.2" stop-color="#17001C"/>
<stop offset="0.24" stop-color="#33003E"/>
<stop offset="0.29" stop-color="#5A006D"/>
<stop offset="0.34" stop-color="#8B00AA"/>
<stop offset="0.39" stop-color="#C700F2"/>
<stop offset="0.4" stop-color="#CD00FA"/>
<stop offset="0.41" stop-color="#CE00EF"/>
<stop offset="0.44" stop-color="#CF00D1"/>
<stop offset="0.47" stop-color="#D200A0"/>
<stop offset="0.51" stop-color="#D6015D"/>
<stop offset="0.56" stop-color="#DB0100"/>
<stop offset="0.64" stop-color="#B90100"/>
<stop offset="0.81" stop-color="#640000"/>
<stop offset="1" stop-color="#000000"/>
</linearGradient>
<linearGradient id="ps_0_1_20" x1="732.384" y1="703.762" x2="1516.152" y2="1482.335" gradientUnits="userSpaceOnUse">
<stop offset="0.15" stop-color="#000000"/>
<stop offset="0.17" stop-color="#070207"/>
<stop offset="0.2" stop-color="#19091C"/>
<stop offset="0.24" stop-color="#36153E"/>
<stop offset="0.29" stop-color="#60246D"/>
<stop offset="0.34" stop-color="#9539AA"/>
<stop offset="0.39" stop-color="#D451F2"/>
<stop offset="0.4" stop-color="#DD54FC"/>
<stop offset="0.42" stop-color="#DE56F1"/>
<stop offset="0.46" stop-color="#E15BD3"/>
<stop offset="0.51" stop-color="#E563A3"/>
<stop offset="0.56" stop-color="#EA6C6B"/>
<stop offset="0.63" stop-color="#C85C5C"/>
<stop offset="0.8" stop-color="#733534"/>
<stop offset="1" stop-color="#000000"/>
</linearGradient>
<linearGradient id="ps_0_1_22" x1="594.378" y1="559.633" x2="1654.133" y2="1626.461" gradientUnits="userSpaceOnUse">
<stop offset="0.15" stop-color="#000000"/>
<stop offset="0.18" stop-color="#000507"/>
<stop offset="0.22" stop-color="#00141C"/>
<stop offset="0.27" stop-color="#002C3E"/>
<stop offset="0.33" stop-color="#004D6D"/>
<stop offset="0.4" stop-color="#0078AB"/>
<stop offset="0.43" stop-color="#0A6DA5"/>
<stop offset="0.5" stop-color="#264F94"/>
<stop offset="0.56" stop-color="#482A80"/>
<stop offset="0.69" stop-color="#351F5F"/>
<stop offset="0.97" stop-color="#06030A"/>
<stop offset="1" stop-color="#000000"/>
</linearGradient>
<linearGradient id="ps_0_1_24" x1="905.065" y1="872.396" x2="1343.425" y2="1313.681" gradientUnits="userSpaceOnUse">
<stop offset="0.15" stop-color="#000000"/>
<stop offset="0.18" stop-color="#000507"/>
<stop offset="0.22" stop-color="#00141C"/>
<stop offset="0.27" stop-color="#002C3E"/>
<stop offset="0.33" stop-color="#004D6D"/>
<stop offset="0.4" stop-color="#0078AB"/>
<stop offset="0.43" stop-color="#0A6DA5"/>
<stop offset="0.5" stop-color="#264F94"/>
<stop offset="0.56" stop-color="#482A80"/>
<stop offset="0.69" stop-color="#351F5F"/>
<stop offset="0.97" stop-color="#06030A"/>
<stop offset="1" stop-color="#000000"/>
</linearGradient>
<linearGradient id="ps_0_1_26" x1="559.242" y1="524.266" x2="1689.265" y2="1661.83" gradientUnits="userSpaceOnUse">
<stop offset="0.15" stop-color="#000000"/>
<stop offset="0.18" stop-color="#000507"/>
<stop offset="0.22" stop-color="#00141C"/>
<stop offset="0.27" stop-color="#002C3E"/>
<stop offset="0.33" stop-color="#004D6D"/>
<stop offset="0.4" stop-color="#0078AB"/>
<stop offset="0.43" stop-color="#0A6DA5"/>
<stop offset="0.5" stop-color="#264F94"/>
<stop offset="0.56" stop-color="#482A80"/>
<stop offset="0.69" stop-color="#351F5F"/>
<stop offset="0.97" stop-color="#06030A"/>
<stop offset="1" stop-color="#000000"/>
</linearGradient>
<linearGradient id="ps_0_1_28" x1="177.65" y1="1089.861" x2="2070.879" y2="1096.158" gradientUnits="userSpaceOnUse">
<stop offset="0.07" stop-color="#000000"/>
<stop offset="0.11" stop-color="#1D190B"/>
<stop offset="0.33" stop-color="#B69F47"/>
<stop offset="0.42" stop-color="#F4D55F"/>
<stop offset="0.6" stop-color="#E3411D"/>
<stop offset="0.69" stop-color="#DB0100"/>
<stop offset="0.74" stop-color="#B90100"/>
<stop offset="0.87" stop-color="#640000"/>
<stop offset="1" stop-color="#000000"/>
</linearGradient>
<radialGradient id="ps_0_1_30" cx="0" cy="0" r="1" gradientUnits="userSpaceOnUse" gradientTransform="matrix(374.782853 1.246384 -1.246384 374.782853 562.133 546.504)">
<stop stop-color="#78D5C0"/>
<stop offset="0.69" stop-color="#233E38"/>
<stop offset="1" stop-color="#000000"/>
</radialGradient>
<radialGradient id="pf_0_1_32" cx="0" cy="0" r="1" gradientUnits="userSpaceOnUse" gradientTransform="matrix(454.330963 0 0 451.319118 562.136 546.514)">
<stop stop-color="#78D5C0"/>
<stop offset="0.69" stop-color="#233E38"/>
<stop offset="1" stop-color="#000000"/>
</radialGradient>
<linearGradient id="ps_0_1_33" x1="846.451" y1="817.074" x2="1402.066" y2="1369.006" gradientUnits="userSpaceOnUse">
<stop offset="0.15" stop-color="#000000"/>
<stop offset="0.17" stop-color="#060007"/>
<stop offset="0.2" stop-color="#17001C"/>
<stop offset="0.24" stop-color="#33003E"/>
<stop offset="0.29" stop-color="#5A006D"/>
<stop offset="0.34" stop-color="#8B00AA"/>
<stop offset="0.39" stop-color="#C700F2"/>
<stop offset="0.4" stop-color="#CD00FA"/>
<stop offset="0.41" stop-color="#CE00EF"/>
<stop offset="0.44" stop-color="#CF00D1"/>
<stop offset="0.47" stop-color="#D200A0"/>
<stop offset="0.51" stop-color="#D6015D"/>
<stop offset="0.56" stop-color="#DB0100"/>
<stop offset="0.64" stop-color="#B90100"/>
<stop offset="0.81" stop-color="#640000"/>
<stop offset="1" stop-color="#000000"/>
</linearGradient>
<linearGradient id="ps_0_1_34" x1="866.629" y1="837.117" x2="1381.907" y2="1348.979" gradientUnits="userSpaceOnUse">
<stop offset="0.15" stop-color="#000000"/>
<stop offset="0.17" stop-color="#070207"/>
<stop offset="0.2" stop-color="#19091C"/>
<stop offset="0.24" stop-color="#36153E"/>
<stop offset="0.29" stop-color="#60246D"/>
<stop offset="0.34" stop-color="#9539AA"/>
<stop offset="0.39" stop-color="#D451F2"/>
<stop offset="0.4" stop-color="#DD54FC"/>
<stop offset="0.42" stop-color="#DE56F1"/>
<stop offset="0.46" stop-color="#E15BD3"/>
<stop offset="0.51" stop-color="#E563A3"/>
<stop offset="0.56" stop-color="#EA6C6B"/>
<stop offset="0.63" stop-color="#C85C5C"/>
<stop offset="0.8" stop-color="#733534"/>
<stop offset="1" stop-color="#000000"/>
</linearGradient>
<linearGradient id="ps_0_1_36" x1="501.917" y1="1090.94" x2="1746.612" y2="1095.079" gradientUnits="userSpaceOnUse">
<stop offset="0.07" stop-color="#000000"/>
<stop offset="0.11" stop-color="#1D190B"/>
<stop offset="0.33" stop-color="#B69F47"/>
<stop offset="0.42" stop-color="#F4D55F"/>
<stop offset="0.6" stop-color="#E3411D"/>
<stop offset="0.69" stop-color="#DB0100"/>
<stop offset="0.74" stop-color="#B90100"/>
<stop offset="0.87" stop-color="#640000"/>
<stop offset="1" stop-color="#000000"/>
</linearGradient>
<radialGradient id="ps_0_1_38" cx="0" cy="0" r="1" gradientUnits="userSpaceOnUse" gradientTransform="matrix(240.215494 0.798864 -0.798864 240.215494 562.133 546.504)">
<stop stop-color="#78D5C0"/>
<stop offset="0.69" stop-color="#233E38"/>
<stop offset="1" stop-color="#000000"/>
</radialGradient>
<radialGradient id="ps_0_1_40" cx="0" cy="0" r="1" gradientUnits="userSpaceOnUse" gradientTransform="matrix(226.273214 0.752498 -0.752498 226.273214 562.132 546.505)">
<stop stop-color="#78D5C0"/>
<stop offset="0.69" stop-color="#233E38"/>
<stop offset="1" stop-color="#000000"/>
</radialGradient>
<radialGradient id="ps_0_1_42" cx="0" cy="0" r="1" gradientUnits="userSpaceOnUse" gradientTransform="matrix(523.212905 1.740005 -1.740005 523.212905 562.131 546.504)">
<stop stop-color="#78D5C0"/>
<stop offset="0.69" stop-color="#233E38"/>
<stop offset="1" stop-color="#000000"/>
</radialGradient>
<radialGradient id="pf_0_1_44" cx="0" cy="0" r="1" gradientUnits="userSpaceOnUse" gradientTransform="matrix(298.699158 0 0 296.719017 562.135 546.513)">
<stop stop-color="#78D5C0"/>
<stop offset="0.69" stop-color="#233E38"/>
<stop offset="1" stop-color="#000000"/>
</radialGradient>
<radialGradient id="pf_0_1_45" cx="0" cy="0" r="1" gradientUnits="userSpaceOnUse" gradientTransform="matrix(65.391181 -60.372442 5.000502 5.349457 683.907 729.518)">
<stop stop-color="#C43156"/>
<stop offset="0.67" stop-color="#3E0F1B"/>
<stop offset="1" stop-color="#000000"/>
</radialGradient>
<radialGradient id="pf_0_1_46" cx="0" cy="0" r="1" gradientUnits="userSpaceOnUse" gradientTransform="matrix(65.391181 -60.372442 5.000502 5.349457 683.907 729.518)">
<stop stop-color="#C43156"/>
<stop offset="0.67" stop-color="#3E0F1B"/>
<stop offset="1" stop-color="#000000"/>
</radialGradient>
<radialGradient id="pf_0_1_47" cx="0" cy="0" r="1" gradientUnits="userSpaceOnUse" gradientTransform="matrix(-78.467966 -89.032989 10.25085 -9.034442 897.882 325.307)">
<stop stop-color="#78D5C0"/>
<stop offset="0.69" stop-color="#233E38"/>
<stop offset="1" stop-color="#000000"/>
</radialGradient>
<radialGradient id="pf_0_1_48" cx="0" cy="0" r="1" gradientUnits="userSpaceOnUse" gradientTransform="matrix(87.49349 -80.630566 9.487246 10.471502 908.37 730.889)">
<stop stop-color="#78D5C0"/>
<stop offset="0.69" stop-color="#233E38"/>
<stop offset="1" stop-color="#000000"/>
</radialGradient>
<radialGradient id="pf_0_1_49" cx="0" cy="0" r="1" gradientUnits="userSpaceOnUse" gradientTransform="matrix(64.490399 -64.062883 2.852902 2.835292 662.22 682.43)">
<stop stop-color="#78D5C0"/>
<stop offset="0.69" stop-color="#233E38"/>
<stop offset="1" stop-color="#000000"/>
</radialGradient>
<radialGradient id="pf_0_1_50" cx="0" cy="0" r="1" gradientUnits="userSpaceOnUse" gradientTransform="matrix(139.916543 -138.989011 5.673031 5.71089 890.197 758.883)">
<stop stop-color="#78D5C0"/>
<stop offset="0.69" stop-color="#233E38"/>
<stop offset="1" stop-color="#000000"/>
</radialGradient>
<radialGradient id="pf_0_1_51" cx="0" cy="0" r="1" gradientUnits="userSpaceOnUse" gradientTransform="matrix(139.916543 -138.989011 5.673031 5.71089 1163.388 755.413)">
<stop stop-color="#78D5C0"/>
<stop offset="0.69" stop-color="#233E38"/>
<stop offset="1" stop-color="#000000"/>
</radialGradient>
<linearGradient id="ps_0_1_53" x1="544.246" y1="1637.524" x2="1640.457" y2="548.58" gradientUnits="userSpaceOnUse">
<stop stop-color="#000000"/>
<stop offset="0.03" stop-color="#06030A"/>
<stop offset="0.31" stop-color="#351F5F"/>
<stop offset="0.44" stop-color="#482A80"/>
<stop offset="0.5" stop-color="#264F94"/>
<stop offset="0.57" stop-color="#0A6DA5"/>
<stop offset="0.6" stop-color="#0076A9"/>
<stop offset="0.67" stop-color="#004D6D"/>
<stop offset="0.73" stop-color="#002C3E"/>
<stop offset="0.78" stop-color="#00141C"/>
<stop offset="0.82" stop-color="#000507"/>
<stop offset="0.85" stop-color="#000000"/>
</linearGradient>
<linearGradient id="pf_0_1_56" x1="4666.014" y1="1095.936" x2="2898.65" y2="1090.059" gradientUnits="userSpaceOnUse">
<stop stop-color="#000000"/>
<stop offset="0.31" stop-color="#233E38"/>
<stop offset="1" stop-color="#78D5C0"/>
</linearGradient>
<linearGradient id="pf_0_1_58" x1="4534.263" y1="1095.942" x2="2766.872" y2="1090.064" gradientUnits="userSpaceOnUse">
<stop stop-color="#000000"/>
<stop offset="0.31" stop-color="#233E38"/>
<stop offset="1" stop-color="#78D5C0"/>
</linearGradient>
<linearGradient id="pf_0_1_60" x1="3955.318" y1="1095.938" x2="2187.928" y2="1090.061" gradientUnits="userSpaceOnUse">
<stop stop-color="#000000"/>
<stop offset="0.31" stop-color="#233E38"/>
<stop offset="1" stop-color="#78D5C0"/>
</linearGradient>
<radialGradient id="pf_0_1_62" cx="0" cy="0" r="1" gradientUnits="userSpaceOnUse" gradientTransform="matrix(-239.273638 -0.795711 0.795711 -239.273638 2168.667 546.515)">
<stop stop-color="#78D5C0"/>
<stop offset="0.69" stop-color="#233E38"/>
<stop offset="1" stop-color="#000000"/>
</radialGradient>
<linearGradient id="ps_0_1_63" x1="4759.898" y1="1512.755" x2="3914.786" y2="673.245" gradientUnits="userSpaceOnUse">
<stop offset="0.15" stop-color="#000000"/>
<stop offset="0.17" stop-color="#060007"/>
<stop offset="0.2" stop-color="#17001C"/>
<stop offset="0.24" stop-color="#33003E"/>
<stop offset="0.29" stop-color="#5A006D"/>
<stop offset="0.34" stop-color="#8B00AA"/>
<stop offset="0.39" stop-color="#C700F2"/>
<stop offset="0.4" stop-color="#CD00FA"/>
<stop offset="0.41" stop-color="#CE00EF"/>
<stop offset="0.44" stop-color="#CF00D1"/>
<stop offset="0.47" stop-color="#D200A0"/>
<stop offset="0.51" stop-color="#D6015D"/>
<stop offset="0.56" stop-color="#DB0100"/>
<stop offset="0.64" stop-color="#B90100"/>
<stop offset="0.81" stop-color="#640000"/>
<stop offset="1" stop-color="#000000"/>
</linearGradient>
<linearGradient id="ps_0_1_64" x1="4729.217" y1="1482.277" x2="3945.449" y2="703.704" gradientUnits="userSpaceOnUse">
<stop offset="0.15" stop-color="#000000"/>
<stop offset="0.17" stop-color="#070207"/>
<stop offset="0.2" stop-color="#19091C"/>
<stop offset="0.24" stop-color="#36153E"/>
<stop offset="0.29" stop-color="#60246D"/>
<stop offset="0.34" stop-color="#9539AA"/>
<stop offset="0.39" stop-color="#D451F2"/>
<stop offset="0.4" stop-color="#DD54FC"/>
<stop offset="0.42" stop-color="#DE56F1"/>
<stop offset="0.46" stop-color="#E15BD3"/>
<stop offset="0.51" stop-color="#E563A3"/>
<stop offset="0.56" stop-color="#EA6C6B"/>
<stop offset="0.63" stop-color="#C85C5C"/>
<stop offset="0.8" stop-color="#733534"/>
<stop offset="1" stop-color="#000000"/>
</linearGradient>
<linearGradient id="ps_0_1_66" x1="4867.223" y1="1626.406" x2="3807.467" y2="559.578" gradientUnits="userSpaceOnUse">
<stop offset="0.15" stop-color="#000000"/>
<stop offset="0.18" stop-color="#000507"/>
<stop offset="0.22" stop-color="#00141C"/>
<stop offset="0.27" stop-color="#002C3E"/>
<stop offset="0.33" stop-color="#004D6D"/>
<stop offset="0.4" stop-color="#0078AB"/>
<stop offset="0.43" stop-color="#0A6DA5"/>
<stop offset="0.5" stop-color="#264F94"/>
<stop offset="0.56" stop-color="#482A80"/>
<stop offset="0.69" stop-color="#351F5F"/>
<stop offset="0.97" stop-color="#06030A"/>
<stop offset="1" stop-color="#000000"/>
</linearGradient>
<linearGradient id="ps_0_1_68" x1="4556.535" y1="1313.643" x2="4118.176" y2="872.358" gradientUnits="userSpaceOnUse">
<stop offset="0.15" stop-color="#000000"/>
<stop offset="0.18" stop-color="#000507"/>
<stop offset="0.22" stop-color="#00141C"/>
<stop offset="0.27" stop-color="#002C3E"/>
<stop offset="0.33" stop-color="#004D6D"/>
<stop offset="0.4" stop-color="#0078AB"/>
<stop offset="0.43" stop-color="#0A6DA5"/>
<stop offset="0.5" stop-color="#264F94"/>
<stop offset="0.56" stop-color="#482A80"/>
<stop offset="0.69" stop-color="#351F5F"/>
<stop offset="0.97" stop-color="#06030A"/>
<stop offset="1" stop-color="#000000"/>
</linearGradient>
<linearGradient id="ps_0_1_70" x1="4902.358" y1="1661.774" x2="3772.335" y2="524.209" gradientUnits="userSpaceOnUse">
<stop offset="0.15" stop-color="#000000"/>
<stop offset="0.18" stop-color="#000507"/>
<stop offset="0.22" stop-color="#00141C"/>
<stop offset="0.27" stop-color="#002C3E"/>
<stop offset="0.33" stop-color="#004D6D"/>
<stop offset="0.4" stop-color="#0078AB"/>
<stop offset="0.43" stop-color="#0A6DA5"/>
<stop offset="0.5" stop-color="#264F94"/>
<stop offset="0.56" stop-color="#482A80"/>
<stop offset="0.69" stop-color="#351F5F"/>
<stop offset="0.97" stop-color="#06030A"/>
<stop offset="1" stop-color="#000000"/>
</linearGradient>
<linearGradient id="ps_0_1_72" x1="5283.951" y1="1096.178" x2="3390.722" y2="1089.882" gradientUnits="userSpaceOnUse">
<stop offset="0.07" stop-color="#000000"/>
<stop offset="0.11" stop-color="#1D190B"/>
<stop offset="0.33" stop-color="#B69F47"/>
<stop offset="0.42" stop-color="#F4D55F"/>
<stop offset="0.6" stop-color="#E3411D"/>
<stop offset="0.69" stop-color="#DB0100"/>
<stop offset="0.74" stop-color="#B90100"/>
<stop offset="0.87" stop-color="#640000"/>
<stop offset="1" stop-color="#000000"/>
</linearGradient>
<radialGradient id="ps_0_1_74" cx="0" cy="0" r="1" gradientUnits="userSpaceOnUse" gradientTransform="matrix(-374.782853 -1.246351 1.246351 -374.782853 2168.668 546.516)">
<stop stop-color="#78D5C0"/>
<stop offset="0.69" stop-color="#233E38"/>
<stop offset="1" stop-color="#000000"/>
</radialGradient>
<radialGradient id="pf_0_1_76" cx="0" cy="0" r="1" gradientUnits="userSpaceOnUse" gradientTransform="matrix(-454.330963 0.000039 -0.000039 -451.319118 2168.664 546.506)">
<stop stop-color="#78D5C0"/>
<stop offset="0.69" stop-color="#233E38"/>
<stop offset="1" stop-color="#000000"/>
</radialGradient>
<linearGradient id="ps_0_1_77" x1="4615.15" y1="1368.965" x2="4059.534" y2="817.033" gradientUnits="userSpaceOnUse">
<stop offset="0.15" stop-color="#000000"/>
<stop offset="0.17" stop-color="#060007"/>
<stop offset="0.2" stop-color="#17001C"/>
<stop offset="0.24" stop-color="#33003E"/>
<stop offset="0.29" stop-color="#5A006D"/>
<stop offset="0.34" stop-color="#8B00AA"/>
<stop offset="0.39" stop-color="#C700F2"/>
<stop offset="0.4" stop-color="#CD00FA"/>
<stop offset="0.41" stop-color="#CE00EF"/>
<stop offset="0.44" stop-color="#CF00D1"/>
<stop offset="0.47" stop-color="#D200A0"/>
<stop offset="0.51" stop-color="#D6015D"/>
<stop offset="0.56" stop-color="#DB0100"/>
<stop offset="0.64" stop-color="#B90100"/>
<stop offset="0.81" stop-color="#640000"/>
<stop offset="1" stop-color="#000000"/>
</linearGradient>
<linearGradient id="ps_0_1_78" x1="4594.972" y1="1348.922" x2="4079.694" y2="837.06" gradientUnits="userSpaceOnUse">
<stop offset="0.15" stop-color="#000000"/>
<stop offset="0.17" stop-color="#070207"/>
<stop offset="0.2" stop-color="#19091C"/>
<stop offset="0.24" stop-color="#36153E"/>
<stop offset="0.29" stop-color="#60246D"/>
<stop offset="0.34" stop-color="#9539AA"/>
<stop offset="0.39" stop-color="#D451F2"/>
<stop offset="0.4" stop-color="#DD54FC"/>
<stop offset="0.42" stop-color="#DE56F1"/>
<stop offset="0.46" stop-color="#E15BD3"/>
<stop offset="0.51" stop-color="#E563A3"/>
<stop offset="0.56" stop-color="#EA6C6B"/>
<stop offset="0.63" stop-color="#C85C5C"/>
<stop offset="0.8" stop-color="#733534"/>
<stop offset="1" stop-color="#000000"/>
</linearGradient>
<linearGradient id="ps_0_1_80" x1="4959.684" y1="1095.099" x2="3714.989" y2="1090.96" gradientUnits="userSpaceOnUse">
<stop offset="0.07" stop-color="#000000"/>
<stop offset="0.11" stop-color="#1D190B"/>
<stop offset="0.33" stop-color="#B69F47"/>
<stop offset="0.42" stop-color="#F4D55F"/>
<stop offset="0.6" stop-color="#E3411D"/>
<stop offset="0.69" stop-color="#DB0100"/>
<stop offset="0.74" stop-color="#B90100"/>
<stop offset="0.87" stop-color="#640000"/>
<stop offset="1" stop-color="#000000"/>
</linearGradient>
<radialGradient id="ps_0_1_82" cx="0" cy="0" r="1" gradientUnits="userSpaceOnUse" gradientTransform="matrix(-240.215494 -0.798843 0.798843 -240.215494 2168.667 546.515)">
<stop stop-color="#78D5C0"/>
<stop offset="0.69" stop-color="#233E38"/>
<stop offset="1" stop-color="#000000"/>
</radialGradient>
<radialGradient id="ps_0_1_84" cx="0" cy="0" r="1" gradientUnits="userSpaceOnUse" gradientTransform="matrix(-226.273214 -0.752478 0.752478 -226.273214 2168.668 546.515)">
<stop stop-color="#78D5C0"/>
<stop offset="0.69" stop-color="#233E38"/>
<stop offset="1" stop-color="#000000"/>
</radialGradient>
<radialGradient id="ps_0_1_86" cx="0" cy="0" r="1" gradientUnits="userSpaceOnUse" gradientTransform="matrix(-523.212905 -1.739959 1.739959 -523.212905 2168.669 546.515)">
<stop stop-color="#78D5C0"/>
<stop offset="0.69" stop-color="#233E38"/>
<stop offset="1" stop-color="#000000"/>
</radialGradient>
<radialGradient id="pf_0_1_88" cx="0" cy="0" r="1" gradientUnits="userSpaceOnUse" gradientTransform="matrix(-298.699158 0.000026 -0.000026 -296.719017 2168.665 546.507)">
<stop stop-color="#78D5C0"/>
<stop offset="0.69" stop-color="#233E38"/>
<stop offset="1" stop-color="#000000"/>
</radialGradient>
<radialGradient id="pf_0_1_89" cx="0" cy="0" r="1" gradientUnits="userSpaceOnUse" gradientTransform="matrix(-65.391176 60.372448 -5.000503 -5.349456 2046.893 363.502)">
<stop stop-color="#C43156"/>
<stop offset="0.67" stop-color="#3E0F1B"/>
<stop offset="1" stop-color="#000000"/>
</radialGradient>
<radialGradient id="pf_0_1_90" cx="0" cy="0" r="1" gradientUnits="userSpaceOnUse" gradientTransform="matrix(-65.391176 60.372448 -5.000503 -5.349456 2046.893 363.502)">
<stop stop-color="#C43156"/>
<stop offset="0.67" stop-color="#3E0F1B"/>
<stop offset="1" stop-color="#000000"/>
</radialGradient>
<radialGradient id="pf_0_1_91" cx="0" cy="0" r="1" gradientUnits="userSpaceOnUse" gradientTransform="matrix(78.467974 89.032982 -10.250849 9.034443 1832.918 767.713)">
<stop stop-color="#78D5C0"/>
<stop offset="0.69" stop-color="#233E38"/>
<stop offset="1" stop-color="#000000"/>
</radialGradient>
<radialGradient id="pf_0_1_92" cx="0" cy="0" r="1" gradientUnits="userSpaceOnUse" gradientTransform="matrix(-87.493483 80.630574 -9.487247 -10.471501 1822.43 362.13)">
<stop stop-color="#78D5C0"/>
<stop offset="0.69" stop-color="#233E38"/>
<stop offset="1" stop-color="#000000"/>
</radialGradient>
<radialGradient id="pf_0_1_93" cx="0" cy="0" r="1" gradientUnits="userSpaceOnUse" gradientTransform="matrix(-64.490394 64.062888 -2.852903 -2.835292 2068.581 410.59)">
<stop stop-color="#78D5C0"/>
<stop offset="0.69" stop-color="#233E38"/>
<stop offset="1" stop-color="#000000"/>
</radialGradient>
<radialGradient id="pf_0_1_94" cx="0" cy="0" r="1" gradientUnits="userSpaceOnUse" gradientTransform="matrix(-139.916531 138.989023 -5.673031 -5.710889 1840.603 334.137)">
<stop stop-color="#78D5C0"/>
<stop offset="0.69" stop-color="#233E38"/>
<stop offset="1" stop-color="#000000"/>
</radialGradient>
<radialGradient id="pf_0_1_95" cx="0" cy="0" r="1" gradientUnits="userSpaceOnUse" gradientTransform="matrix(-139.916531 138.989023 -5.673031 -5.710889 1567.412 337.607)">
<stop stop-color="#78D5C0"/>
<stop offset="0.69" stop-color="#233E38"/>
<stop offset="1" stop-color="#000000"/>
</radialGradient>
<linearGradient id="ps_0_1_97" x1="4917.354" y1="548.515" x2="3821.144" y2="1637.459" gradientUnits="userSpaceOnUse">
<stop stop-color="#000000"/>
<stop offset="0.03" stop-color="#06030A"/>
<stop offset="0.31" stop-color="#351F5F"/>
<stop offset="0.44" stop-color="#482A80"/>
<stop offset="0.5" stop-color="#264F94"/>
<stop offset="0.57" stop-color="#0A6DA5"/>
<stop offset="0.6" stop-color="#0076A9"/>
<stop offset="0.67" stop-color="#004D6D"/>
<stop offset="0.73" stop-color="#002C3E"/>
<stop offset="0.78" stop-color="#00141C"/>
<stop offset="0.82" stop-color="#000507"/>
<stop offset="0.85" stop-color="#000000"/>
</linearGradient>
</defs>
</svg>
