<svg width="302" height="90" viewBox="0 0 302 90" fill="none" xmlns="http://www.w3.org/2000/svg" xmlns:xlink="http://www.w3.org/1999/xlink">
<rect  x="0" y="48.505" width="16.644" height="12.279" fill="#8F8E8D"/>
<rect  x="54.223" y="20.879" width="16.644" height="12.279" fill="#8F8E8D"/>
<path d="M28.872,33.157L41.995,33.157L41.995,46.484L52.494,46.484L52.494,-0.609L41.995,-0.609L41.995,20.879L28.872,20.879L28.872,-0.609L18.373,-0.609L18.373,20.879L0,20.879L0,33.157L18.373,33.157L28.872,33.157Z" clip-rule="evenodd" fill-rule="evenodd" fill="#8F8E8D"/>
<path d="M28.874,76.133L41.997,76.133L41.997,60.785L28.874,60.785L28.874,76.133ZM41.997,48.505L28.874,48.505L28.874,35.179L18.375,35.179L18.375,76.133L18.375,77.668L27.562,88.412L43.309,88.412L52.496,77.668L52.496,76.133L52.496,60.784L70.869,60.784L70.869,48.505L52.496,48.505L41.997,48.505Z" clip-rule="evenodd" fill-rule="evenodd" fill="#8F8E8D"/>
<path d="M140.342,45.061L129.989,20.729L126.074,20.729L126.074,68.191L132.653,68.191L132.654,41.828L143.072,68.191L146.93,68.191L146.93,20.729L140.342,20.729L140.342,45.061Z" clip-rule="evenodd" fill-rule="evenodd" fill="#FFFFFF"/>
<path d="M108.764,20.729L108.764,60.753L101.068,60.753L101.068,20.729L94.488,20.729L94.488,61.403L100.292,68.191L109.541,68.191L115.344,61.403L115.344,20.729L108.764,20.729Z" clip-rule="evenodd" fill-rule="evenodd" fill="#FFFFFF"/>
<path d="M174.11,28.166L174.11,20.729L168.626,20.729L162.047,20.729L156.563,20.729L156.563,28.166L162.047,28.166L162.047,60.754L156.563,60.754L156.563,68.191L174.11,68.191L174.11,60.754L168.626,60.754L168.626,28.166L174.11,28.166Z" clip-rule="evenodd" fill-rule="evenodd" fill="#FFFFFF"/>
<path d="M205.162,20.729L197.25,20.729L190.67,20.729L182.758,20.729L182.758,28.166L190.67,28.166L190.67,68.191L197.25,68.191L197.25,28.166L205.162,28.166L205.162,20.729Z" clip-rule="evenodd" fill-rule="evenodd" fill="#FFFFFF"/>
<path d="M229.427,20.729L223.683,41.492L217.941,20.729L211.141,20.729L220.393,50.654L220.393,68.191L226.973,68.191L226.973,50.654L236.226,20.729L229.427,20.729Z" clip-rule="evenodd" fill-rule="evenodd" fill="#FFFFFF"/>
<path d="M248.355,28.988L249.041,28.988C250.001,31.287 250.961,32.231 252.423,32.231C253.597,32.231 254.404,31.483 254.404,30.093C254.404,28.525 253.277,28.115 251.692,27.617C250.092,27.117 248.493,26.512 248.493,24.231C248.493,22.396 249.681,20.917 251.54,20.917C252.53,20.917 253.505,21.415 254.084,22.2L254.388,20.971L255.135,20.971L255.135,24.801L254.449,24.801C253.672,22.538 252.621,21.754 251.464,21.754C250.458,21.754 249.681,22.485 249.681,23.786C249.681,25.425 250.884,25.782 252.301,26.226C254.022,26.743 255.592,27.26 255.592,29.541C255.592,31.571 254.251,33.086 252.393,33.086C251.159,33.086 250.169,32.552 249.438,31.643L249.103,33.032L248.355,33.032L248.355,28.988Z" clip-rule="evenodd" fill-rule="evenodd" fill="#FFFFFF"/>
<path d="M265.86,24.659C267.003,24.659 267.643,25.55 267.643,27.206L267.643,31.874L268.786,31.874L268.786,32.801L265.495,32.801L265.495,31.874L266.469,31.874L266.469,27.812C266.469,27.046 266.378,26.476 266.089,26.119C265.89,25.888 265.617,25.799 265.266,25.799C264.306,25.799 263.361,27.1 263.361,28.383L263.361,31.874L264.336,31.874L264.336,32.801L261.213,32.801L261.213,31.874L262.173,31.874L262.173,27.812C262.173,27.046 262.097,26.476 261.808,26.119C261.595,25.888 261.336,25.799 260.985,25.799C260.011,25.799 259.081,27.1 259.081,28.383L259.081,31.874L260.041,31.874L260.041,32.801L256.75,32.801L256.75,31.874L257.893,31.874L257.893,25.71L256.75,25.71L256.75,24.783L259.051,24.783L259.051,26.85C259.858,25.211 260.726,24.659 261.563,24.659C262.615,24.659 263.24,25.336 263.331,26.779C264.153,25.193 265.007,24.659 265.86,24.659Z" clip-rule="evenodd" fill-rule="evenodd" fill="#FFFFFF"/>
<path d="M273.873,30.271L273.873,28.686C273.736,28.739 273.493,28.792 273.126,28.863C271.573,29.148 271.01,29.523 271.01,30.592C271.01,31.483 271.406,31.982 272.198,31.982C273.005,31.982 273.873,31.198 273.873,30.271ZM269.715,30.841C269.715,30.324 269.867,29.807 270.187,29.416C270.72,28.792 271.452,28.56 272.792,28.311C273.721,28.133 273.873,28.097 273.873,27.794L273.873,27.01C273.873,25.835 273.371,25.407 272.456,25.407C271.924,25.407 271.466,25.568 271.147,25.871C271.406,26.03 271.558,26.316 271.558,26.689C271.558,27.207 271.253,27.598 270.766,27.598C270.278,27.598 269.958,27.189 269.958,26.636C269.958,25.478 271.238,24.659 272.655,24.659C274.224,24.659 275.062,25.442 275.062,27.064L275.062,31.251C275.062,31.803 275.214,31.964 275.519,31.964C275.777,31.964 275.96,31.715 276.128,31.251L276.585,31.554C276.234,32.462 275.853,32.89 275.168,32.89C274.543,32.89 274.026,32.462 274.01,31.412L273.965,31.412C273.508,32.32 272.609,32.926 271.68,32.926C270.43,32.926 269.715,32.088 269.715,30.841Z" clip-rule="evenodd" fill-rule="evenodd" fill="#FFFFFF"/>
<path d="M276.645,31.875L277.94,31.875L277.94,21.523L276.645,21.523L276.645,20.561L279.128,20.561L279.128,31.875L280.408,31.875L280.408,32.801L276.645,32.801L276.645,31.875Z" clip-rule="evenodd" fill-rule="evenodd" fill="#FFFFFF"/>
<path d="M280.973,31.875L282.268,31.875L282.268,21.523L280.973,21.523L280.973,20.561L283.456,20.561L283.456,31.875L284.736,31.875L284.736,32.801L280.973,32.801L280.973,31.875Z" clip-rule="evenodd" fill-rule="evenodd" fill="#FFFFFF"/>
<path d="M248.004,49.691L249.696,49.691L249.696,39.909L248.004,39.909L248.004,39.001L256.521,39.001L256.521,42.707L255.926,42.707C255.469,40.302 255.225,39.909 254.265,39.909L250.975,39.909L250.975,44.453L252.376,44.453C253.26,44.453 253.413,44.257 253.611,42.636L254.235,42.636L254.235,47.179L253.611,47.179C253.443,45.487 253.26,45.255 252.376,45.255L250.975,45.255L250.975,49.691L252.834,49.691L252.834,50.618L248.004,50.618L248.004,49.691Z" clip-rule="evenodd" fill-rule="evenodd" fill="#FFFFFF"/>
<path d="M258.363,39.785C258.363,39.197 258.714,38.752 259.232,38.752C259.704,38.752 260.07,39.161 260.07,39.767C260.07,40.373 259.704,40.782 259.232,40.782C258.729,40.782 258.363,40.409 258.363,39.785ZM257.434,49.691L258.729,49.691L258.729,43.526L257.434,43.526L257.434,42.6L259.902,42.6L259.902,49.691L261.197,49.691L261.197,50.617L257.434,50.617L257.434,49.691Z" clip-rule="evenodd" fill-rule="evenodd" fill="#FFFFFF"/>
<path d="M261.973,49.691L263.115,49.691L263.115,43.526L261.973,43.526L261.973,42.6L264.273,42.6L264.273,44.667C265.081,43.027 265.979,42.476 266.863,42.476C268.02,42.476 268.721,43.366 268.721,45.006L268.721,49.691L269.864,49.691L269.864,50.618L266.497,50.618L266.497,49.691L267.548,49.691L267.548,45.629C267.548,44.88 267.442,44.311 267.152,43.972C266.939,43.705 266.634,43.598 266.283,43.598C265.278,43.598 264.303,44.899 264.303,46.199L264.303,49.691L265.34,49.691L265.34,50.618L261.973,50.618L261.973,49.691Z" clip-rule="evenodd" fill-rule="evenodd" fill="#FFFFFF"/>
<path d="M274.971,48.088L274.971,46.503C274.834,46.556 274.59,46.609 274.224,46.68C272.671,46.965 272.108,47.339 272.108,48.409C272.108,49.3 272.503,49.798 273.295,49.798C274.103,49.798 274.971,49.015 274.971,48.088ZM270.813,48.658C270.813,48.141 270.965,47.624 271.284,47.233C271.818,46.609 272.55,46.377 273.89,46.127C274.819,45.95 274.971,45.914 274.971,45.611L274.971,44.827C274.971,43.651 274.469,43.224 273.554,43.224C273.021,43.224 272.564,43.384 272.244,43.687C272.503,43.847 272.656,44.133 272.656,44.506C272.656,45.024 272.351,45.415 271.863,45.415C271.376,45.415 271.056,45.006 271.056,44.453C271.056,43.295 272.336,42.475 273.752,42.475C275.321,42.475 276.16,43.259 276.16,44.88L276.16,49.068C276.16,49.62 276.312,49.78 276.617,49.78C276.875,49.78 277.059,49.531 277.226,49.068L277.683,49.371C277.332,50.279 276.951,50.707 276.266,50.707C275.641,50.707 275.124,50.279 275.108,49.228L275.063,49.228C274.606,50.136 273.707,50.742 272.778,50.742C271.528,50.742 270.813,49.905 270.813,48.658Z" clip-rule="evenodd" fill-rule="evenodd" fill="#FFFFFF"/>
<path d="M277.984,49.691L279.127,49.691L279.127,43.526L277.984,43.526L277.984,42.6L280.285,42.6L280.285,44.667C281.092,43.027 281.99,42.476 282.875,42.476C284.032,42.476 284.733,43.366 284.733,45.006L284.733,49.691L285.875,49.691L285.875,50.618L282.509,50.618L282.509,49.691L283.56,49.691L283.56,45.629C283.56,44.88 283.454,44.311 283.164,43.972C282.95,43.705 282.646,43.598 282.295,43.598C281.29,43.598 280.315,44.899 280.315,46.199L280.315,49.691L281.351,49.691L281.351,50.618L277.984,50.618L277.984,49.691Z" clip-rule="evenodd" fill-rule="evenodd" fill="#FFFFFF"/>
<path d="M286.715,46.769C286.715,44.239 288.117,42.457 290.173,42.457C291.666,42.457 292.763,43.686 292.763,44.721C292.763,45.415 292.427,45.95 291.879,45.95C291.361,45.95 291.056,45.504 291.056,44.987C291.056,44.56 291.3,44.168 291.636,44.025C291.391,43.598 290.904,43.206 290.127,43.206C288.878,43.206 287.994,44.506 287.994,46.591C287.994,48.622 288.817,49.851 290.188,49.851C291.148,49.851 291.818,49.21 292.199,48.016L292.854,48.016C292.457,49.816 291.376,50.778 289.899,50.778C287.994,50.778 286.715,49.085 286.715,46.769Z" clip-rule="evenodd" fill-rule="evenodd" fill="#FFFFFF"/>
<path d="M295.201,45.914L298.782,45.914C298.675,44.24 298.141,43.223 297.091,43.223C296.084,43.223 295.353,44.132 295.201,45.914ZM295.185,46.681C295.216,48.764 296.084,49.834 297.38,49.834C298.217,49.834 298.918,49.46 299.33,48.266L299.97,48.266C299.558,49.923 298.538,50.778 297.121,50.778C295.124,50.778 293.906,49.085 293.906,46.698C293.906,44.257 295.338,42.458 297.166,42.458C299.162,42.458 300.046,44.56 300,46.681L295.185,46.681Z" clip-rule="evenodd" fill-rule="evenodd" fill="#FFFFFF"/>
<path d="M252.498,67.508C254.433,67.508 255.179,66.76 255.179,65.031C255.179,63.678 254.326,62.751 252.438,62.751L250.975,62.751L250.975,67.508L252.498,67.508ZM252.483,61.896C254.083,61.896 254.722,61.023 254.722,59.652C254.722,58.44 254.22,57.727 252.544,57.727L250.975,57.727L250.975,61.896L252.483,61.896ZM248.004,67.508L249.695,67.508L249.695,57.727L248.004,57.727L248.004,56.819L252.406,56.819C255.362,56.819 256.093,58.137 256.093,59.616C256.093,60.56 255.561,61.878 253.595,62.288L253.595,62.342C255.591,62.52 256.566,63.713 256.566,65.139C256.566,66.814 255.728,68.435 252.422,68.435L248.004,68.435L248.004,67.508Z" clip-rule="evenodd" fill-rule="evenodd" fill="#FFFFFF"/>
<path d="M261.944,65.905L261.944,64.319C261.807,64.373 261.563,64.426 261.197,64.497C259.643,64.782 259.08,65.156 259.08,66.226C259.08,67.117 259.476,67.615 260.268,67.615C261.076,67.615 261.944,66.832 261.944,65.905ZM257.785,66.475C257.785,65.958 257.937,65.441 258.257,65.05C258.791,64.426 259.522,64.194 260.862,63.944C261.791,63.767 261.944,63.731 261.944,63.428L261.944,62.644C261.944,61.468 261.441,61.041 260.527,61.041C259.994,61.041 259.537,61.201 259.217,61.504C259.476,61.664 259.629,61.95 259.629,62.323C259.629,62.841 259.323,63.232 258.836,63.232C258.349,63.232 258.029,62.823 258.029,62.27C258.029,61.112 259.308,60.292 260.725,60.292C262.294,60.292 263.132,61.076 263.132,62.697L263.132,66.885C263.132,67.437 263.285,67.597 263.589,67.597C263.848,67.597 264.031,67.348 264.199,66.885L264.656,67.188C264.305,68.096 263.924,68.524 263.239,68.524C262.614,68.524 262.097,68.096 262.081,67.045L262.036,67.045C261.579,67.953 260.68,68.559 259.75,68.559C258.501,68.559 257.785,67.722 257.785,66.475Z" clip-rule="evenodd" fill-rule="evenodd" fill="#FFFFFF"/>
<path d="M264.961,67.508L266.104,67.508L266.104,61.343L264.961,61.343L264.961,60.417L267.262,60.417L267.262,62.484C268.069,60.845 268.968,60.293 269.852,60.293C271.009,60.293 271.71,61.184 271.71,62.823L271.71,67.508L272.853,67.508L272.853,68.435L269.485,68.435L269.485,67.508L270.537,67.508L270.537,63.446C270.537,62.698 270.431,62.128 270.141,61.79C269.927,61.522 269.623,61.415 269.272,61.415C268.266,61.415 267.292,62.716 267.292,64.016L267.292,67.508L268.328,67.508L268.328,68.435L264.961,68.435L264.961,67.508Z" clip-rule="evenodd" fill-rule="evenodd" fill="#FFFFFF"/>
<path d="M277.649,63.571L280.026,67.509L280.895,67.509L280.895,68.435L277.772,68.435L277.772,67.526L278.686,67.526L276.873,64.444L275.76,65.762L275.76,67.509L276.705,67.509L276.705,68.435L273.43,68.435L273.43,67.509L274.572,67.509L274.572,57.157L273.43,57.157L273.43,56.195L275.76,56.195L275.76,64.765L278.533,61.325L277.39,61.325L277.39,60.417L280.559,60.417L280.559,61.344L279.524,61.344L277.649,63.571Z" clip-rule="evenodd" fill-rule="evenodd" fill="#FFFFFF"/>
</svg>
