<svg width="348" height="266" viewBox="0 0 348 266" fill="none" xmlns="http://www.w3.org/2000/svg" xmlns:xlink="http://www.w3.org/1999/xlink">
<path d="M138.175,211.888L168.971,216.719C186.992,219.496 205.03,222.273 223.032,225.198C228.26,225.919 233.012,228.599 236.308,232.687C239.604,236.776 241.194,241.962 240.754,247.179C240.312,252.395 237.872,257.246 233.936,260.733C230,264.22 224.864,266.078 219.59,265.925C190.721,265.986 161.86,265.986 133.005,265.925C116.925,265.851 101.807,261.75 87.491,254.531C77.879,249.68 68.155,245.034 58.561,240.174C48.707,235.139 37.758,232.577 26.673,232.714C18.759,232.788 10.808,232.714 2.932,232.769C0.991,232.769 0.132,232.584 0.132,230.242C0.132,221.644 0.011,221.542 8.652,221.671C19.571,221.847 30.527,220.894 41.39,222.828C49.265,224.315 56.891,226.885 64.049,230.465C76.759,236.611 89.096,243.553 102.218,248.866C111.591,252.705 121.622,254.719 131.763,254.799C160.861,254.956 189.959,254.892 219.048,254.873C224.76,254.873 228.884,251.171 229.21,246.052C229.538,240.933 226.15,237.027 220.542,236.148C191.163,231.501 161.776,226.901 132.379,222.347C128.706,221.858 125.194,220.541 122.114,218.496C107.406,208.586 92.615,198.806 77.739,189.155C75.686,187.822 75.322,186.896 76.918,184.999C78.514,183.101 79.718,179.334 81.659,178.954C83.6,178.575 86.119,181.324 88.331,182.777C101.2,191.256 114.051,199.753 127.06,208.352C129.178,205.427 131.39,202.604 132.865,199.336C135.963,192.496 133.985,185.332 127.611,180.241C117.28,171.994 107.08,163.58 96.506,155.647C78.98,142.485 59.943,140.43 40.167,149.964C28.437,155.629 16.529,160.035 3.38,160.701C0.851,160.831 -0.185,160.331 0.132,157.61C0.431,155.12 -0.596,152.056 0.58,150.205C1.756,148.354 5.088,149.501 7.458,149.224C15.903,148.26 24.087,145.713 31.572,141.717C44.414,134.877 57.889,131.535 72.812,133.701C72.812,124.815 72.812,116.115 72.812,107.312C72.812,101.453 74.538,99.759 80.529,99.759L266.242,99.759C272.176,99.759 273.894,101.471 273.894,107.377L273.894,191.876C273.894,197.781 272.168,199.494 266.232,199.494C227.036,199.494 187.816,199.494 148.571,199.494C145.846,199.494 144.045,199.725 143.363,202.872C142.682,206.019 140.293,208.62 138.175,211.888ZM113.911,155.083C121.377,161.007 128.105,166.403 134.89,171.744C139.557,175.261 142.891,180.238 144.353,185.869C144.838,187.775 145.529,188.368 147.535,188.359C174.057,188.284 200.58,188.284 227.102,188.359C229.098,188.359 229.706,187.831 230.172,185.822C233.42,172.031 241.838,162.599 255.126,157.351C257.618,156.369 261.38,157.027 262.462,154.657C263.544,152.287 262.61,148.983 262.778,146.114C262.89,144.151 262.302,143.54 260.26,143.041C244.264,139.144 234.128,129.156 230.21,113.301C229.658,111.042 228.846,110.7 226.84,110.709C191.123,110.752 155.411,110.752 119.706,110.709C117.84,110.709 117.028,110.987 116.552,113.134C113.948,124.936 107.22,133.747 96.469,139.57C95.853,139.903 94.892,139.94 94.817,141.004C100.958,144.235 105.923,149.085 111.904,153.315C111.904,150.464 111.998,148.168 111.904,145.91C111.82,144.383 112.324,143.929 113.864,143.966C117.812,144.068 121.769,143.966 125.726,143.966C134.582,143.966 134.516,143.966 134.33,152.796C134.33,154.648 133.835,155.129 132.006,155.092C126.295,155.009 120.546,155.083 113.874,155.083L113.911,155.083ZM105.512,110.755C98.886,110.755 92.288,110.755 85.709,110.755C84.328,110.755 83.926,111.19 83.945,112.532C84.001,119.012 83.945,125.593 83.945,132.165C89.296,131.172 94.217,128.595 98.062,124.773C101.907,120.951 104.494,116.064 105.484,110.755L105.512,110.755ZM241.212,110.755C242.706,120.567 251.738,130.101 261.006,132.044C262.554,132.359 262.76,131.896 262.75,130.582C262.702,124.596 262.702,118.604 262.75,112.607C262.75,111.348 262.508,110.755 261.052,110.755C254.418,110.792 247.82,110.755 241.184,110.755L241.212,110.755ZM262.732,166.995C252.962,168.365 243.274,177.353 241.324,186.581C241.006,188.053 241.324,188.359 242.752,188.349C248.79,188.303 254.884,188.275 260.876,188.349C262.498,188.349 262.742,187.748 262.742,186.331C262.666,179.908 262.704,173.465 262.704,166.995L262.732,166.995Z" fill="#FFFFFF" fill-opacity="0.75"/>
<path d="M323.972,155.093C318.848,155.093 313.706,155.093 308.611,155.093C303.814,155.093 301.92,153.159 301.789,148.364C300.679,108.248 275.043,75.241 236.286,64.133C229.358,62.142 222.193,61.071 214.981,60.949C207.767,60.82 200.544,61.06 193.339,60.81C190.437,60.709 189.812,61.736 190.045,64.263C190.157,66.452 190.157,68.646 190.045,70.835C189.952,76.592 186.153,78.971 180.937,76.388C160.785,66.441 140.652,56.457 120.538,46.436C119.297,45.816 118.065,45.168 116.805,44.584C114.136,43.4 111.813,41.928 111.869,38.596C111.925,35.458 114.146,34.088 116.656,32.857C127.472,27.553 138.251,22.166 149.039,16.807C159.416,11.66 169.794,6.511 180.171,1.358C186.405,-1.733 189.97,0.516 190.082,7.458C190.082,10.411 188.738,14.456 190.67,16.02C192.602,17.584 196.428,16.566 199.424,16.511C216.576,16.187 233.673,16.603 250.145,21.981C302.001,38.901 333.42,73.908 344.4,127.001C345.766,134.016 346.438,141.146 346.408,148.29C346.408,152.918 344.392,154.982 339.604,155.01C334.406,155.112 329.208,155.093 323.972,155.093ZM178.902,63.041C178.902,60.588 178.902,58.746 178.902,56.904C178.902,51.721 180.769,49.87 186.079,49.86C195.411,49.86 204.743,49.573 214.001,49.925C251.675,51.341 280.26,68.252 299.671,100.223C307.091,112.541 311.477,126.422 312.476,140.737C312.67,143.181 313.286,144.273 316.114,144.125C321.714,143.856 327.314,144.014 332.912,144.069C334.528,144.069 335.414,143.958 335.18,141.885C334.724,136.483 333.996,131.108 332.996,125.779C320.38,67.253 271.011,27.72 210.566,27.664C202.167,27.664 193.768,27.664 185.435,27.664C181.077,27.664 179.033,25.6 178.902,21.324C178.902,19.186 178.902,17.057 178.902,14.493L129.973,38.762L178.902,63.041Z" fill="#FFFFFF" fill-opacity="0.75"/>
<path d="M145.39,149.538C145.39,144.059 147.028,138.703 150.097,134.147C153.166,129.591 157.529,126.041 162.632,123.944C167.736,121.847 173.352,121.298 178.77,122.367C184.189,123.436 189.165,126.075 193.072,129.949C196.978,133.823 199.638,138.76 200.716,144.134C201.794,149.508 201.24,155.078 199.126,160.14C197.012,165.202 193.432,169.529 188.839,172.573C184.246,175.617 178.846,177.242 173.321,177.242C165.919,177.225 158.824,174.301 153.59,169.109C148.355,163.917 145.407,156.881 145.39,149.538L145.39,149.538ZM190.063,149.686C190.093,146.393 189.135,143.164 187.31,140.412C185.486,137.659 182.878,135.507 179.818,134.228C176.757,132.948 173.383,132.6 170.123,133.228C166.862,133.855 163.864,135.429 161.507,137.751C159.151,140.072 157.544,143.036 156.89,146.265C156.235,149.494 156.563,152.844 157.833,155.888C159.102,158.931 161.254,161.533 164.017,163.36C166.78,165.188 170.028,166.16 173.349,166.153C177.756,166.132 181.978,164.393 185.104,161.313C188.231,158.233 190.012,154.057 190.063,149.686L190.063,149.686Z" fill="#FFFFFF" fill-opacity="0.75"/>
<path d="M223.256,155.084L220.811,155.084C211.572,155.084 211.61,155.084 212.412,145.735C212.524,144.421 212.842,143.967 214.204,143.976C220.488,144.044 226.765,144.044 233.037,143.976C234.399,143.976 234.987,144.374 234.8,145.735C234.786,145.849 234.786,145.964 234.8,146.077C235.248,155.084 235.248,155.084 226.075,155.084L223.256,155.084Z" fill="#FFFFFF" fill-opacity="0.75"/>
</svg>
