<svg width="356" height="98" viewBox="0 0 356 98" fill="none" xmlns="http://www.w3.org/2000/svg" xmlns:xlink="http://www.w3.org/1999/xlink">
<path d="M70.872,37.824L26.598,49.695L26.598,38.619L70.872,26.748L70.872,37.824Z" fill="#8C8E8E"/>
<path d="M70.872,58.856L26.598,70.728L26.598,59.652L70.872,47.78L70.872,58.856Z" fill="#8C8E8E"/>
<path d="M48.723,97.446C39.086,97.446 29.666,94.588 21.654,89.234C13.641,83.881 7.397,76.271 3.709,67.368C0.021,58.465 -0.944,48.669 0.936,39.218C2.816,29.766 7.457,21.085 14.271,14.271C21.085,7.457 29.766,2.816 39.218,0.936C48.669,-0.944 58.465,0.021 67.368,3.709C76.271,7.397 83.881,13.641 89.234,21.654C94.588,29.666 97.446,39.086 97.446,48.723C97.43,61.64 92.292,74.024 83.158,83.158C74.024,92.292 61.64,97.43 48.723,97.446ZM48.723,9.986C41.054,9.986 33.558,12.26 27.182,16.521C20.807,20.782 15.838,26.839 12.905,33.924C9.972,41.009 9.206,48.805 10.704,56.326C12.202,63.847 15.897,70.754 21.321,76.175C26.746,81.595 33.656,85.285 41.178,86.777C48.7,88.27 56.495,87.498 63.578,84.559C70.662,81.621 76.714,76.647 80.97,70.268C85.226,63.889 87.495,56.391 87.489,48.723C87.473,38.449 83.383,28.601 76.116,21.339C68.848,14.077 58.997,9.994 48.723,9.986Z" fill="#8C8E8E"/>
<path d="M140.749,65.867C136.507,69.491 132.618,69.432 127.257,69.432L114.148,69.432L114.148,28.191L126.874,28.191C131.823,28.191 136.507,28.191 140.101,32.197C141.747,34.074 142.621,36.506 142.546,39.002C142.551,40.668 142.109,42.304 141.264,43.74C140.419,45.176 139.203,46.358 137.744,47.162C139.799,47.753 141.593,49.026 142.829,50.771C144.066,52.516 144.672,54.63 144.549,56.765C144.611,58.467 144.303,60.161 143.647,61.733C142.991,63.304 142.002,64.715 140.749,65.867ZM128.318,37.411L124.252,37.411L124.252,43.833L128.259,43.833C130.556,43.833 132.442,43.155 132.442,40.534C132.442,37.912 130.497,37.411 128.318,37.411ZM129.643,52.641L124.341,52.641L124.341,60.182L129.643,60.182C132.265,60.182 134.592,59.269 134.592,56.205C134.592,53.142 132,52.641 129.643,52.641Z" fill="#716C6D"/>
<path d="M166.463,69.432L166.463,52.582C166.463,49.253 165.521,46.131 161.514,46.131C157.508,46.131 156.33,48.752 156.33,52.258L156.33,69.432L147.051,69.432L147.051,28.191L156.33,28.191L156.33,41.27C157.182,39.956 158.374,38.898 159.78,38.208C161.186,37.518 162.752,37.223 164.313,37.352C165.878,37.304 167.435,37.584 168.886,38.172C170.337,38.76 171.648,39.645 172.738,40.769C175.684,44.157 175.684,47.839 175.684,52.081L175.684,69.373L166.463,69.432Z" fill="#716C6D"/>
<path d="M202.788,69.432L202.788,66.074C201.801,67.538 200.445,68.718 198.858,69.493C197.271,70.269 195.507,70.613 193.745,70.492C184.23,70.492 178.191,63.128 178.191,53.937C178.076,51.818 178.391,49.698 179.12,47.705C179.848,45.712 180.973,43.887 182.427,42.342C183.882,40.797 185.635,39.563 187.58,38.715C189.526,37.868 191.623,37.424 193.745,37.411C195.498,37.313 197.248,37.661 198.829,38.424C200.411,39.186 201.773,40.338 202.788,41.771L202.788,38.472L212.126,38.472L212.126,69.432L202.788,69.432ZM194.982,46.072C193.947,46.067 192.922,46.272 191.969,46.676C191.016,47.079 190.155,47.673 189.439,48.419C188.723,49.166 188.166,50.051 187.802,51.02C187.438,51.988 187.275,53.021 187.323,54.055C187.258,55.11 187.41,56.168 187.769,57.163C188.128,58.158 188.687,59.069 189.411,59.839C190.136,60.61 191.01,61.224 191.981,61.643C192.952,62.063 193.998,62.28 195.056,62.28C196.113,62.28 197.16,62.063 198.131,61.643C199.101,61.224 199.976,60.61 200.7,59.839C201.425,59.069 201.984,58.158 202.343,57.163C202.702,56.168 202.854,55.11 202.788,54.055C202.842,53.007 202.678,51.96 202.306,50.98C201.935,49.999 201.365,49.105 200.632,48.355C199.899,47.605 199.018,47.016 198.046,46.623C197.074,46.23 196.03,46.042 194.982,46.072Z" fill="#716C6D"/>
<path d="M225.203,52.435L225.203,69.431L215.953,69.431L215.953,38.472L224.79,38.472L224.79,41.771C225.481,40.34 226.595,39.154 227.98,38.375C229.365,37.595 230.956,37.259 232.538,37.411L232.538,46.72C228.443,46.838 225.203,47.633 225.203,52.435Z" fill="#716C6D"/>
<path d="M257.663,69.432L257.663,66.073C256.683,67.538 255.333,68.718 253.75,69.494C252.167,70.269 250.408,70.614 248.649,70.492C239.105,70.492 233.066,63.128 233.066,53.937C232.95,51.816 233.267,49.693 233.997,47.698C234.727,45.703 235.855,43.877 237.313,42.331C238.77,40.785 240.527,39.552 242.476,38.707C244.424,37.861 246.525,37.42 248.649,37.411C250.398,37.318 252.141,37.669 253.718,38.431C255.294,39.193 256.651,40.342 257.663,41.771L257.663,38.472L266.913,38.472L266.913,69.432L257.663,69.432ZM249.857,46.072C248.825,46.071 247.803,46.279 246.853,46.684C245.904,47.09 245.047,47.684 244.333,48.43C243.62,49.176 243.066,50.06 242.704,51.026C242.342,51.993 242.18,53.024 242.228,54.055C242.228,55.068 242.427,56.072 242.815,57.008C243.203,57.945 243.771,58.795 244.488,59.512C245.205,60.229 246.056,60.797 246.992,61.185C247.928,61.573 248.932,61.773 249.945,61.773C250.959,61.773 251.963,61.573 252.899,61.185C253.835,60.797 254.686,60.229 255.403,59.512C256.12,58.795 256.688,57.945 257.076,57.008C257.464,56.072 257.663,55.068 257.663,54.055C257.717,53.007 257.553,51.96 257.181,50.979C256.81,49.999 256.24,49.105 255.507,48.355C254.774,47.605 253.893,47.015 252.921,46.622C251.949,46.229 250.905,46.042 249.857,46.072Z" fill="#716C6D"/>
<path d="M283.648,45.512L283.648,69.432L274.398,69.432L274.398,45.512L269.832,45.512L269.832,38.472L274.398,38.472L274.398,28.162L283.648,28.162L283.648,38.472L288.125,38.472L288.125,45.512L283.648,45.512Z" fill="#716C6D"/>
<path d="M319.235,53.053C315.844,55.778 311.516,57.059 307.187,56.617L302.621,56.617L302.621,69.549L292.547,69.549L292.547,28.309L306.038,28.309C310.28,28.309 315.347,28.485 318.735,31.254C320.3,32.605 321.548,34.285 322.389,36.174C323.229,38.064 323.641,40.116 323.595,42.183C323.637,44.195 323.272,46.195 322.523,48.062C321.774,49.93 320.656,51.627 319.235,53.053ZM306.539,37.529L302.621,37.529L302.621,47.161L306.922,47.161C310.369,47.161 313.491,46.366 313.491,42.183C313.491,38 309.986,37.411 306.539,37.411L306.539,37.529Z" fill="#8C8E8E"/>
<path d="M355.789,56.765L332.577,56.765C332.838,58.471 333.724,60.02 335.063,61.109C336.403,62.198 338.1,62.749 339.823,62.656C340.932,62.673 342.028,62.412 343.01,61.898C343.993,61.383 344.832,60.631 345.45,59.711L354.935,59.711C353.765,62.793 351.702,65.457 349.01,67.362C346.318,69.267 343.12,70.326 339.823,70.404C336.523,70.473 333.278,69.553 330.506,67.762C327.734,65.97 325.561,63.39 324.269,60.353C322.976,57.315 322.623,53.961 323.254,50.721C323.886,47.481 325.473,44.505 327.811,42.175C330.149,39.845 333.131,38.269 336.373,37.65C339.616,37.03 342.969,37.396 346.001,38.699C349.034,40.003 351.606,42.184 353.388,44.963C355.169,47.742 356.077,50.991 355.996,54.29C356.002,55.12 355.933,55.948 355.789,56.765ZM339.706,45.217C338.101,45.141 336.521,45.63 335.24,46.599C333.959,47.568 333.058,48.955 332.695,50.52L346.746,50.52C346.376,48.953 345.47,47.565 344.184,46.596C342.898,45.628 341.314,45.14 339.706,45.217Z" fill="#8C8E8E"/>
</svg>
