<svg width="242" height="278" viewBox="0 0 242 278" fill="none" xmlns="http://www.w3.org/2000/svg" xmlns:xlink="http://www.w3.org/1999/xlink">
<path d="M134.247,116.25L134.247,122.728L142.952,122.728L142.952,130.589L133.78,130.589C132.862,135.987 130.617,139.918 127.046,142.381C123.474,144.844 118.087,146.065 110.886,146.044L110.886,150.557C110.886,153.222 111.44,155.328 112.556,156.846C113.672,158.363 115.571,159.141 118.262,159.141C120.833,159.141 122.685,158.418 123.801,156.971C124.917,155.525 125.51,153.41 125.51,150.627L136.661,150.627C136.545,156.356 134.915,160.742 131.77,163.787C128.626,166.832 124.141,168.349 118.317,168.339C112.266,168.339 107.636,166.722 104.428,163.488C101.221,160.255 99.62,155.538 99.625,149.338L99.625,138.01C105.745,138.01 110.261,137.856 113.173,137.546C116.093,137.232 118.261,136.564 119.694,135.542C121.24,134.315 122.252,132.545 122.519,130.597L96.887,130.597L96.887,122.736L122.946,122.736L122.946,116.258L96.887,116.258L96.887,107.909L142.952,107.909L142.952,116.258L134.247,116.25Z" fill="#FFFFFF" fill-opacity="0.75" stroke="#FFFFFF" stroke-opacity="0.75" stroke-width="0.75" stroke-miterlimit="3.999327"/>
<path d="M119.661,207.071C110.52,207.053 101.473,205.239 93.041,201.734C84.609,198.229 76.958,193.103 70.528,186.649C64.098,180.195 59.017,172.542 55.576,164.13C52.135,155.718 50.403,146.713 50.479,137.633C50.717,99.632 81.889,68.91 119.993,69.13C129.157,69.135 138.228,70.943 146.685,74.45C155.141,77.958 162.813,83.094 169.26,89.564C175.706,96.033 180.798,103.707 184.242,112.143C187.686,120.578 189.414,129.608 189.325,138.71C189.032,176.68 157.773,207.347 119.661,207.071ZM120.056,81.645C112.526,81.628 105.066,83.098 98.112,85.968C91.158,88.838 84.847,93.053 79.546,98.366C74.244,103.68 70.059,109.987 67.232,116.92C64.405,123.854 62.993,131.277 63.078,138.757C63.189,169.479 88.94,194.627 120.207,194.572C151.252,194.509 176.829,169.007 176.758,138.176C176.687,106.966 151.173,81.535 120.056,81.645Z" fill="#FFFFFF" fill-opacity="0.75" stroke="#FFFFFF" stroke-opacity="0.75" stroke-width="0.75" stroke-miterlimit="3.999327"/>
<path d="M119.449,243.917C116.403,241.008 113.292,238.155 110.317,235.175C107.151,232.031 107.017,228.187 109.739,225.577C112.461,222.967 116.165,223.289 119.18,226.277C125.511,232.566 131.842,238.899 138.173,245.277C141.339,248.469 141.339,251.873 138.118,255.065C131.845,261.311 125.543,267.529 119.212,273.719C115.991,276.863 112.224,276.989 109.549,274.183C107.017,271.525 107.31,267.893 110.341,264.805C112.628,262.501 114.946,260.229 117.241,257.941C117.289,257.895 117.241,257.753 117.241,257.337C111.939,256.927 106.574,256.645 101.256,255.851C51.645,248.413 10.786,209.422 2.16,160.156C-5.753,115.134 8.159,77.361 42.52,47.009C43.042,46.553 43.581,46.121 44.103,45.696C47.632,42.929 51.36,43.07 53.766,46.042C56.171,49.013 55.546,52.52 52.183,55.303C47.101,59.502 42.371,64.106 38.041,69.068C-0.886,113.696 5.761,184.282 52.286,220.923C71.025,235.679 92.242,243.721 116.157,244.617C117.115,244.655 118.072,244.617 119.03,244.617L119.449,243.917Z" fill="#FFFFFF" fill-opacity="0.75" stroke="#FFFFFF" stroke-opacity="0.75" stroke-width="0.75" stroke-miterlimit="3.999327"/>
<path d="M120.358,32.206C123.382,35.098 126.444,37.952 129.412,40.908C132.577,44.052 132.815,47.896 130.203,50.522C127.592,53.148 123.69,52.881 120.548,49.799C114.265,43.568 108.01,37.307 101.785,31.018C98.493,27.693 98.525,24.344 101.856,21.019C108.124,14.777 114.423,8.562 120.754,2.372C123.848,-0.639 127.513,-0.772 130.195,1.908C132.878,4.589 132.569,8.26 129.618,11.302C128.454,12.497 127.243,13.661 126.048,14.816C124.854,15.972 123.611,17.065 121.854,18.684C126.31,19.069 130.084,19.195 133.78,19.761C185.829,27.622 220.214,56.512 235.44,106.518C249.051,151.24 232.527,201.128 195.871,230.442C192.357,233.24 188.63,233.178 186.169,230.27C183.708,227.36 184.285,223.666 187.981,220.616C208.493,203.66 221.037,182.096 225.793,156.051C233.92,111.675 211.232,65.647 170.729,44.139C155.123,35.892 138.52,31.608 120.358,32.206Z" fill="#FFFFFF" fill-opacity="0.75" stroke="#FFFFFF" stroke-opacity="0.75" stroke-width="0.75" stroke-miterlimit="3.999327"/>
</svg>
