<svg width="302" height="78" viewBox="0 0 302 78" fill="none" xmlns="http://www.w3.org/2000/svg" xmlns:xlink="http://www.w3.org/1999/xlink">
<rect  x="0" y="41.995" width="16.644" height="10.499" fill="#8F8E8D"/>
<rect  x="54.223" y="18.373" width="16.644" height="10.499" fill="#8F8E8D"/>
<path d="M28.872,28.872L41.995,28.872L41.995,40.267L52.494,40.267L52.494,0L41.995,0L41.995,18.373L28.872,18.373L28.872,0L18.373,0L18.373,18.373L0,18.373L0,28.872L18.373,28.872L28.872,28.872Z" clip-rule="evenodd" fill-rule="evenodd" fill="#8F8E8D"/>
<path d="M28.874,65.618L41.997,65.618L41.997,52.495L28.874,52.495L28.874,65.618ZM41.997,41.995L28.874,41.995L28.874,30.601L18.375,30.601L18.375,65.618L18.375,66.931L27.562,76.117L43.309,76.117L52.496,66.931L52.496,65.618L52.496,52.494L70.869,52.494L70.869,41.995L52.496,41.995L41.997,41.995Z" clip-rule="evenodd" fill-rule="evenodd" fill="#8F8E8D"/>
<path d="M140.342,39.05L129.989,18.245L126.074,18.245L126.074,58.827L132.653,58.827L132.654,36.286L143.072,58.827L146.93,58.827L146.93,18.245L140.342,18.245L140.342,39.05Z" clip-rule="evenodd" fill-rule="evenodd" fill="#FFFFFF"/>
<path d="M108.764,18.245L108.764,52.468L101.068,52.468L101.068,18.245L94.488,18.245L94.488,53.024L100.292,58.828L109.541,58.828L115.344,53.024L115.344,18.245L108.764,18.245Z" clip-rule="evenodd" fill-rule="evenodd" fill="#FFFFFF"/>
<path d="M174.11,24.604L174.11,18.245L168.626,18.245L162.047,18.245L156.563,18.245L156.563,24.604L162.047,24.604L162.047,52.468L156.563,52.468L156.563,58.827L174.11,58.827L174.11,52.468L168.626,52.468L168.626,24.604L174.11,24.604Z" clip-rule="evenodd" fill-rule="evenodd" fill="#FFFFFF"/>
<path d="M205.162,18.245L197.25,18.245L190.67,18.245L182.758,18.245L182.758,24.604L190.67,24.604L190.67,58.827L197.25,58.827L197.25,24.604L205.162,24.604L205.162,18.245Z" clip-rule="evenodd" fill-rule="evenodd" fill="#FFFFFF"/>
<path d="M229.427,18.245L223.683,35.999L217.941,18.245L211.141,18.245L220.394,43.833L220.394,58.827L226.973,58.827L226.973,43.833L236.226,18.245L229.427,18.245Z" clip-rule="evenodd" fill-rule="evenodd" fill="#FFFFFF"/>
<path d="M248.355,25.307L249.041,25.307C250.001,27.272 250.961,28.08 252.423,28.08C253.597,28.08 254.404,27.44 254.404,26.252C254.404,24.911 253.277,24.561 251.692,24.134C250.093,23.707 248.493,23.19 248.493,21.24C248.493,19.67 249.681,18.406 251.54,18.406C252.53,18.406 253.505,18.832 254.084,19.503L254.389,18.452L255.135,18.452L255.135,21.727L254.45,21.727C253.672,19.792 252.621,19.122 251.464,19.122C250.458,19.122 249.681,19.747 249.681,20.859C249.681,22.261 250.884,22.565 252.301,22.945C254.022,23.387 255.592,23.83 255.592,25.78C255.592,27.516 254.251,28.811 252.393,28.811C251.159,28.811 250.169,28.354 249.438,27.577L249.103,28.765L248.355,28.765L248.355,25.307Z" clip-rule="evenodd" fill-rule="evenodd" fill="#FFFFFF"/>
<path d="M265.86,21.605C267.003,21.605 267.643,22.367 267.643,23.784L267.643,27.775L268.785,27.775L268.785,28.568L265.495,28.568L265.495,27.775L266.469,27.775L266.469,24.302C266.469,23.647 266.378,23.159 266.088,22.855C265.89,22.656 265.617,22.581 265.266,22.581C264.306,22.581 263.361,23.693 263.361,24.79L263.361,27.775L264.336,27.775L264.336,28.568L261.213,28.568L261.213,27.775L262.173,27.775L262.173,24.302C262.173,23.647 262.097,23.159 261.808,22.855C261.595,22.656 261.336,22.581 260.985,22.581C260.011,22.581 259.081,23.693 259.081,24.79L259.081,27.775L260.041,27.775L260.041,28.568L256.75,28.568L256.75,27.775L257.893,27.775L257.893,22.504L256.75,22.504L256.75,21.712L259.051,21.712L259.051,23.479C259.858,22.078 260.726,21.605 261.563,21.605C262.615,21.605 263.24,22.184 263.331,23.418C264.153,22.063 265.007,21.605 265.86,21.605Z" clip-rule="evenodd" fill-rule="evenodd" fill="#FFFFFF"/>
<path d="M273.874,26.404L273.874,25.049C273.736,25.094 273.493,25.14 273.127,25.201C271.573,25.444 271.01,25.764 271.01,26.679C271.01,27.44 271.406,27.867 272.198,27.867C273.005,27.867 273.874,27.197 273.874,26.404ZM269.715,26.892C269.715,26.45 269.868,26.008 270.187,25.673C270.72,25.14 271.452,24.942 272.792,24.728C273.721,24.576 273.874,24.545 273.874,24.286L273.874,23.616C273.874,22.611 273.371,22.245 272.457,22.245C271.924,22.245 271.467,22.383 271.147,22.642C271.406,22.778 271.558,23.023 271.558,23.342C271.558,23.784 271.253,24.119 270.766,24.119C270.278,24.119 269.958,23.769 269.958,23.296C269.958,22.306 271.238,21.605 272.655,21.605C274.224,21.605 275.062,22.275 275.062,23.662L275.062,27.242C275.062,27.714 275.214,27.851 275.519,27.851C275.777,27.851 275.961,27.639 276.128,27.242L276.585,27.501C276.234,28.278 275.854,28.644 275.168,28.644C274.544,28.644 274.026,28.278 274.01,27.38L273.965,27.38C273.508,28.156 272.609,28.674 271.68,28.674C270.43,28.674 269.715,27.958 269.715,26.892Z" clip-rule="evenodd" fill-rule="evenodd" fill="#FFFFFF"/>
<path d="M276.645,27.775L277.94,27.775L277.94,18.924L276.645,18.924L276.645,18.101L279.128,18.101L279.128,27.775L280.408,27.775L280.408,28.568L276.645,28.568L276.645,27.775Z" clip-rule="evenodd" fill-rule="evenodd" fill="#FFFFFF"/>
<path d="M280.973,27.775L282.268,27.775L282.268,18.924L280.973,18.924L280.973,18.101L283.456,18.101L283.456,27.775L284.736,27.775L284.736,28.568L280.973,28.568L280.973,27.775Z" clip-rule="evenodd" fill-rule="evenodd" fill="#FFFFFF"/>
<path d="M248.004,43.009L249.696,43.009L249.696,34.645L248.004,34.645L248.004,33.869L256.52,33.869L256.52,37.037L255.926,37.037C255.469,34.981 255.225,34.645 254.265,34.645L250.975,34.645L250.975,38.53L252.376,38.53C253.26,38.53 253.413,38.362 253.611,36.977L254.235,36.977L254.235,40.861L253.611,40.861C253.443,39.414 253.26,39.216 252.376,39.216L250.975,39.216L250.975,43.009L252.834,43.009L252.834,43.802L248.004,43.802L248.004,43.009Z" clip-rule="evenodd" fill-rule="evenodd" fill="#FFFFFF"/>
<path d="M258.363,34.539C258.363,34.036 258.714,33.655 259.232,33.655C259.704,33.655 260.07,34.005 260.07,34.523C260.07,35.042 259.704,35.392 259.232,35.392C258.729,35.392 258.363,35.072 258.363,34.539ZM257.434,43.009L258.729,43.009L258.729,37.738L257.434,37.738L257.434,36.946L259.902,36.946L259.902,43.009L261.197,43.009L261.197,43.801L257.434,43.801L257.434,43.009Z" clip-rule="evenodd" fill-rule="evenodd" fill="#FFFFFF"/>
<path d="M261.973,43.009L263.115,43.009L263.115,37.738L261.973,37.738L261.973,36.946L264.273,36.946L264.273,38.713C265.081,37.311 265.979,36.84 266.863,36.84C268.02,36.84 268.721,37.601 268.721,39.003L268.721,43.009L269.864,43.009L269.864,43.802L266.497,43.802L266.497,43.009L267.549,43.009L267.549,39.536C267.549,38.896 267.442,38.409 267.152,38.119C266.939,37.89 266.634,37.8 266.283,37.8C265.278,37.8 264.303,38.911 264.303,40.023L264.303,43.009L265.34,43.009L265.34,43.802L261.973,43.802L261.973,43.009Z" clip-rule="evenodd" fill-rule="evenodd" fill="#FFFFFF"/>
<path d="M274.971,41.638L274.971,40.283C274.834,40.328 274.59,40.374 274.224,40.435C272.671,40.678 272.108,40.998 272.108,41.913C272.108,42.674 272.503,43.101 273.295,43.101C274.103,43.101 274.971,42.431 274.971,41.638ZM270.813,42.125C270.813,41.684 270.965,41.242 271.284,40.907C271.818,40.374 272.55,40.176 273.89,39.962C274.819,39.81 274.971,39.779 274.971,39.52L274.971,38.85C274.971,37.845 274.469,37.479 273.554,37.479C273.021,37.479 272.564,37.617 272.244,37.876C272.503,38.012 272.656,38.256 272.656,38.576C272.656,39.018 272.351,39.353 271.863,39.353C271.376,39.353 271.056,39.003 271.056,38.53C271.056,37.54 272.336,36.839 273.752,36.839C275.321,36.839 276.159,37.509 276.159,38.896L276.159,42.476C276.159,42.948 276.312,43.085 276.617,43.085C276.875,43.085 277.058,42.872 277.226,42.476L277.683,42.735C277.332,43.512 276.951,43.878 276.266,43.878C275.641,43.878 275.124,43.512 275.108,42.613L275.063,42.613C274.606,43.39 273.707,43.908 272.778,43.908C271.528,43.908 270.813,43.192 270.813,42.125Z" clip-rule="evenodd" fill-rule="evenodd" fill="#FFFFFF"/>
<path d="M277.984,43.009L279.127,43.009L279.127,37.738L277.984,37.738L277.984,36.946L280.285,36.946L280.285,38.713C281.092,37.311 281.991,36.84 282.875,36.84C284.032,36.84 284.733,37.601 284.733,39.003L284.733,43.009L285.876,43.009L285.876,43.802L282.509,43.802L282.509,43.009L283.56,43.009L283.56,39.536C283.56,38.896 283.454,38.409 283.164,38.119C282.95,37.89 282.646,37.8 282.295,37.8C281.29,37.8 280.315,38.911 280.315,40.023L280.315,43.009L281.351,43.009L281.351,43.802L277.984,43.802L277.984,43.009Z" clip-rule="evenodd" fill-rule="evenodd" fill="#FFFFFF"/>
<path d="M286.715,40.511C286.715,38.347 288.117,36.824 290.173,36.824C291.666,36.824 292.763,37.875 292.763,38.759C292.763,39.353 292.427,39.81 291.879,39.81C291.361,39.81 291.056,39.429 291.056,38.987C291.056,38.622 291.3,38.287 291.635,38.165C291.391,37.799 290.904,37.464 290.127,37.464C288.878,37.464 287.994,38.576 287.994,40.358C287.994,42.095 288.817,43.146 290.188,43.146C291.148,43.146 291.818,42.598 292.199,41.577L292.854,41.577C292.457,43.116 291.376,43.939 289.899,43.939C287.994,43.939 286.715,42.491 286.715,40.511Z" clip-rule="evenodd" fill-rule="evenodd" fill="#FFFFFF"/>
<path d="M295.201,39.779L298.781,39.779C298.675,38.348 298.141,37.479 297.091,37.479C296.084,37.479 295.353,38.256 295.201,39.779ZM295.185,40.435C295.216,42.217 296.084,43.131 297.38,43.131C298.217,43.131 298.918,42.811 299.33,41.79L299.969,41.79C299.558,43.207 298.538,43.938 297.121,43.938C295.124,43.938 293.906,42.491 293.906,40.449C293.906,38.362 295.338,36.824 297.166,36.824C299.162,36.824 300.046,38.621 300,40.435L295.185,40.435Z" clip-rule="evenodd" fill-rule="evenodd" fill="#FFFFFF"/>
<path d="M252.498,58.244C254.433,58.244 255.179,57.604 255.179,56.126C255.179,54.969 254.326,54.176 252.438,54.176L250.975,54.176L250.975,58.244L252.498,58.244ZM252.483,53.445C254.083,53.445 254.722,52.699 254.722,51.526C254.722,50.49 254.22,49.88 252.544,49.88L250.975,49.88L250.975,53.445L252.483,53.445ZM248.004,58.244L249.696,58.244L249.696,49.88L248.004,49.88L248.004,49.104L252.406,49.104C255.362,49.104 256.093,50.231 256.093,51.495C256.093,52.302 255.561,53.43 253.595,53.78L253.595,53.826C255.591,53.979 256.566,54.999 256.566,56.218C256.566,57.65 255.728,59.036 252.422,59.036L248.004,59.036L248.004,58.244Z" clip-rule="evenodd" fill-rule="evenodd" fill="#FFFFFF"/>
<path d="M261.944,56.872L261.944,55.517C261.807,55.563 261.563,55.608 261.197,55.669C259.643,55.913 259.08,56.233 259.08,57.147C259.08,57.909 259.476,58.335 260.268,58.335C261.076,58.335 261.944,57.665 261.944,56.872ZM257.785,57.36C257.785,56.918 257.937,56.476 258.257,56.142C258.791,55.608 259.521,55.41 260.862,55.196C261.791,55.044 261.944,55.014 261.944,54.755L261.944,54.085C261.944,53.079 261.441,52.714 260.527,52.714C259.994,52.714 259.537,52.851 259.217,53.11C259.476,53.246 259.629,53.491 259.629,53.81C259.629,54.253 259.323,54.587 258.836,54.587C258.349,54.587 258.029,54.237 258.029,53.765C258.029,52.775 259.308,52.074 260.725,52.074C262.294,52.074 263.132,52.744 263.132,54.13L263.132,57.711C263.132,58.182 263.285,58.32 263.589,58.32C263.848,58.32 264.031,58.107 264.198,57.711L264.656,57.97C264.305,58.746 263.924,59.112 263.238,59.112C262.614,59.112 262.097,58.746 262.08,57.848L262.036,57.848C261.579,58.624 260.68,59.142 259.75,59.142C258.501,59.142 257.785,58.426 257.785,57.36Z" clip-rule="evenodd" fill-rule="evenodd" fill="#FFFFFF"/>
<path d="M264.961,58.244L266.104,58.244L266.104,52.972L264.961,52.972L264.961,52.181L267.262,52.181L267.262,53.948C268.069,52.546 268.968,52.074 269.851,52.074C271.009,52.074 271.71,52.836 271.71,54.238L271.71,58.244L272.852,58.244L272.852,59.036L269.485,59.036L269.485,58.244L270.537,58.244L270.537,54.77C270.537,54.13 270.43,53.643 270.141,53.354C269.927,53.125 269.622,53.034 269.272,53.034C268.266,53.034 267.292,54.146 267.292,55.258L267.292,58.244L268.328,58.244L268.328,59.036L264.961,59.036L264.961,58.244Z" clip-rule="evenodd" fill-rule="evenodd" fill="#FFFFFF"/>
<path d="M277.649,54.877L280.026,58.244L280.895,58.244L280.895,59.036L277.772,59.036L277.772,58.259L278.686,58.259L276.873,55.623L275.76,56.75L275.76,58.244L276.705,58.244L276.705,59.036L273.43,59.036L273.43,58.244L274.572,58.244L274.572,49.393L273.43,49.393L273.43,48.57L275.76,48.57L275.76,55.898L278.533,52.957L277.39,52.957L277.39,52.181L280.559,52.181L280.559,52.973L279.524,52.973L277.649,54.877Z" clip-rule="evenodd" fill-rule="evenodd" fill="#FFFFFF"/>
</svg>
