<svg width="222" height="44" viewBox="0 0 222 44" fill="none" xmlns="http://www.w3.org/2000/svg" xmlns:xlink="http://www.w3.org/1999/xlink">
<path d="M87.157,32.927C78.995,38.911 67.161,42.093 56.97,42.093C42.689,42.093 29.828,36.848 20.095,28.119C19.332,27.432 20.012,26.496 20.931,27.027C31.431,33.097 44.417,36.753 57.827,36.753C66.874,36.753 76.82,34.887 85.971,31.031C87.351,30.45 88.509,31.935 87.157,32.927L87.157,32.927Z" clip-rule="evenodd" fill-rule="evenodd" fill="#F79C34"/>
<path d="M90.554,29.075C89.509,27.747 83.653,28.446 81.022,28.759C80.225,28.855 80.101,28.162 80.819,27.661C85.491,24.401 93.148,25.342 94.038,26.434C94.934,27.534 93.801,35.16 89.424,38.799C88.75,39.358 88.109,39.06 88.408,38.321C89.394,35.876 91.599,30.405 90.554,29.075L90.554,29.075Z" clip-rule="evenodd" fill-rule="evenodd" fill="#F79C34"/>
<path d="M81.207,4.629L81.207,1.462C81.21,0.98 81.575,0.659 82.016,0.66L96.308,0.659C96.765,0.659 97.133,0.988 97.133,1.458L97.133,4.174C97.128,4.631 96.741,5.225 96.057,6.168L88.653,16.669C91.401,16.606 94.307,17.015 96.805,18.408C97.368,18.723 97.52,19.189 97.563,19.645L97.563,23.025C97.563,23.491 97.05,24.029 96.51,23.75C92.111,21.46 86.274,21.21 81.409,23.777C80.912,24.04 80.393,23.508 80.393,23.042L80.393,19.829C80.393,19.316 80.403,18.436 80.924,17.653L89.501,5.429L82.033,5.427C81.576,5.427 81.21,5.104 81.207,4.629L81.207,4.629ZM29.072,24.415L24.724,24.415C24.31,24.388 23.979,24.08 23.945,23.685L23.949,1.515C23.949,1.073 24.325,0.719 24.789,0.719L28.838,0.717C29.261,0.739 29.601,1.057 29.628,1.462L29.628,4.356L29.71,4.356C30.765,1.557 32.753,0.25 35.433,0.25C38.152,0.25 39.857,1.557 41.075,4.356C42.13,1.557 44.525,0.25 47.081,0.25C48.908,0.25 50.896,0.997 52.114,2.676C53.494,4.544 53.211,7.248 53.211,9.628L53.206,23.618C53.206,24.059 52.832,24.415 52.368,24.415L48.026,24.415C47.588,24.387 47.245,24.044 47.245,23.619L47.244,11.866C47.244,10.934 47.325,8.602 47.121,7.716C46.797,6.222 45.824,5.801 44.566,5.801C43.51,5.801 42.414,6.501 41.967,7.62C41.52,8.741 41.562,10.606 41.562,11.866L41.562,23.618C41.562,24.059 41.186,24.415 40.723,24.415L36.38,24.415C35.943,24.387 35.599,24.044 35.599,23.619L35.594,11.866C35.594,9.394 36.001,5.757 32.916,5.757C29.79,5.757 29.913,9.301 29.913,11.866L29.91,23.618C29.91,24.059 29.535,24.415 29.072,24.415L29.072,24.415ZM109.476,4.776C106.27,4.776 106.067,9.113 106.067,11.819C106.067,14.525 106.027,20.31 109.437,20.31C112.806,20.31 112.968,15.645 112.968,12.8C112.968,10.934 112.886,8.694 112.318,6.921C111.831,5.381 110.856,4.776 109.476,4.776L109.476,4.776ZM109.437,0.25C115.89,0.25 119.38,5.757 119.38,12.754C119.38,19.516 115.525,24.882 109.437,24.882C103.104,24.882 99.654,19.377 99.654,12.52C99.654,5.615 103.144,0.25 109.437,0.25L109.437,0.25ZM127.75,24.415L123.417,24.415C122.983,24.387 122.637,24.044 122.637,23.619L122.63,1.442C122.667,1.036 123.028,0.719 123.466,0.719L127.499,0.717C127.879,0.737 128.192,0.993 128.272,1.338L128.272,4.729L128.354,4.729C129.572,1.696 131.275,0.25 134.279,0.25C136.227,0.25 138.135,0.95 139.353,2.863C140.489,4.636 140.489,7.62 140.489,9.767L140.489,23.717C140.441,24.11 140.086,24.415 139.655,24.415L135.297,24.415C134.894,24.39 134.57,24.095 134.523,23.717L134.523,11.681C134.523,9.255 134.808,5.708 131.803,5.708C130.749,5.708 129.774,6.408 129.287,7.481C128.678,8.834 128.596,10.187 128.596,11.681L128.596,23.618C128.589,24.059 128.213,24.415 127.75,24.415L127.75,24.415ZM74.196,24.36C73.91,24.616 73.495,24.633 73.17,24.461C71.726,23.268 71.467,22.718 70.677,21.582C68.291,23.997 66.601,24.722 63.509,24.722C59.848,24.722 57,22.477 57,17.989C57,14.483 58.914,12.099 61.638,10.93C63.997,9.901 67.291,9.715 69.814,9.434L69.814,8.873C69.814,7.843 69.895,6.629 69.285,5.741C68.755,4.945 67.739,4.618 66.845,4.618C65.185,4.618 63.713,5.462 63.35,7.211C63.273,7.6 62.988,7.987 62.595,8.007L58.379,7.553C58.024,7.472 57.629,7.189 57.73,6.649C58.687,1.641 63.189,0.08 67.281,0.038L67.604,0.038C69.699,0.064 72.374,0.634 74.003,2.187C76.119,4.151 75.914,6.769 75.914,9.621L75.914,16.35C75.914,18.375 76.761,19.262 77.556,20.352C77.835,20.746 77.896,21.213 77.542,21.501C76.654,22.241 75.076,23.602 74.209,24.37L74.196,24.36ZM69.814,13.829C69.814,15.512 69.854,16.914 69.001,18.411C68.309,19.625 67.21,20.373 65.99,20.373C64.323,20.373 63.347,19.112 63.347,17.241C63.347,13.562 66.668,12.893 69.814,12.893L69.814,13.829ZM17.197,24.36C16.909,24.616 16.494,24.633 16.17,24.461C14.724,23.268 14.465,22.718 13.677,21.582C11.289,23.997 9.6,24.722 6.508,24.722C2.848,24.722 0,22.477 0,17.989C0,14.483 1.911,12.099 4.637,10.93C6.996,9.901 10.291,9.715 12.812,9.434L12.812,8.873C12.812,7.843 12.895,6.629 12.284,5.741C11.755,4.945 10.738,4.618 9.844,4.618C8.185,4.618 6.71,5.462 6.349,7.211C6.274,7.6 5.988,7.987 5.593,8.007L1.379,7.553C1.022,7.472 0.627,7.189 0.73,6.649C1.684,1.641 6.188,0.08 10.281,0.038L10.604,0.038C12.698,0.064 15.374,0.634 17.003,2.187C19.118,4.151 18.914,6.769 18.914,9.621L18.914,16.35C18.914,18.375 19.761,19.262 20.556,20.352C20.832,20.746 20.896,21.213 20.542,21.501C19.653,22.241 18.074,23.602 17.207,24.37L17.197,24.36ZM12.812,13.829C12.812,15.512 12.854,16.914 11.999,18.411C11.308,19.625 10.21,20.373 8.988,20.373C7.322,20.373 6.345,19.112 6.345,17.241C6.345,13.562 9.668,12.893 12.812,12.893L12.812,13.829ZM199.928,32.367L199.928,30.739C199.928,30.275 200.158,29.956 200.644,29.985C201.552,30.113 202.838,30.241 203.75,30.054C204.94,29.808 205.796,28.969 206.302,27.819C207.014,26.201 207.484,24.896 207.782,24.039L198.737,1.779C198.584,1.401 198.539,0.7 199.299,0.7L202.46,0.7C203.064,0.7 203.31,1.08 203.444,1.453L210.002,19.534L216.262,1.453C216.39,1.083 216.648,0.7 217.246,0.7L220.228,0.7C220.982,0.7 220.94,1.4 220.788,1.779L211.816,24.734C210.654,27.789 209.108,32.656 205.624,33.501C203.878,33.955 201.674,33.791 200.38,33.253C200.054,33.09 199.928,32.655 199.928,32.367L199.928,32.367ZM195.71,23.058C195.71,23.472 195.368,23.812 194.949,23.812L192.719,23.812C192.237,23.812 191.908,23.466 191.847,23.058L191.623,21.551C190.598,22.412 189.341,23.169 187.977,23.696C185.354,24.708 182.331,24.876 179.768,23.312C177.915,22.182 176.931,19.973 176.931,17.695C176.931,15.932 177.478,14.184 178.691,12.915C180.309,11.181 182.654,10.33 185.485,10.33C187.196,10.33 189.643,10.53 191.424,11.108L191.424,8.074C191.424,4.989 190.116,3.654 186.669,3.654C184.034,3.654 182.018,4.049 179.212,4.915C178.763,4.93 178.5,4.591 178.5,4.177L178.5,2.447C178.5,2.031 178.857,1.63 179.244,1.508C181.247,0.64 184.085,0.1 187.102,0C191.035,0 195.71,0.882 195.71,6.89L195.71,23.058ZM191.424,18.628L191.424,14.05C189.927,13.644 187.451,13.475 186.493,13.475C184.978,13.475 183.32,13.83 182.455,14.756C181.808,15.435 181.515,16.409 181.515,17.352C181.515,18.57 181.939,19.792 182.93,20.396C184.081,21.173 185.867,21.078 187.545,20.605C189.158,20.15 190.672,19.346 191.424,18.628L191.424,18.628ZM162.831,3.722C167.779,3.722 169.127,7.586 169.127,12.012C169.154,14.995 168.602,17.655 167.047,19.178C165.883,20.318 164.583,20.628 162.626,20.628C160.884,20.628 158.593,19.726 156.881,18.469L156.881,5.816C158.663,4.457 160.937,3.722 162.831,3.722L162.831,3.722ZM156.123,33.162L153.136,33.162C152.718,33.162 152.376,32.822 152.376,32.408L152.376,1.493C152.376,1.079 152.718,0.74 153.136,0.74L155.422,0.74C155.903,0.74 156.232,1.085 156.293,1.493L156.533,3.113C158.674,1.225 161.431,0.014 164.058,0.014C171.414,0.014 173.833,6.035 173.833,12.296C173.833,18.995 170.133,24.377 163.875,24.377C161.24,24.377 158.776,23.411 156.881,21.733L156.881,32.408C156.881,32.822 156.54,33.162 156.123,33.162L156.123,33.162Z" clip-rule="evenodd" fill-rule="evenodd" fill="#333E47"/>
</svg>
