<svg width="302" height="90" viewBox="0 0 302 90" fill="none" xmlns="http://www.w3.org/2000/svg" xmlns:xlink="http://www.w3.org/1999/xlink">
<rect  x="0" y="48.471" width="16.644" height="12.279" fill="#8F8E8D"/>
<rect  x="54.223" y="20.844" width="16.644" height="12.279" fill="#8F8E8D"/>
<path d="M28.872,33.123L41.995,33.123L41.995,46.449L52.494,46.449L52.494,-0.644L41.995,-0.644L41.995,20.844L28.872,20.844L28.872,-0.644L18.373,-0.644L18.373,20.844L0,20.844L0,33.123L18.373,33.123L28.872,33.123Z" clip-rule="evenodd" fill-rule="evenodd" fill="#8F8E8D"/>
<path d="M28.874,76.099L41.997,76.099L41.997,60.751L28.874,60.751L28.874,76.099ZM41.997,48.471L28.874,48.471L28.874,35.145L18.375,35.145L18.375,76.099L18.375,77.634L27.562,88.378L43.309,88.378L52.496,77.634L52.496,76.099L52.496,60.75L70.869,60.75L70.869,48.471L52.496,48.471L41.997,48.471Z" clip-rule="evenodd" fill-rule="evenodd" fill="#8F8E8D"/>
<path d="M140.342,45.026L129.989,20.694L126.074,20.694L126.074,68.156L132.653,68.156L132.654,41.793L143.072,68.156L146.93,68.156L146.93,20.694L140.342,20.694L140.342,45.026Z" clip-rule="evenodd" fill-rule="evenodd" fill="#FFFFFF"/>
<path d="M108.764,20.694L108.764,60.719L101.068,60.719L101.068,20.694L94.488,20.694L94.488,61.369L100.292,68.157L109.541,68.157L115.344,61.369L115.344,20.694L108.764,20.694Z" clip-rule="evenodd" fill-rule="evenodd" fill="#FFFFFF"/>
<path d="M174.11,28.132L174.11,20.695L168.626,20.695L162.047,20.695L156.563,20.695L156.563,28.132L162.047,28.132L162.047,60.719L156.563,60.719L156.563,68.157L174.11,68.157L174.11,60.719L168.626,60.719L168.626,28.132L174.11,28.132Z" clip-rule="evenodd" fill-rule="evenodd" fill="#FFFFFF"/>
<path d="M205.162,20.694L197.25,20.694L190.67,20.694L182.758,20.694L182.758,28.132L190.67,28.132L190.67,68.156L197.25,68.156L197.25,28.132L205.162,28.132L205.162,20.694Z" clip-rule="evenodd" fill-rule="evenodd" fill="#FFFFFF"/>
<path d="M229.427,20.694L223.683,41.458L217.941,20.694L211.141,20.694L220.394,50.62L220.394,68.156L226.973,68.156L226.973,50.62L236.226,20.694L229.427,20.694Z" clip-rule="evenodd" fill-rule="evenodd" fill="#FFFFFF"/>
<path d="M248.355,28.954L249.041,28.954C250.001,31.252 250.961,32.196 252.423,32.196C253.597,32.196 254.404,31.449 254.404,30.058C254.404,28.49 253.277,28.081 251.692,27.582C250.093,27.083 248.493,26.477 248.493,24.197C248.493,22.361 249.681,20.882 251.54,20.882C252.53,20.882 253.505,21.381 254.084,22.165L254.389,20.936L255.135,20.936L255.135,24.767L254.45,24.767C253.672,22.504 252.621,21.72 251.464,21.72C250.458,21.72 249.681,22.45 249.681,23.752C249.681,25.391 250.884,25.747 252.301,26.192C254.022,26.708 255.592,27.226 255.592,29.506C255.592,31.537 254.251,33.052 252.393,33.052C251.159,33.052 250.169,32.517 249.438,31.608L249.103,32.998L248.355,32.998L248.355,28.954Z" clip-rule="evenodd" fill-rule="evenodd" fill="#FFFFFF"/>
<path d="M265.86,24.624C267.003,24.624 267.643,25.515 267.643,27.172L267.643,31.84L268.785,31.84L268.785,32.767L265.495,32.767L265.495,31.84L266.469,31.84L266.469,27.778C266.469,27.012 266.378,26.441 266.088,26.085C265.89,25.853 265.617,25.765 265.266,25.765C264.306,25.765 263.361,27.065 263.361,28.348L263.361,31.84L264.336,31.84L264.336,32.767L261.213,32.767L261.213,31.84L262.173,31.84L262.173,27.778C262.173,27.012 262.097,26.441 261.808,26.085C261.595,25.853 261.336,25.765 260.985,25.765C260.011,25.765 259.081,27.065 259.081,28.348L259.081,31.84L260.041,31.84L260.041,32.767L256.75,32.767L256.75,31.84L257.893,31.84L257.893,25.676L256.75,25.676L256.75,24.749L259.051,24.749L259.051,26.815C259.858,25.177 260.726,24.624 261.563,24.624C262.615,24.624 263.24,25.301 263.331,26.744C264.153,25.159 265.007,24.624 265.86,24.624Z" clip-rule="evenodd" fill-rule="evenodd" fill="#FFFFFF"/>
<path d="M273.874,30.237L273.874,28.651C273.736,28.705 273.493,28.758 273.127,28.829C271.573,29.114 271.01,29.488 271.01,30.558C271.01,31.448 271.406,31.947 272.198,31.947C273.006,31.947 273.874,31.164 273.874,30.237ZM269.715,30.806C269.715,30.29 269.868,29.773 270.187,29.382C270.72,28.758 271.452,28.526 272.792,28.276C273.721,28.099 273.874,28.063 273.874,27.76L273.874,26.976C273.874,25.8 273.371,25.373 272.457,25.373C271.924,25.373 271.467,25.533 271.147,25.836C271.406,25.996 271.558,26.282 271.558,26.655C271.558,27.173 271.253,27.564 270.766,27.564C270.278,27.564 269.958,27.154 269.958,26.602C269.958,25.444 271.238,24.624 272.655,24.624C274.224,24.624 275.062,25.408 275.062,27.029L275.062,31.217C275.062,31.769 275.214,31.929 275.519,31.929C275.777,31.929 275.961,31.68 276.128,31.217L276.585,31.52C276.235,32.428 275.854,32.856 275.168,32.856C274.544,32.856 274.026,32.428 274.01,31.377L273.965,31.377C273.508,32.285 272.609,32.891 271.68,32.891C270.43,32.891 269.715,32.054 269.715,30.806Z" clip-rule="evenodd" fill-rule="evenodd" fill="#FFFFFF"/>
<path d="M276.645,31.84L277.94,31.84L277.94,21.488L276.645,21.488L276.645,20.526L279.128,20.526L279.128,31.84L280.408,31.84L280.408,32.767L276.645,32.767L276.645,31.84Z" clip-rule="evenodd" fill-rule="evenodd" fill="#FFFFFF"/>
<path d="M280.973,31.84L282.268,31.84L282.268,21.488L280.973,21.488L280.973,20.526L283.456,20.526L283.456,31.84L284.736,31.84L284.736,32.767L280.973,32.767L280.973,31.84Z" clip-rule="evenodd" fill-rule="evenodd" fill="#FFFFFF"/>
<path d="M248.004,49.657L249.696,49.657L249.696,39.875L248.004,39.875L248.004,38.967L256.521,38.967L256.521,42.672L255.926,42.672C255.469,40.267 255.225,39.875 254.265,39.875L250.975,39.875L250.975,44.419L252.376,44.419C253.26,44.419 253.413,44.222 253.611,42.602L254.235,42.602L254.235,47.145L253.611,47.145C253.443,45.452 253.26,45.22 252.376,45.22L250.975,45.22L250.975,49.657L252.834,49.657L252.834,50.584L248.004,50.584L248.004,49.657Z" clip-rule="evenodd" fill-rule="evenodd" fill="#FFFFFF"/>
<path d="M258.363,39.751C258.363,39.163 258.714,38.717 259.232,38.717C259.704,38.717 260.07,39.127 260.07,39.732C260.07,40.338 259.704,40.748 259.232,40.748C258.729,40.748 258.363,40.375 258.363,39.751ZM257.434,49.657L258.729,49.657L258.729,43.492L257.434,43.492L257.434,42.566L259.902,42.566L259.902,49.657L261.197,49.657L261.197,50.583L257.434,50.583L257.434,49.657Z" clip-rule="evenodd" fill-rule="evenodd" fill="#FFFFFF"/>
<path d="M261.973,49.657L263.115,49.657L263.115,43.492L261.973,43.492L261.973,42.566L264.273,42.566L264.273,44.632C265.081,42.993 265.979,42.441 266.863,42.441C268.02,42.441 268.721,43.332 268.721,44.971L268.721,49.657L269.864,49.657L269.864,50.584L266.497,50.584L266.497,49.657L267.549,49.657L267.549,45.594C267.549,44.846 267.442,44.276 267.152,43.938C266.939,43.67 266.634,43.564 266.283,43.564C265.278,43.564 264.303,44.864 264.303,46.164L264.303,49.657L265.34,49.657L265.34,50.584L261.973,50.584L261.973,49.657Z" clip-rule="evenodd" fill-rule="evenodd" fill="#FFFFFF"/>
<path d="M274.971,48.053L274.971,46.468C274.834,46.521 274.59,46.575 274.224,46.646C272.671,46.931 272.108,47.305 272.108,48.374C272.108,49.265 272.503,49.764 273.295,49.764C274.103,49.764 274.971,48.98 274.971,48.053ZM270.813,48.623C270.813,48.107 270.965,47.59 271.284,47.199C271.818,46.575 272.55,46.343 273.89,46.093C274.819,45.915 274.971,45.879 274.971,45.576L274.971,44.793C274.971,43.617 274.469,43.189 273.554,43.189C273.021,43.189 272.564,43.35 272.244,43.653C272.503,43.813 272.656,44.098 272.656,44.472C272.656,44.989 272.351,45.381 271.863,45.381C271.376,45.381 271.056,44.971 271.056,44.419C271.056,43.261 272.336,42.441 273.752,42.441C275.321,42.441 276.159,43.225 276.159,44.846L276.159,49.034C276.159,49.585 276.312,49.746 276.617,49.746C276.875,49.746 277.058,49.497 277.226,49.034L277.683,49.336C277.332,50.245 276.951,50.673 276.266,50.673C275.641,50.673 275.124,50.245 275.108,49.194L275.063,49.194C274.606,50.102 273.707,50.708 272.778,50.708C271.528,50.708 270.813,49.87 270.813,48.623Z" clip-rule="evenodd" fill-rule="evenodd" fill="#FFFFFF"/>
<path d="M277.984,49.657L279.127,49.657L279.127,43.492L277.984,43.492L277.984,42.566L280.285,42.566L280.285,44.632C281.092,42.993 281.991,42.441 282.875,42.441C284.032,42.441 284.733,43.332 284.733,44.971L284.733,49.657L285.876,49.657L285.876,50.584L282.509,50.584L282.509,49.657L283.56,49.657L283.56,45.594C283.56,44.846 283.454,44.276 283.164,43.938C282.95,43.67 282.646,43.564 282.295,43.564C281.29,43.564 280.315,44.864 280.315,46.164L280.315,49.657L281.351,49.657L281.351,50.584L277.984,50.584L277.984,49.657Z" clip-rule="evenodd" fill-rule="evenodd" fill="#FFFFFF"/>
<path d="M286.715,46.735C286.715,44.205 288.117,42.423 290.173,42.423C291.666,42.423 292.763,43.652 292.763,44.686C292.763,45.38 292.427,45.915 291.879,45.915C291.361,45.915 291.056,45.47 291.056,44.953C291.056,44.526 291.3,44.133 291.635,43.991C291.391,43.564 290.904,43.171 290.127,43.171C288.878,43.171 287.994,44.472 287.994,46.556C287.994,48.588 288.817,49.817 290.188,49.817C291.148,49.817 291.818,49.176 292.199,47.982L292.854,47.982C292.457,49.782 291.376,50.744 289.899,50.744C287.994,50.744 286.715,49.05 286.715,46.735Z" clip-rule="evenodd" fill-rule="evenodd" fill="#FFFFFF"/>
<path d="M295.201,45.88L298.781,45.88C298.675,44.205 298.141,43.189 297.091,43.189C296.084,43.189 295.353,44.098 295.201,45.88ZM295.185,46.646C295.216,48.73 296.084,49.799 297.38,49.799C298.217,49.799 298.918,49.425 299.33,48.231L299.969,48.231C299.558,49.889 298.538,50.743 297.121,50.743C295.124,50.743 293.906,49.051 293.906,46.663C293.906,44.222 295.338,42.423 297.166,42.423C299.162,42.423 300.046,44.525 299.999,46.646L295.185,46.646Z" clip-rule="evenodd" fill-rule="evenodd" fill="#FFFFFF"/>
<path d="M252.498,67.474C254.433,67.474 255.179,66.726 255.179,64.997C255.179,63.644 254.326,62.717 252.438,62.717L250.975,62.717L250.975,67.474L252.498,67.474ZM252.483,61.862C254.083,61.862 254.722,60.989 254.722,59.617C254.722,58.405 254.22,57.692 252.544,57.692L250.975,57.692L250.975,61.862L252.483,61.862ZM248.004,67.474L249.695,67.474L249.695,57.692L248.004,57.692L248.004,56.784L252.406,56.784C255.362,56.784 256.093,58.102 256.093,59.581C256.093,60.525 255.561,61.844 253.595,62.254L253.595,62.307C255.591,62.486 256.566,63.679 256.566,65.104C256.566,66.78 255.728,68.401 252.422,68.401L248.004,68.401L248.004,67.474Z" clip-rule="evenodd" fill-rule="evenodd" fill="#FFFFFF"/>
<path d="M261.944,65.87L261.944,64.285C261.807,64.338 261.563,64.391 261.197,64.463C259.643,64.748 259.08,65.122 259.08,66.191C259.08,67.082 259.476,67.581 260.268,67.581C261.076,67.581 261.944,66.797 261.944,65.87ZM257.785,66.44C257.785,65.923 257.937,65.407 258.257,65.015C258.791,64.391 259.521,64.16 260.862,63.91C261.791,63.732 261.944,63.696 261.944,63.393L261.944,62.61C261.944,61.434 261.441,61.006 260.527,61.006C259.994,61.006 259.537,61.167 259.217,61.47C259.476,61.629 259.629,61.915 259.629,62.289C259.629,62.806 259.323,63.198 258.836,63.198C258.349,63.198 258.029,62.788 258.029,62.235C258.029,61.078 259.308,60.258 260.725,60.258C262.294,60.258 263.132,61.042 263.132,62.663L263.132,66.85C263.132,67.402 263.285,67.563 263.589,67.563C263.848,67.563 264.031,67.314 264.198,66.85L264.656,67.153C264.305,68.061 263.924,68.49 263.239,68.49C262.614,68.49 262.097,68.061 262.08,67.011L262.036,67.011C261.579,67.919 260.68,68.525 259.75,68.525C258.501,68.525 257.785,67.687 257.785,66.44Z" clip-rule="evenodd" fill-rule="evenodd" fill="#FFFFFF"/>
<path d="M264.961,67.474L266.104,67.474L266.104,61.309L264.961,61.309L264.961,60.383L267.262,60.383L267.262,62.45C268.069,60.81 268.968,60.258 269.851,60.258C271.009,60.258 271.71,61.149 271.71,62.789L271.71,67.474L272.852,67.474L272.852,68.401L269.485,68.401L269.485,67.474L270.537,67.474L270.537,63.412C270.537,62.663 270.43,62.093 270.141,61.755C269.927,61.487 269.622,61.381 269.272,61.381C268.266,61.381 267.292,62.681 267.292,63.982L267.292,67.474L268.328,67.474L268.328,68.401L264.961,68.401L264.961,67.474Z" clip-rule="evenodd" fill-rule="evenodd" fill="#FFFFFF"/>
<path d="M277.649,63.536L280.026,67.474L280.895,67.474L280.895,68.4L277.772,68.4L277.772,67.491L278.686,67.491L276.873,64.409L275.76,65.727L275.76,67.474L276.705,67.474L276.705,68.4L273.43,68.4L273.43,67.474L274.572,67.474L274.572,57.122L273.43,57.122L273.43,56.16L275.76,56.16L275.76,64.73L278.533,61.291L277.39,61.291L277.39,60.383L280.559,60.383L280.559,61.309L279.524,61.309L277.649,63.536Z" clip-rule="evenodd" fill-rule="evenodd" fill="#FFFFFF"/>
</svg>
