<svg width="282" height="280" viewBox="0 0 282 280" fill="none" xmlns="http://www.w3.org/2000/svg" xmlns:xlink="http://www.w3.org/1999/xlink">
<path d="M280.154,21.787C278.816,24.504 279.13,27.512 278.69,30.381C271.158,80.509 248.378,122.753 211.818,157.806C209.039,160.465 208.162,163.138 207.942,166.72C205.639,202.986 191.721,234.232 166.498,260.53C164.874,262.224 163.119,263.61 160.647,263.596C157.576,263.596 155.301,261.256 154.797,257.856C152.764,243.618 150.716,229.378 148.654,215.14C148.654,215.002 148.456,214.886 148.149,214.5C146.474,215.954 144.814,217.464 143.132,218.932C139.651,221.968 136.799,221.962 133.566,218.758C108.984,194.367 84.419,169.965 59.87,145.55C56.748,142.434 56.711,139.571 59.629,136.259C61.092,134.559 62.627,132.888 64.478,130.81C59.921,130.134 55.76,129.488 51.599,128.899C41.053,127.446 30.5,125.95 19.954,124.453C17.512,124.105 15.647,122.826 14.894,120.458C14.14,118.089 14.894,115.888 16.744,114.057C37.051,94.075 62.736,80.344 90.71,74.515C98.546,72.804 106.526,71.832 114.544,71.609C115.611,71.608 116.664,71.376 117.631,70.928C118.597,70.48 119.453,69.827 120.139,69.016C151.023,36.462 188.489,15.198 232.208,4.751C245.338,1.657 258.782,0.062 272.276,0C275.934,0 278.53,1.112 280.11,4.359L280.154,21.787ZM262.704,11.834C259.522,12.11 256.334,12.277 253.196,12.662C227.308,15.852 203.145,24.228 180.43,36.811C159.485,48.29 140.698,63.283 124.9,81.126C107.772,100.53 90.323,119.63 72.976,138.838C71.696,140.254 71.762,140.959 73.107,142.238C77.451,146.371 81.649,150.657 85.906,154.886C102.931,171.798 119.944,188.718 136.945,205.644C138.313,207.004 139.088,207.294 140.602,205.804C143.351,203.044 146.313,200.48 149.246,197.893C166.944,182.238 184.767,166.72 202.348,150.926C218.978,135.983 232.448,118.474 243.302,98.99C257.452,73.505 266.61,46.473 268.298,17.218C268.51,11.638 268.474,11.638 262.704,11.834ZM33.477,114.58C46.641,116.469 59.176,118.213 71.689,120.094C73.466,120.363 74.511,119.789 75.645,118.525C83.119,110.105 90.674,101.758 98.199,93.382C100.978,90.287 103.743,87.192 106.873,83.69C79.177,86.923 55.058,97.014 33.477,114.58ZM164.823,245.02C182.47,223.588 192.709,199.659 195.883,172.517C195.562,172.636 195.255,172.789 194.969,172.975C183.414,183.218 171.881,193.491 160.274,203.684C159.075,204.73 159.104,205.79 159.287,207.054L164.823,245.02Z" fill="#FFFFFF" fill-opacity="0.75" stroke="#FFFFFF" stroke-opacity="0.75" stroke-width="1" stroke-miterlimit="3.999327"/>
<path d="M3.807,278.366C-0.428,275.046 -0.757,274.007 1.006,268.457C7.515,247.868 14.309,227.389 23.918,207.941C28.738,198.184 35.495,190.753 46.202,187.331C53.851,184.872 62.107,185.022 69.66,187.758C77.213,190.494 83.629,195.659 87.889,202.432C92.148,209.204 94.008,217.197 93.172,225.139C92.335,233.082 88.851,240.519 83.273,246.27C78.556,251.094 72.479,253.905 66.452,256.695C47.716,265.413 28.131,271.784 8.407,277.814C8.063,277.916 7.675,277.908 7.632,278.366L3.807,278.366ZM14.638,263.778C26.266,259.964 37.309,256.208 48.206,251.857C56.126,248.682 64.119,245.623 71.33,240.959C79.631,235.62 83.441,225.115 80.838,215.184C78.351,205.594 69.4,197.967 59.739,197.334C48.688,196.608 40.556,201.112 35.444,210.927C26.756,227.694 20.876,245.522 14.638,263.778L14.638,263.778Z" fill="#FFFFFF" fill-opacity="0.75" stroke="#FFFFFF" stroke-opacity="0.75" stroke-width="1" stroke-miterlimit="3.999327"/>
<path d="M229.195,79.659C229.199,85.397 227.491,91.007 224.286,95.781C221.081,100.554 216.523,104.277 211.189,106.478C205.854,108.678 199.983,109.259 194.317,108.145C188.65,107.031 183.444,104.274 179.355,100.221C175.266,96.169 172.478,91.003 171.344,85.377C170.211,79.75 170.781,73.917 172.985,68.613C175.188,63.309 178.925,58.773 183.723,55.578C188.522,52.384 194.165,50.674 199.942,50.666C207.681,50.69 215.097,53.751 220.576,59.181C226.055,64.611 229.152,71.971 229.195,79.659ZM217.45,79.659C217.454,76.231 216.435,72.878 214.523,70.024C212.611,67.17 209.89,64.944 206.704,63.625C203.518,62.306 200.011,61.954 196.624,62.614C193.237,63.274 190.123,64.916 187.675,67.332C185.227,69.749 183.555,72.832 182.869,76.192C182.184,79.552 182.516,83.039 183.823,86.211C185.131,89.384 187.356,92.101 190.217,94.018C193.078,95.936 196.446,96.969 199.898,96.986C202.196,97.011 204.477,96.582 206.607,95.725C208.737,94.868 210.675,93.599 212.308,91.992C213.941,90.385 215.236,88.471 216.118,86.363C217.001,84.255 217.454,81.994 217.45,79.71L217.45,79.659Z" fill="#FFFFFF" fill-opacity="0.75" stroke="#FFFFFF" stroke-opacity="0.75" stroke-width="1" stroke-miterlimit="3.999327"/>
</svg>
