<svg width="356" height="114" viewBox="0 0 356 114" fill="none" xmlns="http://www.w3.org/2000/svg" xmlns:xlink="http://www.w3.org/1999/xlink">
<path d="M70.873,44.27L26.598,58.154L26.598,45.2L70.873,31.317L70.873,44.27Z" fill="#8C8E8E"/>
<path d="M70.873,68.869L26.598,82.753L26.598,69.799L70.873,55.915L70.873,68.869Z" fill="#8C8E8E"/>
<path d="M48.723,114C39.086,114 29.666,110.658 21.654,104.397C13.641,98.135 7.397,89.236 3.709,78.824C0.021,68.411 -0.944,56.954 0.936,45.9C2.816,34.847 7.457,24.693 14.271,16.724C21.085,8.755 29.766,3.328 39.218,1.129C48.669,-1.069 58.465,0.059 67.368,4.372C76.271,8.685 83.881,15.989 89.235,25.359C94.588,34.73 97.446,45.747 97.446,57.017C97.43,72.124 92.292,86.608 83.158,97.29C74.024,107.972 61.64,113.982 48.723,114ZM48.723,11.714C41.054,11.714 33.558,14.373 27.182,19.357C20.807,24.34 15.838,31.423 12.905,39.709C9.972,47.996 9.206,57.114 10.704,65.909C12.202,74.705 15.897,82.784 21.321,89.123C26.746,95.462 33.656,99.777 41.178,101.523C48.7,103.268 56.495,102.366 63.579,98.929C70.662,95.492 76.714,89.676 80.97,82.215C85.226,74.755 87.495,65.986 87.489,57.017C87.474,45.002 83.383,33.484 76.116,24.991C68.848,16.498 58.997,11.723 48.723,11.714Z" fill="#8C8E8E"/>
<path d="M140.749,77.068C136.507,81.306 132.618,81.237 127.257,81.237L114.148,81.237L114.148,33.005L126.874,33.005C131.823,33.005 136.507,33.005 140.101,37.69C141.747,39.885 142.621,42.729 142.546,45.648C142.551,47.597 142.109,49.511 141.264,51.19C140.419,52.869 139.203,54.251 137.744,55.191C139.799,55.883 141.593,57.371 142.829,59.412C144.066,61.453 144.672,63.925 144.549,66.423C144.611,68.413 144.303,70.395 143.647,72.233C142.991,74.071 142.002,75.72 140.749,77.068ZM128.318,43.788L124.252,43.788L124.252,51.298L128.259,51.298C130.556,51.298 132.442,50.506 132.442,47.44C132.442,44.374 130.497,43.788 128.318,43.788ZM129.643,61.599L124.341,61.599L124.341,70.419L129.643,70.419C132.265,70.419 134.592,69.351 134.592,65.768C134.592,62.185 132,61.599 129.643,61.599Z" fill="#716C6D"/>
<path d="M166.463,81.237L166.463,61.53C166.463,57.637 165.521,53.986 161.514,53.986C157.508,53.986 156.33,57.052 156.33,61.151L156.33,81.237L147.051,81.237L147.051,33.005L156.33,33.005L156.33,48.301C157.182,46.765 158.374,45.527 159.78,44.72C161.186,43.913 162.752,43.567 164.313,43.719C165.878,43.663 167.435,43.99 168.886,44.678C170.337,45.366 171.648,46.4 172.738,47.715C175.684,51.677 175.684,55.984 175.684,60.945L175.684,81.168L166.463,81.237Z" fill="#716C6D"/>
<path d="M202.788,81.237L202.788,77.309C201.801,79.022 200.445,80.401 198.858,81.308C197.271,82.215 195.507,82.618 193.745,82.477C184.23,82.477 178.191,73.864 178.191,63.115C178.076,60.637 178.391,58.157 179.12,55.826C179.848,53.495 180.973,51.361 182.427,49.554C183.882,47.747 185.635,46.304 187.58,45.313C189.526,44.322 191.623,43.803 193.745,43.788C195.498,43.673 197.248,44.08 198.83,44.972C200.411,45.864 201.774,47.211 202.788,48.887L202.788,45.028L212.126,45.028L212.126,81.237L202.788,81.237ZM194.982,53.917C193.947,53.911 192.922,54.151 191.969,54.623C191.016,55.095 190.155,55.789 189.439,56.662C188.723,57.535 188.166,58.57 187.802,59.703C187.438,60.836 187.275,62.044 187.323,63.253C187.258,64.487 187.41,65.724 187.769,66.888C188.128,68.051 188.687,69.116 189.411,70.018C190.136,70.919 191.01,71.637 191.981,72.128C192.952,72.619 193.998,72.872 195.056,72.872C196.113,72.872 197.16,72.619 198.131,72.128C199.101,71.637 199.976,70.919 200.7,70.018C201.425,69.116 201.984,68.051 202.343,66.888C202.702,65.724 202.854,64.487 202.788,63.253C202.842,62.028 202.678,60.803 202.306,59.656C201.935,58.509 201.365,57.464 200.632,56.587C199.899,55.71 199.018,55.02 198.046,54.561C197.074,54.101 196.03,53.882 194.982,53.917Z" fill="#716C6D"/>
<path d="M225.203,61.358L225.203,81.237L215.953,81.237L215.953,45.028L224.79,45.028L224.79,48.887C225.481,47.213 226.594,45.827 227.98,44.915C229.365,44.003 230.955,43.61 232.538,43.788L232.538,54.675C228.443,54.812 225.203,55.743 225.203,61.358Z" fill="#716C6D"/>
<path d="M257.663,81.237L257.663,77.309C256.683,79.022 255.333,80.402 253.75,81.309C252.167,82.217 250.408,82.62 248.649,82.477C239.105,82.477 233.066,73.864 233.066,63.115C232.95,60.634 233.267,58.152 233.997,55.818C234.727,53.485 235.855,51.35 237.313,49.542C238.77,47.734 240.527,46.292 242.476,45.303C244.424,44.314 246.525,43.798 248.649,43.788C250.398,43.679 252.141,44.089 253.718,44.981C255.294,45.872 256.651,47.216 257.663,48.887L257.663,45.028L266.913,45.028L266.913,81.237L257.663,81.237ZM249.857,53.917C248.825,53.915 247.803,54.159 246.853,54.633C245.904,55.107 245.047,55.802 244.333,56.675C243.62,57.548 243.066,58.581 242.704,59.711C242.342,60.842 242.18,62.047 242.228,63.253C242.228,64.439 242.427,65.612 242.815,66.707C243.203,67.803 243.771,68.798 244.488,69.636C245.205,70.474 246.056,71.139 246.992,71.592C247.928,72.046 248.932,72.279 249.945,72.279C250.959,72.279 251.963,72.046 252.899,71.592C253.835,71.139 254.686,70.474 255.403,69.636C256.12,68.798 256.688,67.803 257.076,66.707C257.464,65.612 257.663,64.439 257.663,63.253C257.717,62.028 257.553,60.804 257.182,59.656C256.81,58.509 256.24,57.464 255.507,56.587C254.774,55.71 253.893,55.02 252.921,54.561C251.949,54.101 250.905,53.882 249.857,53.917Z" fill="#716C6D"/>
<path d="M283.648,53.262L283.648,81.237L274.398,81.237L274.398,53.262L269.832,53.262L269.832,45.028L274.398,45.028L274.398,32.97L283.648,32.97L283.648,45.028L288.125,45.028L288.125,53.262L283.648,53.262Z" fill="#716C6D"/>
<path d="M319.235,62.082C315.844,65.269 311.516,66.766 307.187,66.25L302.621,66.25L302.621,81.375L292.547,81.375L292.547,33.142L306.038,33.142C310.28,33.142 315.347,33.349 318.735,36.587C320.301,38.167 321.548,40.132 322.389,42.342C323.229,44.551 323.641,46.951 323.595,49.369C323.637,51.722 323.272,54.061 322.523,56.245C321.774,58.429 320.656,60.414 319.235,62.082ZM306.539,43.926L302.621,43.926L302.621,55.191L306.922,55.191C310.369,55.191 313.491,54.261 313.491,49.369C313.491,44.477 309.986,43.788 306.539,43.788L306.539,43.926Z" fill="#8C8E8E"/>
<path d="M355.789,66.423L332.577,66.423C332.838,68.419 333.724,70.229 335.063,71.503C336.403,72.777 338.1,73.422 339.823,73.313C340.932,73.332 342.028,73.027 343.01,72.426C343.993,71.824 344.831,70.945 345.45,69.868L354.935,69.868C353.765,73.473 351.702,76.589 349.01,78.816C346.318,81.044 343.12,82.283 339.823,82.374C336.523,82.455 333.278,81.379 330.506,79.284C327.734,77.189 325.561,74.171 324.269,70.619C322.976,67.067 322.623,63.143 323.254,59.354C323.886,55.565 325.473,52.084 327.811,49.359C330.149,46.635 333.131,44.791 336.373,44.067C339.615,43.342 342.969,43.77 346.001,45.295C349.034,46.819 351.606,49.371 353.387,52.621C355.169,55.87 356.077,59.67 355.995,63.529C356.002,64.499 355.933,65.468 355.789,66.423ZM339.705,52.918C338.101,52.829 336.521,53.401 335.24,54.534C333.959,55.667 333.058,57.289 332.695,59.119L346.746,59.119C346.376,57.287 345.47,55.663 344.184,54.53C342.898,53.398 341.313,52.827 339.705,52.918Z" fill="#8C8E8E"/>
</svg>
