<svg width="356" height="114" viewBox="0 0 356 114" fill="none" xmlns="http://www.w3.org/2000/svg" xmlns:xlink="http://www.w3.org/1999/xlink">
<path d="M70.872,44.236L26.598,58.12L26.598,45.166L70.872,31.282L70.872,44.236Z" fill="#8C8E8E"/>
<path d="M70.872,68.834L26.598,82.718L26.598,69.764L70.872,55.88L70.872,68.834Z" fill="#8C8E8E"/>
<path d="M48.723,113.966C39.086,113.966 29.666,110.624 21.654,104.362C13.641,98.101 7.397,89.201 3.709,78.789C0.021,68.377 -0.944,56.92 0.936,45.866C2.816,34.812 7.457,24.659 14.271,16.69C21.085,8.721 29.766,3.294 39.218,1.095C48.669,-1.104 58.465,0.025 67.368,4.338C76.271,8.65 83.881,15.954 89.235,25.325C94.588,34.696 97.446,45.713 97.446,56.983C97.43,72.09 92.292,86.573 83.158,97.256C74.024,107.938 61.64,113.947 48.723,113.966ZM48.723,11.679C41.054,11.679 33.558,14.339 27.182,19.322C20.807,24.306 15.838,31.389 12.905,39.675C9.972,47.962 9.206,57.079 10.704,65.875C12.202,74.671 15.897,82.749 21.321,89.088C26.746,95.428 33.656,99.743 41.178,101.489C48.7,103.234 56.495,102.331 63.579,98.894C70.662,95.458 76.714,89.641 80.97,82.181C85.226,74.72 87.495,65.951 87.489,56.983C87.474,44.967 83.383,33.449 76.116,24.956C68.848,16.463 58.997,11.688 48.723,11.679Z" fill="#8C8E8E"/>
<path d="M140.749,77.033C136.507,81.271 132.618,81.202 127.257,81.202L114.148,81.202L114.148,32.97L126.874,32.97C131.823,32.97 136.507,32.97 140.101,37.655C141.747,39.851 142.621,42.695 142.546,45.614C142.551,47.562 142.109,49.476 141.264,51.155C140.419,52.835 139.203,54.217 137.744,55.157C139.799,55.848 141.593,57.337 142.829,59.378C144.066,61.419 144.672,63.891 144.549,66.388C144.611,68.378 144.303,70.36 143.647,72.198C142.991,74.036 142.002,75.686 140.749,77.033ZM128.318,43.753L124.252,43.753L124.252,51.264L128.259,51.264C130.556,51.264 132.442,50.471 132.442,47.405C132.442,44.339 130.497,43.753 128.318,43.753ZM129.643,61.565L124.341,61.565L124.341,70.384L129.643,70.384C132.265,70.384 134.592,69.316 134.592,65.733C134.592,62.15 132,61.565 129.643,61.565Z" fill="#716C6D"/>
<path d="M166.463,81.202L166.463,61.496C166.463,57.603 165.521,53.951 161.514,53.951C157.508,53.951 156.33,57.017 156.33,61.117L156.33,81.202L147.051,81.202L147.051,32.97L156.33,32.97L156.33,48.267C157.182,46.73 158.374,45.493 159.78,44.686C161.186,43.879 162.752,43.533 164.313,43.685C165.878,43.629 167.435,43.955 168.886,44.643C170.337,45.331 171.648,46.366 172.738,47.681C175.684,51.643 175.684,55.949 175.684,60.91L175.684,81.133L166.463,81.202Z" fill="#716C6D"/>
<path d="M202.788,81.202L202.788,77.275C201.801,78.988 200.445,80.367 198.858,81.274C197.271,82.181 195.507,82.584 193.745,82.442C184.23,82.442 178.191,73.829 178.191,63.081C178.076,60.603 178.391,58.123 179.12,55.792C179.848,53.461 180.973,51.327 182.427,49.52C183.882,47.713 185.635,46.27 187.58,45.278C189.526,44.287 191.623,43.768 193.745,43.753C195.498,43.638 197.248,44.046 198.83,44.937C200.411,45.829 201.774,47.176 202.788,48.852L202.788,44.994L212.126,44.994L212.126,81.202L202.788,81.202ZM194.982,53.882C193.947,53.876 192.922,54.116 191.969,54.588C191.016,55.06 190.155,55.754 189.439,56.627C188.723,57.501 188.166,58.536 187.802,59.669C187.438,60.802 187.275,62.009 187.323,63.218C187.258,64.453 187.41,65.69 187.769,66.853C188.128,68.017 188.687,69.082 189.411,69.983C190.136,70.884 191.01,71.603 191.981,72.093C192.952,72.584 193.998,72.838 195.056,72.838C196.113,72.838 197.16,72.584 198.131,72.093C199.101,71.603 199.976,70.884 200.7,69.983C201.425,69.082 201.984,68.017 202.343,66.853C202.702,65.69 202.854,64.453 202.788,63.218C202.842,61.994 202.678,60.769 202.306,59.622C201.935,58.475 201.365,57.43 200.632,56.553C199.899,55.676 199.018,54.986 198.046,54.526C197.074,54.067 196.03,53.847 194.982,53.882Z" fill="#716C6D"/>
<path d="M225.203,61.324L225.203,81.202L215.953,81.202L215.953,44.994L224.79,44.994L224.79,48.852C225.482,47.178 226.595,45.792 227.98,44.881C229.365,43.969 230.956,43.576 232.538,43.753L232.538,54.64C228.443,54.778 225.203,55.708 225.203,61.324Z" fill="#716C6D"/>
<path d="M257.663,81.202L257.663,77.275C256.683,78.988 255.333,80.368 253.75,81.275C252.167,82.182 250.408,82.585 248.649,82.443C239.105,82.443 233.066,73.83 233.066,63.081C232.95,60.6 233.267,58.117 233.997,55.784C234.727,53.451 235.855,51.315 237.313,49.508C238.77,47.7 240.527,46.258 242.476,45.268C244.424,44.279 246.525,43.764 248.649,43.754C250.398,43.644 252.141,44.055 253.718,44.946C255.294,45.838 256.651,47.182 257.663,48.852L257.663,44.994L266.913,44.994L266.913,81.202L257.663,81.202ZM249.857,53.882C248.825,53.881 247.803,54.125 246.853,54.599C245.904,55.073 245.047,55.767 244.333,56.64C243.62,57.513 243.066,58.546 242.704,59.677C242.342,60.808 242.18,62.013 242.228,63.219C242.228,64.404 242.427,65.578 242.815,66.673C243.203,67.768 243.771,68.763 244.488,69.601C245.205,70.44 246.056,71.104 246.992,71.558C247.928,72.012 248.932,72.245 249.945,72.245C250.959,72.245 251.963,72.012 252.899,71.558C253.835,71.104 254.686,70.44 255.403,69.601C256.12,68.763 256.688,67.768 257.076,66.673C257.464,65.578 257.663,64.404 257.663,63.219C257.717,61.994 257.553,60.769 257.182,59.622C256.81,58.475 256.24,57.43 255.507,56.553C254.774,55.676 253.893,54.986 252.921,54.526C251.949,54.067 250.905,53.848 249.857,53.882Z" fill="#716C6D"/>
<path d="M283.648,53.228L283.648,81.202L274.398,81.202L274.398,53.228L269.832,53.228L269.832,44.994L274.398,44.994L274.398,32.936L283.648,32.936L283.648,44.994L288.125,44.994L288.125,53.228L283.648,53.228Z" fill="#716C6D"/>
<path d="M319.235,62.047C315.844,65.234 311.516,66.732 307.187,66.216L302.621,66.216L302.621,81.34L292.547,81.34L292.547,33.108L306.038,33.108C310.28,33.108 315.347,33.315 318.735,36.553C320.301,38.133 321.548,40.098 322.389,42.307C323.229,44.517 323.641,46.917 323.595,49.335C323.637,51.688 323.272,54.026 322.523,56.21C321.774,58.395 320.656,60.38 319.235,62.047ZM306.539,43.891L302.621,43.891L302.621,55.157L306.922,55.157C310.369,55.157 313.491,54.227 313.491,49.335C313.491,44.442 309.986,43.753 306.539,43.753L306.539,43.891Z" fill="#8C8E8E"/>
<path d="M355.789,66.388L332.577,66.388C332.838,68.384 333.724,70.195 335.063,71.468C336.403,72.742 338.1,73.387 339.823,73.279C340.932,73.298 342.028,72.993 343.011,72.391C343.993,71.79 344.832,70.91 345.45,69.833L354.935,69.833C353.765,73.439 351.702,76.554 349.01,78.782C346.318,81.009 343.12,82.248 339.823,82.339C336.523,82.421 333.278,81.345 330.506,79.249C327.734,77.154 325.561,74.136 324.269,70.584C322.976,67.032 322.623,63.109 323.254,59.32C323.886,55.531 325.473,52.05 327.811,49.325C330.149,46.6 333.131,44.757 336.373,44.033C339.616,43.308 342.969,43.736 346.001,45.26C349.034,46.785 351.606,49.336 353.388,52.586C355.169,55.836 356.077,59.635 355.996,63.494C356.002,64.464 355.933,65.433 355.789,66.388ZM339.706,52.883C338.101,52.794 336.521,53.366 335.24,54.499C333.959,55.632 333.058,57.255 332.695,59.085L346.746,59.085C346.376,57.252 345.47,55.629 344.184,54.496C342.898,53.363 341.314,52.793 339.706,52.883Z" fill="#8C8E8E"/>
</svg>
