<svg width="36" height="50" viewBox="0 0 36 50" fill="none" xmlns="http://www.w3.org/2000/svg" xmlns:xlink="http://www.w3.org/1999/xlink">
<path d="M-0.563,48.42L-0.563,0.234L9.62,0.234L9.62,19.405C12.726,15.001 16.757,12.799 21.719,12.799L22.039,12.799C25.996,12.799 28.98,14.138 30.987,16.815C32.998,19.448 34.001,22.644 34.001,26.4L34.001,48.42L23.728,48.42L23.728,31.193C23.728,28.429 23.181,26.292 22.086,24.781C20.989,23.27 19.345,22.514 17.153,22.514C14.871,22.514 13.043,23.378 11.676,25.105C10.305,26.832 9.62,29.12 9.62,31.97L9.62,48.42L-0.563,48.42Z" fill="#FFFFFF"/>
</svg>
