<svg width="40" height="50" viewBox="0 0 40 50" fill="none" xmlns="http://www.w3.org/2000/svg" xmlns:xlink="http://www.w3.org/1999/xlink">
<path d="M10.19,18.739L10.19,18.998C10.19,21.416 10.981,23.532 12.564,25.345C14.147,27.159 16.384,28.066 19.276,28.066L19.504,28.066C22.487,28.066 24.633,27.18 25.942,25.41C27.25,23.64 27.905,21.502 27.905,18.998L27.905,18.739C27.905,16.149 27.25,14.011 25.942,12.327C24.663,10.6 22.517,9.737 19.504,9.737L19.276,9.737C16.293,9.737 14.025,10.622 12.472,12.392C10.951,14.162 10.19,16.278 10.19,18.739ZM0.008,1.576L10.19,1.576L10.19,6.563C13.325,2.677 17.48,0.734 22.654,0.734L23.476,0.734C26.185,0.734 28.514,1.188 30.462,2.094C32.44,3.001 33.977,4.275 35.073,5.916C36.199,7.556 37.022,9.391 37.539,11.421C38.056,13.45 38.316,15.717 38.316,18.221L38.316,19.452C38.316,21.869 38.042,24.093 37.493,26.123C36.976,28.152 36.139,30.03 34.982,31.757C33.856,33.484 32.288,34.844 30.279,35.837C28.27,36.787 25.896,37.262 23.156,37.262L22.426,37.262C19.291,37.262 16.643,36.593 14.481,35.255C12.351,33.916 10.92,32.664 10.19,31.498L10.19,48.596L0.008,48.596L0.008,1.576Z" fill="#FFFFFF"/>
</svg>
