<svg width="40" height="50" viewBox="0 0 40 50" fill="none" xmlns="http://www.w3.org/2000/svg" xmlns:xlink="http://www.w3.org/1999/xlink">
<path d="M10.721,18.739L10.721,18.998C10.721,21.416 11.512,23.532 13.095,25.345C14.678,27.159 16.915,28.066 19.807,28.066L20.035,28.066C23.018,28.066 25.164,27.18 26.473,25.41C27.782,23.64 28.436,21.502 28.436,18.998L28.436,18.739C28.436,16.149 27.782,14.011 26.473,12.327C25.194,10.6 23.049,9.737 20.035,9.737L19.807,9.737C16.824,9.737 14.556,10.622 13.004,12.392C11.482,14.162 10.721,16.278 10.721,18.739ZM0.539,1.576L10.721,1.576L10.721,6.563C13.856,2.677 18.011,0.734 23.186,0.734L24.007,0.734C26.716,0.734 29.045,1.188 30.993,2.094C32.972,3.001 34.509,4.275 35.605,5.916C36.731,7.556 37.553,9.391 38.07,11.421C38.588,13.45 38.846,15.717 38.846,18.221L38.846,19.452C38.846,21.869 38.572,24.093 38.024,26.123C37.507,28.152 36.67,30.03 35.513,31.757C34.387,33.484 32.819,34.844 30.81,35.837C28.801,36.787 26.427,37.262 23.688,37.262L22.957,37.262C19.822,37.262 17.174,36.593 15.013,35.255C12.882,33.916 11.451,32.664 10.721,31.498L10.721,48.596L0.539,48.596L0.539,1.576Z" fill="#FFFFFF"/>
</svg>
