<svg width="40" height="50" viewBox="0 0 40 50" fill="none" xmlns="http://www.w3.org/2000/svg" xmlns:xlink="http://www.w3.org/1999/xlink">
<path d="M10.19,18.705L10.19,18.964C10.19,21.382 10.981,23.497 12.564,25.311C14.147,27.124 16.384,28.031 19.276,28.031L19.504,28.031C22.487,28.031 24.633,27.146 25.942,25.376C27.25,23.606 27.905,21.468 27.905,18.964L27.905,18.705C27.905,16.114 27.25,13.977 25.942,12.293C24.663,10.566 22.517,9.702 19.504,9.702L19.276,9.702C16.293,9.702 14.025,10.587 12.472,12.358C10.951,14.128 10.19,16.244 10.19,18.705ZM0.008,1.542L10.19,1.542L10.19,6.529C13.325,2.643 17.48,0.7 22.654,0.7L23.476,0.7C26.185,0.7 28.514,1.153 30.462,2.06C32.44,2.966 33.977,4.24 35.073,5.881C36.199,7.522 37.022,9.357 37.539,11.386C38.056,13.416 38.316,15.682 38.316,18.187L38.316,19.417C38.316,21.835 38.042,24.059 37.493,26.088C36.976,28.118 36.139,29.996 34.982,31.723C33.856,33.45 32.288,34.81 30.279,35.803C28.27,36.753 25.896,37.228 23.156,37.228L22.426,37.228C19.291,37.228 16.643,36.559 14.481,35.22C12.351,33.882 10.92,32.63 10.19,31.464L10.19,48.562L0.008,48.562L0.008,1.542Z" fill="#FFFFFF"/>
</svg>
