<svg width="40" height="50" viewBox="0 0 40 50" fill="none" xmlns="http://www.w3.org/2000/svg" xmlns:xlink="http://www.w3.org/1999/xlink">
<path d="M19.468,9.767L19.194,9.767C16.182,9.767 14.02,10.501 12.712,11.969C11.432,13.437 10.794,15.294 10.794,17.539L10.794,17.863C10.794,20.108 11.464,22.029 12.802,23.627C14.172,25.181 16.302,25.959 19.194,25.959L19.468,25.959C22.482,25.959 24.78,25.181 26.362,23.627C27.946,22.029 28.738,20.13 28.738,17.928L28.738,17.668C28.738,15.423 27.946,13.545 26.362,12.034C24.78,10.523 22.482,9.767 19.468,9.767ZM21.888,49.015L18.646,49.015C15.724,49.015 13.168,48.648 10.976,47.914C8.814,47.223 7.172,46.403 6.046,45.453C4.95,44.503 4.066,43.381 3.396,42.085C2.728,40.833 2.316,39.797 2.164,38.977C2.012,38.156 1.936,37.358 1.936,36.58L1.936,36.386L12.208,36.386C12.574,38.545 15.192,39.624 20.062,39.624L20.2,39.624C26.044,39.624 28.966,36.278 28.966,29.586C26.196,33.083 22.208,34.832 17.004,34.832L16.456,34.832C11.038,34.832 7.004,33.277 4.356,30.168C1.738,27.06 0.43,23.066 0.43,18.187L0.43,16.891C0.43,12.228 1.616,8.364 3.99,5.298C6.364,2.232 10.094,0.7 15.176,0.7L16.136,0.7C21.888,0.7 26.15,2.535 28.92,6.205L28.92,1.542L39.148,1.542L39.148,30.039C39.148,31.507 39.04,32.975 38.828,34.443C38.614,35.911 38.128,37.552 37.366,39.365C36.636,41.222 35.678,42.819 34.49,44.158C33.302,45.54 31.614,46.684 29.422,47.59C27.26,48.541 24.75,49.015 21.888,49.015Z" fill="#FFFFFF"/>
</svg>
