<svg width="40" height="42" viewBox="0 0 40 42" fill="none" xmlns="http://www.w3.org/2000/svg" xmlns:xlink="http://www.w3.org/1999/xlink">
<path d="M19.468,7.683L19.194,7.683C16.182,7.683 14.02,8.311 12.712,9.566C11.432,10.821 10.794,12.409 10.794,14.328L10.794,14.605C10.794,16.525 11.464,18.168 12.802,19.534C14.172,20.863 16.302,21.528 19.194,21.528L19.468,21.528C22.482,21.528 24.78,20.863 26.362,19.534C27.946,18.168 28.738,16.544 28.738,14.661L28.738,14.439C28.738,12.519 27.946,10.913 26.362,9.621C24.78,8.329 22.482,7.683 19.468,7.683ZM21.888,41.242L18.646,41.242C15.724,41.242 13.168,40.928 10.976,40.301C8.814,39.71 7.172,39.009 6.046,38.196C4.95,37.384 4.066,36.424 3.396,35.317C2.728,34.246 2.316,33.36 2.164,32.659C2.012,31.957 1.936,31.274 1.936,30.61L1.936,30.443L12.208,30.443C12.574,32.289 15.192,33.212 20.062,33.212L20.2,33.212C26.044,33.212 28.966,30.351 28.966,24.629C26.196,27.619 22.208,29.114 17.004,29.114L16.456,29.114C11.038,29.114 7.004,27.785 4.356,25.127C1.738,22.469 0.43,19.054 0.43,14.882L0.43,13.775C0.43,9.787 1.616,6.483 3.99,3.862C6.364,1.241 10.094,-0.07 15.176,-0.07L16.136,-0.07C21.888,-0.07 26.15,1.499 28.92,4.637L28.92,0.65L39.148,0.65L39.148,25.016C39.148,26.272 39.04,27.527 38.828,28.782C38.614,30.037 38.128,31.44 37.366,32.991C36.636,34.578 35.678,35.944 34.49,37.089C33.302,38.27 31.614,39.249 29.422,40.024C27.26,40.836 24.75,41.242 21.888,41.242Z" fill="#FFFFFF"/>
</svg>
