<svg width="40" height="50" viewBox="0 0 40 50" fill="none" xmlns="http://www.w3.org/2000/svg" xmlns:xlink="http://www.w3.org/1999/xlink">
<path d="M19.468,9.802L19.194,9.802C16.182,9.802 14.02,10.536 12.712,12.004C11.432,13.472 10.794,15.328 10.794,17.573L10.794,17.897C10.794,20.143 11.464,22.064 12.802,23.661C14.172,25.216 16.302,25.993 19.194,25.993L19.468,25.993C22.481,25.993 24.779,25.216 26.361,23.661C27.945,22.064 28.737,20.164 28.737,17.962L28.737,17.703C28.737,15.458 27.945,13.579 26.361,12.068C24.779,10.557 22.481,9.802 19.468,9.802ZM21.887,49.05L18.646,49.05C15.724,49.05 13.168,48.683 10.976,47.949C8.814,47.258 7.172,46.438 6.046,45.488C4.95,44.538 4.066,43.415 3.396,42.12C2.728,40.868 2.316,39.831 2.164,39.011C2.012,38.191 1.936,37.392 1.936,36.615L1.936,36.42L12.208,36.42C12.574,38.579 15.192,39.659 20.062,39.659L20.2,39.659C26.043,39.659 28.965,36.312 28.965,29.62C26.195,33.117 22.207,34.866 17.004,34.866L16.456,34.866C11.038,34.866 7.004,33.312 4.356,30.203C1.738,27.094 0.43,23.1 0.43,18.221L0.43,16.926C0.43,12.263 1.616,8.398 3.99,5.333C6.364,2.267 10.094,0.734 15.176,0.734L16.136,0.734C21.887,0.734 26.149,2.569 28.919,6.239L28.919,1.576L39.147,1.576L39.147,30.073C39.147,31.541 39.039,33.009 38.827,34.477C38.613,35.945 38.127,37.586 37.365,39.4C36.635,41.256 35.677,42.854 34.489,44.192C33.301,45.574 31.613,46.718 29.421,47.625C27.259,48.575 24.749,49.05 21.887,49.05Z" fill="#FFFFFF"/>
</svg>
