<svg width="40" height="42" viewBox="0 0 40 42" fill="none" xmlns="http://www.w3.org/2000/svg" xmlns:xlink="http://www.w3.org/1999/xlink">
<path d="M10.19,15.325L10.19,15.547C10.19,17.614 10.981,19.423 12.564,20.974C14.147,22.524 16.384,23.3 19.276,23.3L19.504,23.3C22.487,23.3 24.633,22.543 25.942,21.029C27.25,19.516 27.905,17.688 27.905,15.547L27.905,15.325C27.905,13.11 27.25,11.283 25.942,9.843C24.663,8.366 22.517,7.628 19.504,7.628L19.276,7.628C16.293,7.628 14.025,8.385 12.472,9.898C10.951,11.412 10.19,13.221 10.19,15.325ZM0.008,0.65L10.19,0.65L10.19,4.914C13.325,1.592 17.48,-0.07 22.654,-0.07L23.476,-0.07C26.185,-0.07 28.514,0.318 30.462,1.093C32.44,1.868 33.977,2.958 35.073,4.36C36.199,5.763 37.021,7.332 37.539,9.068C38.056,10.803 38.316,12.741 38.316,14.882L38.316,15.934C38.316,18.002 38.042,19.903 37.493,21.638C36.976,23.374 36.139,24.98 34.982,26.456C33.856,27.933 32.288,29.096 30.279,29.945C28.27,30.757 25.896,31.163 23.156,31.163L22.426,31.163C19.291,31.163 16.643,30.591 14.481,29.447C12.351,28.302 10.92,27.232 10.19,26.235L10.19,40.855L0.008,40.855L0.008,0.65Z" fill="#FFFFFF"/>
</svg>
