<svg width="40" height="42" viewBox="0 0 40 42" fill="none" xmlns="http://www.w3.org/2000/svg" xmlns:xlink="http://www.w3.org/1999/xlink">
<path d="M10.721,15.325L10.721,15.547C10.721,17.614 11.512,19.423 13.095,20.974C14.678,22.525 16.915,23.3 19.807,23.3L20.035,23.3C23.018,23.3 25.164,22.543 26.473,21.029C27.782,19.516 28.436,17.688 28.436,15.547L28.436,15.325C28.436,13.11 27.782,11.283 26.473,9.843C25.194,8.366 23.049,7.628 20.035,7.628L19.807,7.628C16.824,7.628 14.556,8.385 13.004,9.898C11.482,11.412 10.721,13.221 10.721,15.325ZM0.539,0.65L10.721,0.65L10.721,4.914C13.856,1.592 18.011,-0.07 23.186,-0.07L24.007,-0.07C26.716,-0.07 29.045,0.318 30.993,1.093C32.972,1.869 34.509,2.958 35.605,4.361C36.731,5.764 37.553,7.333 38.07,9.068C38.588,10.803 38.846,12.741 38.846,14.882L38.846,15.935C38.846,18.002 38.572,19.903 38.024,21.639C37.507,23.374 36.67,24.98 35.513,26.456C34.387,27.933 32.819,29.096 30.81,29.945C28.801,30.757 26.427,31.164 23.688,31.164L22.957,31.164C19.822,31.164 17.174,30.591 15.013,29.447C12.882,28.302 11.451,27.232 10.721,26.235L10.721,40.855L0.539,40.855L0.539,0.65Z" fill="#FFFFFF"/>
</svg>
