<svg width="36" height="42" viewBox="0 0 36 42" fill="none" xmlns="http://www.w3.org/2000/svg" xmlns:xlink="http://www.w3.org/1999/xlink">
<path d="M-0.563,40.443L-0.563,-0.758L9.62,-0.758L9.62,15.634C12.726,11.868 16.757,9.986 21.719,9.986L22.04,9.986C25.996,9.986 28.979,11.13 30.987,13.419C32.997,15.671 34.002,18.403 34.002,21.615L34.002,40.443L23.728,40.443L23.728,25.713C23.728,23.35 23.182,21.523 22.085,20.23C20.989,18.938 19.345,18.292 17.154,18.292C14.871,18.292 13.043,19.031 11.675,20.507C10.306,21.984 9.62,23.941 9.62,26.377L9.62,40.443L-0.563,40.443Z" fill="#FFFFFF"/>
</svg>
