<svg width="40" height="50" viewBox="0 0 40 50" fill="none" xmlns="http://www.w3.org/2000/svg" xmlns:xlink="http://www.w3.org/1999/xlink">
<path d="M10.721,18.705L10.721,18.964C10.721,21.382 11.512,23.497 13.095,25.311C14.678,27.124 16.915,28.031 19.807,28.031L20.035,28.031C23.018,28.031 25.164,27.146 26.473,25.376C27.782,23.606 28.436,21.468 28.436,18.964L28.436,18.705C28.436,16.114 27.782,13.977 26.473,12.293C25.194,10.566 23.049,9.702 20.035,9.702L19.807,9.702C16.824,9.702 14.556,10.587 13.004,12.358C11.482,14.128 10.721,16.244 10.721,18.705ZM0.539,1.542L10.721,1.542L10.721,6.529C13.856,2.643 18.011,0.7 23.186,0.7L24.007,0.7C26.716,0.7 29.045,1.153 30.993,2.06C32.972,2.966 34.509,4.24 35.605,5.881C36.731,7.522 37.553,9.357 38.07,11.386C38.588,13.416 38.846,15.682 38.846,18.187L38.846,19.417C38.846,21.835 38.572,24.059 38.024,26.088C37.507,28.118 36.67,29.996 35.513,31.723C34.387,33.45 32.819,34.81 30.81,35.803C28.801,36.753 26.427,37.228 23.688,37.228L22.957,37.228C19.822,37.228 17.174,36.559 15.013,35.22C12.882,33.882 11.451,32.63 10.721,31.464L10.721,48.562L0.539,48.562L0.539,1.542Z" fill="#FFFFFF"/>
</svg>
