<svg width="36" height="50" viewBox="0 0 36 50" fill="none" xmlns="http://www.w3.org/2000/svg" xmlns:xlink="http://www.w3.org/1999/xlink">
<path d="M-0.563,48.386L-0.563,0.2L9.62,0.2L9.62,19.371C12.726,14.967 16.757,12.765 21.719,12.765L22.039,12.765C25.996,12.765 28.98,14.103 30.987,16.78C32.998,19.414 34.001,22.609 34.001,26.365L34.001,48.386L23.728,48.386L23.728,31.158C23.728,28.395 23.181,26.257 22.086,24.746C20.989,23.235 19.345,22.479 17.153,22.479C14.871,22.479 13.043,23.343 11.676,25.07C10.305,26.797 9.62,29.086 9.62,31.935L9.62,48.386L-0.563,48.386Z" fill="#FFFFFF"/>
</svg>
